<?xml version="1.0" encoding="utf-8"?>
<!-- Generator: Adobe Illustrator 20.1.0, SVG Export Plug-In . SVG Version: 6.00 Build 0)  -->
<svg version="1.1" id="Layer_1" xmlns="http://www.w3.org/2000/svg" xmlns:xlink="http://www.w3.org/1999/xlink" x="0px" y="0px"
	 viewBox="0 0 50 50" style="enable-background:new 0 0 50 50;" xml:space="preserve">
<style type="text/css">
	.st0{opacity:0.74;}
	.st1{fill:#FFFFFF;}
	.st2{fill:#C1C1C1;}
	.st3{fill:#D4D3D3;}
</style>
<g class="st0">
	<path class="st1" d="M23.3,14.1c3.5-0.8,6.3,0.2,8.8,1.9c4.5,3.1,6.4,9.6,4.4,14.5c-2.4,5.6-7.8,8.7-13.7,7.7
		c-5.5-1-9.8-5.8-10.1-11.5c-0.1-2.3,0.4-2.7,2.5-1.8c2.8,1.2,5.4,0.8,7.4-1.1c2.2-2.1,2.5-4.6,1.5-7.4C23.9,15.6,23.7,15,23.3,14.1
		z"/>
	<path class="st1" d="M48.5,7.2c0-3.4-1.2-4.6-4.5-4.6c-12.6,0-25.2,0-37.8,0.1C2.8,2.6,1.5,3.8,1.5,7c-0.1,12.7,0,25.4,0,38.1
		c0,3.2,1.4,4.4,4.6,4.5c12.5,0,24.9,0,37.4,0c3.6,0,4.9-1.6,4.9-5.3c0-6,0-12.3,0-18.3c0,0,0,0,0,0C48.5,20,48.5,13.5,48.5,7.2z
		 M24.8,41.5c-8.2-0.1-15.2-7.2-15.2-15.4c0.1-8.5,6.9-15.4,15.4-15.4c8.6,0,15.4,6.8,15.4,15.4C40.4,34.6,33.4,41.5,24.8,41.5z
		 M41.7,12.1c-1.4,0-2.5-1.1-2.5-2.5s1.1-2.5,2.5-2.5c1.4,0,2.5,1.1,2.5,2.5S43.1,12.1,41.7,12.1z"/>
</g>
<g>
	<path class="st2" d="M23.3,12.1c3.5-0.8,6.3,0.2,8.8,1.9c4.5,3.1,6.4,9.6,4.4,14.5c-2.4,5.6-7.8,8.7-13.7,7.7
		c-5.5-1-9.8-5.8-10.1-11.5c-0.1-2.3,0.4-2.7,2.5-1.8c2.8,1.2,5.4,0.8,7.4-1.1c2.2-2.1,2.5-4.6,1.5-7.4C23.9,13.6,23.7,13,23.3,12.1
		z"/>
	<path class="st2" d="M48.5,5.2c0-3.4-1.2-4.6-4.5-4.6c-12.6,0-25.2,0-37.8,0.1C2.8,0.6,1.5,1.8,1.5,5c-0.1,12.7,0,25.4,0,38.1
		c0,3.2,1.4,4.4,4.6,4.5c12.5,0,24.9,0,37.4,0c3.6,0,4.9-1.6,4.9-5.3c0-6,0-12.3,0-18.3c0,0,0,0,0,0C48.5,18,48.5,11.5,48.5,5.2z
		 M24.8,39.5c-8.2-0.1-15.2-7.2-15.2-15.4C9.7,15.5,16.5,8.7,25,8.7c8.6,0,15.4,6.8,15.4,15.4C40.4,32.6,33.4,39.5,24.8,39.5z
		 M41.7,10.1c-1.4,0-2.5-1.1-2.5-2.5s1.1-2.5,2.5-2.5c1.4,0,2.5,1.1,2.5,2.5S43.1,10.1,41.7,10.1z"/>
</g>
<g>
	<path class="st3" d="M23.3,13.1c3.5-0.8,6.3,0.2,8.8,1.9c4.5,3.1,6.4,9.6,4.4,14.5c-2.4,5.6-7.8,8.7-13.7,7.7
		c-5.5-1-9.8-5.8-10.1-11.5c-0.1-2.3,0.4-2.7,2.5-1.8c2.8,1.2,5.4,0.8,7.4-1.1c2.2-2.1,2.5-4.6,1.5-7.4C23.9,14.6,23.7,14,23.3,13.1
		z"/>
	<path class="st3" d="M48.5,6.2c0-3.4-1.2-4.6-4.5-4.6c-12.6,0-25.2,0-37.8,0.1C2.8,1.6,1.5,2.8,1.5,6c-0.1,12.7,0,25.4,0,38.1
		c0,3.2,1.4,4.4,4.6,4.5c12.5,0,24.9,0,37.4,0c3.6,0,4.9-1.6,4.9-5.3c0-6,0-12.3,0-18.3c0,0,0,0,0,0C48.5,19,48.5,12.5,48.5,6.2z
		 M24.8,40.5c-8.2-0.1-15.2-7.2-15.2-15.4C9.7,16.5,16.5,9.7,25,9.7c8.6,0,15.4,6.8,15.4,15.4C40.4,33.6,33.4,40.5,24.8,40.5z
		 M41.7,11.1c-1.4,0-2.5-1.1-2.5-2.5s1.1-2.5,2.5-2.5c1.4,0,2.5,1.1,2.5,2.5S43.1,11.1,41.7,11.1z"/>
</g>
</svg>
