<?xml version="1.0" encoding="utf-8"?>
<!-- Generator: Adobe Illustrator 20.1.0, SVG Export Plug-In . SVG Version: 6.00 Build 0)  -->
<svg version="1.1" id="Layer_1" xmlns="http://www.w3.org/2000/svg" xmlns:xlink="http://www.w3.org/1999/xlink" x="0px" y="0px"
	 viewBox="0 0 196 196" style="enable-background:new 0 0 196 196;" xml:space="preserve">
<style type="text/css">
	.st0{fill:#646464;}
	.st1{fill:#FFFFFF;}
</style>
<g>
	<path class="st0" d="M92.6,59.3c11.3-2.6,20.3,0.6,28.4,6.1c14.5,10,20.6,31,14.2,46.8C127.4,130.3,110,140.3,91,137
		c-17.7-3.2-31.6-18.7-32.6-37.1c-0.3-7.4,1.3-8.7,8.1-5.8c9,3.9,17.4,2.6,23.9-3.5c7.1-6.8,8.1-14.8,4.8-23.9
		C94.5,64.1,93.9,62.2,92.6,59.3z"/>
	<path class="st0" d="M170,195.3l-145.5,0c-15.9-0.5-23.7-8.2-23.7-23.5c0-16.4,0-32.9-0.1-49.3C0.6,90.1,0.5,56.7,0.8,23.7
		c0-7.9,1.8-13.4,5.8-17.2c5.3-5.2,13.1-5.6,18.5-5.4c49-0.4,98.7-0.4,146.8-0.4c16.2,0,23.5,7.4,23.5,23.9c0,24.5,0,49.8-0.4,73.1
		v71.1C195,186.9,187.1,195.3,170,195.3z M24.7,183.3H170c10.2,0,13-3.1,13-14.6l0-71.2c0.4-23.3,0.4-48.5,0.4-73
		c0-9.9-1.9-11.9-11.5-11.9c-48.1,0-97.9,0-146.8,0.4l-0.1,0l-0.1,0c-5-0.1-8.4,0.5-9.9,2.1c-1.4,1.4-2.1,4.3-2.1,8.7
		c-0.3,32.9-0.2,66.4-0.1,98.7c0,16.5,0.1,32.9,0.1,49.4C12.8,181.2,15.9,183,24.7,183.3z M97.3,163.8L97.3,163.8
		C62,163.4,32.2,133.3,32.2,98c0.4-37,29.4-65.8,65.8-65.8c17.8,0,34.3,6.8,46.7,19.1c12.3,12.3,19.1,28.9,19.1,46.7
		C163.9,134.3,134,163.8,97.3,163.8z M98.1,44.2c-29.8,0-53.5,23.7-53.8,53.9c0,13.6,5.8,27.2,15.9,37.4
		c10.1,10.2,23.6,16.2,37.2,16.3c30.1,0,54.6-24.2,54.6-53.8C151.9,67.8,128.3,44.2,98.1,44.2z M163,49.6c-8.8,0-15.7-6.9-15.7-15.7
		s6.9-15.7,15.7-15.7s15.7,6.9,15.7,15.7S171.8,49.6,163,49.6z M163,30.2c-2.1,0-3.7,1.6-3.7,3.7s1.6,3.7,3.7,3.7s3.7-1.6,3.7-3.7
		S165.1,30.2,163,30.2z"/>
	<circle class="st1" cx="163.3" cy="33.9" r="17.8"/>
	<circle class="st0" cx="163.3" cy="33.9" r="12.6"/>
</g>
</svg>
