<?xml version="1.0" encoding="utf-8"?>
<!-- Generator: Adobe Illustrator 20.1.0, SVG Export Plug-In . SVG Version: 6.00 Build 0)  -->
<svg version="1.1" id="Layer_1" xmlns="http://www.w3.org/2000/svg" xmlns:xlink="http://www.w3.org/1999/xlink" x="0px" y="0px"
	 viewBox="0 0 212 191" style="enable-background:new 0 0 212 191;" xml:space="preserve">
<style type="text/css">
	.st0{fill:#646464;}
</style>
<g>
	<path class="st0" d="M210.2,80.8c-1.2-6.4-3.1-12.7-5.9-18.8c-3.4-7.5-7.9-14.6-13.4-20.9c-8.4-9.6-18.7-17.6-30.6-23.6
		c-8.9-4.5-18.4-7.9-28.3-9.9c-8-1.7-16.2-2.5-23.7-2.5l-0.7,0c-8.8,0-16.5,0.8-24.7,2.5c-7.8,1.6-15.4,4-22.6,7.2
		c-12.8,5.6-23.8,13.2-32.8,22.5C14.4,50.9,6.5,66.9,4.1,84.6c-1.2,8.9-0.8,17.9,1.1,26.6c2,9.3,5.8,18.2,11.1,26.5
		c0.2,0.4,0.2,0.5,0.1,0.8c-1,2.2-1.9,4.5-2.8,6.8l-3.7,9c-2.9,6.9-5.8,14-8.7,20.9c-1.2,2.9-0.8,5.7,1.1,8c1.6,1.8,3.5,2.8,5.7,2.8
		c0.7,0,1.5-0.1,2.2-0.3c2.5-0.7,5.1-1.5,8.2-2.3c3.6-1,7.2-2.1,10.9-3.2l12.3-3.6c4.6-1.3,9.3-2.7,14-4c0.3-0.1,0.6-0.1,0.7,0
		c8.3,4,17.3,7.1,26.6,9.1c6.7,1.4,12.6,2.2,18.1,2.4c5.3,0.2,10.6,0,15.5-0.2c6.4-0.3,13.2-1.4,21-3.4c8.2-2.1,16.1-5.1,23.5-8.9
		c14.9-7.7,27-18.2,35.9-31c5.9-8.5,10.2-17.9,12.5-27.8c1.2-4.8,1.8-9.9,2-15.1C211.6,91.8,211.2,86.2,210.2,80.8z M22.7,163.6
		L25,158c2.3-5.7,4.8-11.5,7.2-17.3c1.3-3,0.9-5.8-1.1-8.8l-0.4-0.5c-2-2.9-4-5.9-5.5-9.1c-3.1-6.7-5-13-5.8-19.3
		c-2.2-17.7,2.4-34.2,13.8-48.9c8-10.4,18.3-18.4,31.4-24.5c6.8-3.2,14.2-5.6,21.9-7.2c7.4-1.5,15.4-2.2,23.7-2
		c6.3,0.1,12.4,0.8,18.1,2c13.2,2.7,25.2,7.7,35.5,14.9c9.6,6.6,16.9,14.2,22.3,23.1c2,3.2,3.8,6.9,5.7,11.5c3.5,8.4,4.9,17.8,4,28
		c-1.2,14.4-7.1,27.6-17.5,39.1c-9.3,10.4-21.3,18.3-35.5,23.6c-6.7,2.5-13.9,4.2-21.5,5.2c-6.2,0.8-12.4,1.1-18.3,0.8
		c-14.3-0.7-27.7-4.1-39.9-10c-0.3-0.2-0.7-0.3-1-0.5c-1.5-0.8-3.1-1.7-5.1-1.7c-0.5,0-0.9,0-1.4,0.2c-1.3,0.3-2.7,0.7-3.9,1.1
		l-1.2,0.3c-9.1,2.6-18.2,5.2-27.3,7.9c-0.6,0.2-1.1,0.3-1.7,0.5C21.9,165.5,22.3,164.5,22.7,163.6z"/>
	<path class="st0" d="M63.9,99.3c2.3,0,4.6,0,6.9,0c1.3,0,2.6,0,3.9,0l0.5,0l0.4,0l0.5,0l0,0c1.5,0,2.8,1.2,2.8,2.7
		c0.1,10.6-2.8,19.4-8.7,26.8c-0.8,1-0.8,2.5,0,3.5l2.4,2.9c1,1.2,2.9,1.3,4.1,0.2c0,0,0,0,0,0c2.8-2.8,5.7-5.6,8.5-8.5
		c6.6-6.9,11-15.6,13-26c0.9-4.7,1.4-9.4,1.5-13.9c0.1-5.2-0.2-10.5-0.4-15.7c0-0.7-0.1-1.5-0.1-2.2c-0.1-1.5-1.3-2.6-2.8-2.6
		l-32.5,0c-1.5,0-2.8,1.2-2.8,2.8c0,1.6,0,3.2,0,4.8c0,7.4,0,15,0,22.6C61.2,98,62.4,99.3,63.9,99.3z"/>
	<path class="st0" d="M113.5,100.2h12.3h0.4c1.2,0,2.2,0.9,2.3,2l0.1,0.4c0,0.1,0,0.2,0,0.2c0,0.3,0.1,0.7,0.1,1.1
		c0,5.6-0.9,10.6-2.6,15.2c-1.5,3.9-3.6,7.6-6.3,10.8c-0.7,0.9-0.7,2.1,0,3c0.9,1,1.7,2,2.6,3.1c1.7,0.1,2.5,0.2,4.2,0.3
		c5-4.8,10.3-9.9,14.4-16.1c3.2-4.9,5.4-10.6,7.1-18.5c0.6-2.5,0.8-5.1,1-7.9c0.1-0.9,0.2-1.9,0.3-2.8c0.7-7.1,0.3-14.4-0.2-21.5
		l0,0c-0.1-1.2-1.1-2.2-2.3-2.2c-8,0-16.1,0-23.1,0l-4.2,0l-4.2,0l-1.8,0c-1.3,0-2.3,1-2.3,2.3v28.2
		C111.2,99.1,112.2,100.2,113.5,100.2z"/>
</g>
</svg>
