<?xml version="1.0" encoding="utf-8"?>
<!-- Generator: Adobe Illustrator 20.1.0, SVG Export Plug-In . SVG Version: 6.00 Build 0)  -->
<svg version="1.1" id="Layer_1" xmlns="http://www.w3.org/2000/svg" xmlns:xlink="http://www.w3.org/1999/xlink" x="0px" y="0px"
	 viewBox="0 0 212 191" style="enable-background:new 0 0 212 191;" xml:space="preserve">
<style type="text/css">
	.st0{fill:#646464;}
</style>
<path class="st0" d="M0.6,97.7c0.2,5.2,0.8,10.3,2,15.1c2.3,9.9,6.6,19.3,12.5,27.8c8.9,12.8,21,23.3,35.9,31
	c7.4,3.8,15.3,6.8,23.5,8.9c7.8,2,14.6,3.1,21,3.4c4.9,0.2,10.2,0.4,15.5,0.2c5.5-0.2,11.4-1,18.1-2.4c9.3-2,18.3-5.1,26.6-9.1
	c0.1-0.1,0.4-0.1,0.7,0c4.7,1.3,9.4,2.7,14,4l12.3,3.6c3.7,1.1,7.3,2.2,10.9,3.2c3.1,0.8,5.7,1.6,8.2,2.3c0.7,0.2,1.5,0.3,2.2,0.3
	c2.2,0,4.1-1,5.7-2.8c1.9-2.3,2.3-5.1,1.1-8c-2.9-6.9-5.8-14-8.7-20.9l-3.7-9c-0.9-2.3-1.8-4.6-2.8-6.8c-0.1-0.3-0.1-0.4,0.1-0.8
	c5.3-8.3,9.1-17.2,11.1-26.5c1.9-8.7,2.3-17.7,1.1-26.6c-2.4-17.7-10.3-33.7-23.4-47.3c-9-9.3-20-16.9-32.8-22.5
	c-7.2-3.2-14.8-5.6-22.6-7.2c-8.2-1.7-15.9-2.5-24.7-2.5h-0.7C96.2,5.1,88,5.9,80,7.6c-9.9,2-19.4,5.4-28.3,9.9
	c-11.9,6-22.2,14-30.6,23.6c-5.5,6.3-10,13.4-13.4,20.9C4.9,68.1,3,74.4,1.8,80.8C0.8,86.2,0.4,91.8,0.6,97.7z M190.5,166.4
	c-0.6-0.2-1.1-0.3-1.7-0.5c-9.1-2.7-18.2-5.3-27.3-7.9l-1.2-0.3c-1.2-0.4-2.6-0.8-3.9-1.1c-0.5-0.2-0.9-0.2-1.4-0.2
	c-2,0-3.6,0.9-5.1,1.7c-0.3,0.2-0.7,0.3-1,0.5c-12.2,5.9-25.6,9.3-39.9,10c-5.9,0.3-12.1,0-18.3-0.8c-7.6-1-14.8-2.7-21.5-5.2
	C55,157.3,43,149.4,33.7,139c-10.4-11.5-16.3-24.7-17.5-39.1c-0.9-10.2,0.5-19.6,4-28c1.9-4.6,3.7-8.3,5.7-11.5
	c5.4-8.9,12.7-16.5,22.3-23.1c10.3-7.2,22.3-12.2,35.5-14.9c5.7-1.2,11.8-1.9,18.1-2c8.3-0.2,16.3,0.5,23.7,2
	c7.7,1.6,15.1,4,21.9,7.2c13.1,6.1,23.4,14.1,31.4,24.5c11.4,14.7,16,31.2,13.8,48.9c-0.8,6.3-2.7,12.6-5.8,19.3
	c-1.5,3.2-3.5,6.2-5.5,9.1l-0.4,0.5c-2,3-2.4,5.8-1.1,8.8c2.4,5.8,4.9,11.6,7.2,17.3l2.3,5.6C189.7,164.5,190.1,165.5,190.5,166.4z"
	/>
<path class="st0" d="M63.9,99.3c2.3,0,4.6,0,6.9,0c1.3,0,2.6,0,3.9,0h0.5h0.4h0.5l0,0c1.5,0,2.8,1.2,2.8,2.7
	c0.1,10.6-2.8,19.4-8.7,26.8c-0.8,1-0.8,2.5,0,3.5l2.4,2.9c1,1.2,2.9,1.3,4.1,0.2l0,0c2.8-2.8,5.7-5.6,8.5-8.5
	c6.6-6.9,11-15.6,13-26c0.9-4.7,1.4-9.4,1.5-13.9c0.1-5.2-0.2-10.5-0.4-15.7c0-0.7-0.1-1.5-0.1-2.2c-0.1-1.5-1.3-2.6-2.8-2.6H63.9
	c-1.5,0-2.8,1.2-2.8,2.8c0,1.6,0,3.2,0,4.8c0,7.4,0,15,0,22.6C61.2,98,62.4,99.3,63.9,99.3z"/>
<path class="st0" d="M113.5,100.2h12.3h0.4c1.2,0,2.2,0.9,2.3,2l0.1,0.4c0,0.1,0,0.2,0,0.2c0,0.3,0.1,0.7,0.1,1.1
	c0,5.6-0.9,10.6-2.6,15.2c-1.5,3.9-3.6,7.6-6.3,10.8c-0.7,0.9-0.7,2.1,0,3c0.9,1,1.7,2,2.6,3.1c1.7,0.1,2.5,0.2,4.2,0.3
	c5-4.8,10.3-9.9,14.4-16.1c3.2-4.9,5.4-10.6,7.1-18.5c0.6-2.5,0.8-5.1,1-7.9c0.1-0.9,0.2-1.9,0.3-2.8c0.7-7.1,0.3-14.4-0.2-21.5l0,0
	c-0.1-1.2-1.1-2.2-2.3-2.2c-8,0-16.1,0-23.1,0h-4.2h-4.2h-1.8c-1.3,0-2.3,1-2.3,2.3v28.2C111.2,99.1,112.2,100.2,113.5,100.2z"/>
</svg>
