<?xml version="1.0" encoding="utf-8"?>
<!-- Generator: Adobe Illustrator 20.1.0, SVG Export Plug-In . SVG Version: 6.00 Build 0)  -->
<svg version="1.1" id="Layer_1" xmlns="http://www.w3.org/2000/svg" xmlns:xlink="http://www.w3.org/1999/xlink" x="0px" y="0px"
	 viewBox="0 0 160 220" style="enable-background:new 0 0 160 220;" xml:space="preserve">
<style type="text/css">
	.st0{fill:#646464;}
</style>
<g>
	<path class="st0" d="M158.8,127.1l-1,0L158.8,127.1l0-6.6c0-2-0.4-4.1-1.1-6.1c-2-5.6-6.3-9.9-11.8-11.8c-4.5-1.6-9.4-1.4-13.9,0.4
		c-1.5-6.1-5.2-10.4-10.9-13c-5.9-2.6-12-2.3-17.6,1c-6-8.5-13.8-11.2-23.3-7.8l0-4.4c0-7.6,0-15.1,0-22.7c0-2-0.2-3.8-0.6-5.3
		c-1.4-5.9-5.4-10.6-11-13.1c-5.6-2.5-11.8-2.2-17,0.7c-6.6,3.7-10.1,9.7-10.2,17.4c0,13.5,0,26.9,0,40.4l0,10.8
		c-4.7-4-10-7.8-16.4-10.2c-3.3-1.3-8.4-2.7-13.7-0.6c-5.2,2-8.4,5.6-9.6,10.7c-1,4.3,0.1,8.3,1.2,11.6c2.1,6,5.3,11.3,8.1,15.6
		c4.3,6.6,8.7,13.2,12.9,19.6l2.8,4.3c5,7.6,9.7,15.7,14.3,23.4l1.7,2.9c6.4,10.9,14.6,19.5,24.4,25.5c9.7,6,20.5,9.1,32,9.2l0.6,0
		c2.4,0,4.7-0.2,6.9-0.4c5.4-0.5,10.9-1.9,16.3-4.2c9.7-4.1,17.9-10.4,24.1-18.7c7.6-10.1,11.6-21.4,11.8-33.6
		C158.9,150.3,158.8,138.5,158.8,127.1z M53.9,55.7c0-3.1,1.2-5.2,3.9-6.6c2-1,4.4-0.9,6.4,0.3c2,1.2,3.3,3.3,3.4,5.6
		c0,1.5,0,3,0,4.5c0,0.6,0,1.2,0,1.9l0,61.4c0,3.1,1.3,4.4,4.4,4.4c0,0,0,0,0,0c0.3,0,0.6,0,0.9,0l0.4,0c0.9,0,1.8,0,2.7,0
		c1.2,0.1,2.2-0.3,3-1c0.8-0.7,1.2-1.8,1.1-3c0-7.2,0-14.5,0-21.7c0-3.1,1.6-5.4,4.5-6.6c1.7-0.7,3.7-0.6,5.5,0.4
		c1.8,0.9,3,2.5,3.4,4.2c0.2,0.8,0.3,1.7,0.3,2.5c0,5.4,0,10.1,0,14.5c0,1.4,0.4,2.4,1.2,3.2c0.8,0.8,1.9,1.1,3.2,1
		c0.8,0,1.7,0,2.5,0c0.4,0,0.8,0,1.2,0c3,0,4.4-1.3,4.4-4.3l0-2.7c0-1.9,0-3.8,0-5.6c0-1.9,0.7-3.7,2-5c1.3-1.3,3-2,4.9-2
		c3.6,0,6.7,3.1,6.7,6.6c0.1,4.6,0.1,9.5,0,15.3c0,0.5,0,2.1,1.2,3.3c0.8,0.8,1.9,1.1,3.3,1c1.3-0.1,2.7-0.1,4,0
		c1.2,0,2.2-0.3,3-1.1c0.8-0.7,1.1-1.7,1.1-3l0-0.2c0-1.7-0.1-3.3,0.5-4.6c1.2-2.8,4-4.5,7.1-4.3c2.7,0.2,5.2,2.4,5.9,5.2
		c0.1,0.5,0.2,1.1,0.2,1.5c0,3.2,0,6.4,0,9.7c0,9.9,0,20.2,0,30.3c-0.1,9.5-3.2,18.5-9.4,26.7c-5.5,7.4-12.7,12.8-21.2,16.1
		c-6.4,2.4-13.3,3.3-20.6,2.7c-5.1-0.5-9.6-1.5-13.7-3.1c-7.2-2.8-13.6-7.4-19.6-14.1c-4.2-4.7-7.6-10.3-11-15.6l-1.3-2.1
		c-4.2-6.8-8.6-13.6-12.9-20.3c-3.6-5.6-7.2-11.3-10.9-17.1c-3.5-5.5-6.7-11-9.7-16.4c-0.9-1.6-1.5-3.4-2.2-6.1
		c-0.3-1.2-0.1-2.1,0.5-2.7c0.6-0.7,1.6-1,2.7-1c0.2,0,0.4,0,0.7,0.1c4.2,0.6,7.7,3,11.3,5.6c6.4,4.7,12,10.2,18.5,16.9
		c0.1,0.1,0.1,0.2,0.2,0.3c0.1,0.2,0.2,0.3,0.3,0.5l1.6,2.3l4.3-2.5l0-18.5L53.9,55.7z"/>
	<path class="st0" d="M15.9,30.1L15.9,30.1c2.2,1.7,4.3,3.5,6.5,5.3l2.9,2.4c3.1,2.5,6.1,5,9.2,7.4l0.1,0.1c0.4,0.3,1.2,1.1,2.6,1.1
		c0.1,0,0.2,0,0.3,0c0.7-0.1,1.7-0.4,2.5-1.4l5.6-6.9l-7-5.6c-5-4.1-10-8.1-15-12.2c-0.9-0.7-1.9-1-2.9-0.9c-1,0.1-1.9,0.7-2.7,1.6
		c-0.9,1.1-1.8,2.3-2.7,3.4c-0.8,0.9-1.2,2-1.1,3C14.3,28.3,14.9,29.3,15.9,30.1z"/>
	<path class="st0" d="M81.2,44.6c0.7,0.9,1.7,1.5,2.7,1.6c0.1,0,0.3,0,0.4,0c0.9,0,1.8-0.4,2.6-1c1-0.8,2-1.6,3-2.4l4.7-3.8
		c3.6-2.9,7.3-5.9,10.9-8.8c0.4-0.3,1.6-1.3,1.8-3c0.1-1.1-0.3-2.2-1.2-3.1c-0.5-0.6-1-1.2-1.5-1.8c-0.3-0.3-0.5-0.7-0.8-1
		c-2-2.4-3.9-2.6-6.3-0.7c-4.7,3.8-9.3,7.6-14,11.3c-1.2,0.9-2.3,1.9-3.5,2.9l-4,3.2l2.9,3.6C79.6,42.7,80.4,43.6,81.2,44.6z"/>
	<path class="st0" d="M58.3,33.3l0.5,0c1.3,0,2.6,0,3.9,0c0.1,0,0.2,0,0.3,0c1.1,0,2-0.4,2.8-1c1.2-1.1,1.2-2.6,1.2-3.1
		c0-5.8,0-11.7,0-17.5V5.2c0-0.3,0-0.6,0-0.9v0c-0.1-1.8-1.5-3.1-3.3-3.1h-6c-1.5,0-2.7,1-3,2.5v0c0,0.2-0.1,0.5-0.1,0.9l0,7.1
		c0,5.9,0,11.9,0,17.8c0,1.1,0.4,2.1,1.1,2.8C56.2,33,57.2,33.3,58.3,33.3z"/>
	<path class="st0" d="M4.3,69.2c0.3,1.5,0.7,3,1.1,4.5c0.1,0.5,0.4,1,0.7,1.4c0.7,0.8,1.8,1.3,2.9,1.3c0.3,0,0.7,0,1-0.1l0.3-0.1
		c0.4-0.1,0.8-0.2,1.1-0.3l1.4-0.3c6.9-1.6,13.8-3.1,20.7-4.7c1.4-0.3,2.3-1,2.9-2.1c0.9-1.8,0-3.5-0.2-4.1
		c-0.3-0.5-0.4-1.2-0.4-1.9c0-1.1-0.3-2.6-1.6-3.6c-0.9-0.7-2-0.9-3.3-0.6c-1.8,0.4-3.7,0.9-5.5,1.3l-0.4,0.1
		c-3.8,0.9-7.7,1.8-11.5,2.7l-2.1,0.5c-1.3,0.3-2.7,0.6-4.1,0.9c-0.5,0.1-1.8,0.4-2.6,1.6c-0.4,0.6-0.7,1.5-0.4,2.8L4.3,69.2z"/>
	<path class="st0" d="M98.4,60.3c-2.6-0.6-5.2-1.2-7.7-1.8h0c-1.2-0.3-2.2-0.1-3.1,0.4c-0.9,0.6-1.5,1.5-1.7,2.6
		c-0.2,1.1-0.5,2.3-0.8,3.4l-0.2,1c-0.3,1.4,0,2.5,0.4,3.1c0.4,0.6,1.1,1.4,2.5,1.7c2,0.4,3.9,0.9,5.9,1.3c3,0.7,5.9,1.4,8.9,2.1
		l9.6,2.2l1.9,0.3l1.2-1.6c0.2-0.3,0.7-0.8,0.9-1.7c0.2-0.8,0.4-1.7,0.6-2.6c0.2-0.7,0.3-1.3,0.5-2c0.3-1.2,0.1-2.2-0.4-3.1
		c-0.6-0.9-1.5-1.5-2.6-1.8c-1-0.2-2.1-0.5-3.1-0.7l-4.2-1C104,61.6,101.2,61,98.4,60.3z"/>
</g>
</svg>
