<?xml version="1.0" encoding="utf-8"?>
<!-- Generator: Adobe Illustrator 20.1.0, SVG Export Plug-In . SVG Version: 6.00 Build 0)  -->
<svg version="1.1" id="Layer_1" xmlns="http://www.w3.org/2000/svg" xmlns:xlink="http://www.w3.org/1999/xlink" x="0px" y="0px"
	 viewBox="0 0 55 55" style="enable-background:new 0 0 55 55;" xml:space="preserve">
<style type="text/css">
	.st0{fill:#FFFFFF;}
	.st1{fill:#155696;}
</style>
<g>
	<g>
		<path class="st0" d="M25,29.8L13.8,16.3c-0.6-0.8-0.5-1.9,0.2-2.5c0.7-0.6,1.6-0.5,2.3,0L29.8,25c1.4,1.2,1.6,3.3,0.4,4.8
			c-1.2,1.4-3.3,1.6-4.8,0.4C25.3,30.1,25.1,30,25,29.8z"/>
	</g>
	<path class="st0" d="M27.5,54.8c-15.1,0-27.3-12.3-27.3-27.3c0-7.3,2.8-14.2,8-19.3c0.3-0.3,0.9-0.3,1.2,0c0.3,0.3,0.3,0.9,0,1.2
		c-4.8,4.8-7.5,11.3-7.5,18.1c0,14.1,11.5,25.6,25.6,25.6s25.6-11.5,25.6-25.6c0-13.8-11-25.1-24.7-25.6v11.5c0,0.5-0.4,0.9-0.9,0.9
		s-0.9-0.4-0.9-0.9V1c0-0.5,0.4-0.9,0.9-0.9c15.1,0,27.3,12.3,27.3,27.3S42.6,54.8,27.5,54.8z"/>
	<path class="st1" d="M11.6,26.7H6.3c-0.5,0-0.9-0.4-0.9-0.9c0-0.5,0.4-0.9,0.9-0.9h5.3c0.5,0,0.9,0.4,0.9,0.9
		C12.5,26.3,12.1,26.7,11.6,26.7z"/>
	<path class="st1" d="M27.5,50.9c-0.5,0-0.9-0.4-0.9-0.9v-5.3c0-0.5,0.4-0.9,0.9-0.9s0.9,0.4,0.9,0.9v5.3
		C28.4,50.5,28,50.9,27.5,50.9z"/>
	<path class="st1" d="M48.7,26.7h-5.3c-0.5,0-0.9-0.4-0.9-0.9c0-0.5,0.4-0.9,0.9-0.9h5.3c0.5,0,0.9,0.4,0.9,0.9
		C49.5,26.3,49.2,26.7,48.7,26.7z"/>
	<path class="st1" d="M11.4,43.6c-0.2,0-0.5-0.1-0.6-0.3c-0.3-0.3-0.3-0.9,0-1.2l3.5-3.5c0.3-0.3,0.9-0.3,1.2,0
		c0.3,0.3,0.3,0.9,0,1.2l-3.5,3.5C11.9,43.6,11.7,43.6,11.4,43.6z"/>
	<path class="st1" d="M37.8,16.9c-0.2,0-0.5-0.1-0.6-0.3c-0.3-0.3-0.3-0.9,0-1.2l3.5-3.5c0.3-0.3,0.9-0.3,1.2,0
		c0.3,0.3,0.3,0.9,0,1.2l-3.5,3.5C38.3,16.8,38.1,16.9,37.8,16.9z"/>
	<path class="st1" d="M43.4,43.6c-0.2,0-0.5-0.1-0.6-0.3l-3.5-3.5c-0.3-0.3-0.3-0.9,0-1.2c0.3-0.3,0.9-0.3,1.2,0l3.5,3.5
		c0.3,0.3,0.3,0.9,0,1.2C43.8,43.6,43.6,43.6,43.4,43.6z"/>
</g>
</svg>
