<?xml version="1.0" encoding="utf-8"?>
<!-- Generator: Adobe Illustrator 20.1.0, SVG Export Plug-In . SVG Version: 6.00 Build 0)  -->
<svg version="1.1" id="Layer_1" xmlns="http://www.w3.org/2000/svg" xmlns:xlink="http://www.w3.org/1999/xlink" x="0px" y="0px"
	 viewBox="0 0 140 140" style="enable-background:new 0 0 140 140;" xml:space="preserve">
<style type="text/css">
	.st0{fill:#02BF88;}
</style>
<g>
	<path class="st0" d="M70,139.7c-38.4,0-69.7-31.3-69.7-69.7S31.6,0.3,70,0.3s69.7,31.3,69.7,69.7S108.4,139.7,70,139.7z M70,12.3
		c-31.8,0-57.7,25.9-57.7,57.7s25.9,57.7,57.7,57.7s57.7-25.9,57.7-57.7S101.8,12.3,70,12.3z"/>
	<path class="st0" d="M63.7,97.8c-0.2-0.1-0.3-0.3-0.5-0.4c-3.3-3.3-6.7-6.7-10-10c-3.9-3.9-7.7-7.7-11.6-11.6
		c-0.5-0.5-0.5-0.7,0-1.2c3-2.9,5.9-5.9,8.9-8.9c0.6-0.6,0.6-0.6,1.2,0c3.7,3.7,7.4,7.4,11.1,11c0.8,0.8,0.8,0.8,1.6,0
		c10.6-10.6,21.2-21.2,31.8-31.8c0.7-0.7,0.7-0.7,1.4,0c2.9,2.9,5.9,5.9,8.8,8.8c0.5,0.4,0.5,0.7,0,1.2
		C92.4,69.1,78.3,83.2,64.2,97.3C64.1,97.5,63.9,97.6,63.7,97.8z"/>
</g>
</svg>
