<?xml version="1.0" encoding="utf-8"?>
<!-- Generator: Adobe Illustrator 20.1.0, SVG Export Plug-In . SVG Version: 6.00 Build 0)  -->
<svg version="1.1" id="Layer_1" xmlns="http://www.w3.org/2000/svg" xmlns:xlink="http://www.w3.org/1999/xlink" x="0px" y="0px"
	 viewBox="0 0 150 150" style="enable-background:new 0 0 150 150;" xml:space="preserve">
<style type="text/css">
	.st0{fill:#2189E2;}
</style>
<path class="st0" d="M149.6,65.8c-1.5-4.9-5.7-8.1-10.8-8.1c-3.3,0-6.6,0-9.8,0c-0.6-1.7-1.1-3.3-1.7-4.7c-0.5-1.2-1.1-2.4-1.7-3.6
	c0-0.1-0.1-0.1-0.1-0.2l1.2-1.2c1.7-1.7,3.4-3.4,5.1-5.1c5.2-5.2,5.2-12,0-17.2l-1.6-1.7c-2-2-4-4-6-6c-4.9-4.8-11.9-4.8-16.7,0
	c-1.8,1.7-3.5,3.5-5.2,5.2l-1.2,1.2L99.9,24c-2.6-1-5-2-7.5-3c0-2.1,0-4.2,0-6.3l0-2.5c0-6.1-2.7-9.9-8.4-11.8L83.5,0H66.9l-0.4,0.2
	c-0.3,0.1-0.6,0.2-0.9,0.3c-0.7,0.3-1.6,0.6-2.4,1.1c-3.5,2.1-5.5,5.3-5.6,9.3c0,1.8,0,3.7,0,5.5c0,1.5,0,3.1,0,4.6
	c-2.4,1-4.9,2-7.5,3L49,24.4l-0.8-0.8c-1.7-1.7-3.5-3.5-5.3-5.3c-5.3-5.3-12.1-5.3-17.3,0c-2.4,2.4-4.8,4.8-7.2,7.2
	C13,30.9,13,37.6,18.3,43c1.6,1.6,3.2,3.2,4.7,4.7l1.3,1.3l-0.6,1.4c-1,2.4-1.9,4.8-2.8,7.2c-2.2,0-4.4,0-6.6,0l-2.2,0
	c-6.2,0-9.9,2.7-11.8,8.4L0,66.5v16.6l0.2,0.4c0.1,0.3,0.3,0.6,0.4,0.9c0.3,0.8,0.7,1.7,1.2,2.6c2.1,3.4,5.4,5.2,9.3,5.3
	c1.7,0,3.3,0,5,0c1.6,0,3.3,0,4.9,0c1,2.4,1.9,4.9,3,7.4l0.4,1.1l-1.1,1.1c-1.7,1.7-3.4,3.4-5.2,5.2c-5,5.1-5.1,11.8,0,16.9
	c2.6,2.6,5.2,5.2,7.9,7.8c4.9,4.8,11.9,4.8,16.7,0c1.8-1.8,3.5-3.5,5.2-5.2l1.1-1.1l1.5,0.6c2.4,1,4.7,1.9,7.1,2.7
	c0,2.8,0,5.7,0,8.5l0,0.5c0,5.8,2.9,9.8,8.4,11.5c0,0,0,0,0.1,0l0.6,0.4h16.4l0.7-0.3c0.1-0.1,0.3-0.1,0.4-0.2
	c4.9-1.5,8.1-5.7,8.1-10.8c0-1.6,0-3.3,0-4.9c0-1.6,0-3.2,0-4.9c2.4-1,4.9-1.9,7.4-2.9l1.1-0.4l1,1c1.7,1.7,3.4,3.4,5.1,5.2
	c5.1,5.1,12,5.1,17.1,0l1.1-1.1c2.2-2.2,4.4-4.4,6.6-6.6c4.9-4.9,4.8-11.8-0.1-16.7c-1.8-1.8-3.6-3.6-5.3-5.3l-1.1-1.1l0.4-1.2
	c1-2.6,1.9-5,2.9-7.4c2.1,0,4.2,0,6.2,0c0.9,0,1.9,0,2.8,0c5.8,0,9.8-2.9,11.6-8.4c0,0,0,0,0-0.1l0.4-0.6V66.9l-0.3-0.7
	C149.7,66.1,149.6,65.9,149.6,65.8z M139.4,80.5c0,1.2-0.2,1.3-1.3,1.3c-2.2,0-4.4,0-6.6,0c-2,0-4,0-6,0c-3.1,0-4.9,1.4-5.7,4.3
	c-1.1,4.4-2.9,8.6-5.2,12.6c-1.5,2.6-1.2,4.9,0.9,7.1c1.6,1.7,3.3,3.3,4.9,4.9c1.3,1.3,2.6,2.6,3.9,3.9c1,1,1,1.1,0,2.1
	c-2.5,2.5-5.1,5.1-7.6,7.6c-0.9,0.9-1.1,1-2.1,0c-1.5-1.5-3-3-4.5-4.5c-1.4-1.4-2.8-2.8-4.2-4.2c-2.4-2.4-4.6-2.7-7.5-0.9
	c-3.8,2.3-7.9,3.9-12.1,5c-3.2,0.8-4.6,2.6-4.6,5.9l0,5.6c0,2.3,0,4.5,0,6.8c0,1.3-0.2,1.4-1.4,1.4c-3.6,0-7.3,0-10.9,0
	c-1.2,0-1.4-0.1-1.4-1.4c0-2,0-3.9,0-5.9c0-2.2,0-4.4,0-6.7c0-3.1-1.5-5-4.4-5.7c-4.3-1.1-8.5-2.8-12.5-5.2c-1.1-0.7-2.1-1-3.1-1
	c-1.4,0-2.7,0.6-4,2c-1.5,1.5-2.9,2.9-4.4,4.4c-1.4,1.4-2.9,2.9-4.3,4.3c-1,1-1.2,1-2.1,0c-2.6-2.6-5.2-5.1-7.7-7.7
	c-0.9-0.9-0.9-1,0-1.9c1.6-1.6,3.1-3.2,4.7-4.7c1.4-1.4,2.7-2.7,4.1-4.1c2.3-2.3,2.6-4.5,0.9-7.3c-2.3-3.9-4-8.1-5.1-12.3
	c-0.8-3.1-2.6-4.5-5.9-4.5l-5.3,0c-2.4,0-4.8,0-7.2,0c-1.2,0-1.3-0.2-1.3-1.3c0-3.6,0-7.3,0-10.9c0-1.3,0.2-1.4,1.4-1.4
	c2,0,4.1,0,6.1,0c2.1,0,4.3,0,6.4,0c3.2,0,5-1.5,5.8-4.5c1-4.2,2.7-8.3,5-12.2c1.7-2.8,1.4-5.1-0.9-7.4c-1.4-1.4-2.7-2.7-4.1-4.1
	c-1.5-1.5-3.1-3.1-4.6-4.6c-0.9-0.9-0.9-1,0-2c2.6-2.6,5.1-5.2,7.7-7.7c0.9-0.9,1-0.9,2,0c1.5,1.5,3.1,3.1,4.6,4.6
	c1.4,1.4,2.7,2.7,4.1,4.1c2.3,2.3,4.5,2.6,7.4,0.9c3.9-2.3,8-4,12.2-5c3.1-0.8,4.5-2.6,4.5-5.8c0-1.5,0-2.9,0-4.4l0-3.9
	c0-1.5,0-3,0-4.5c0-0.9,0.3-1.1,1-1.1c3.9,0,7.8,0,11.6,0c0.7,0,1,0.1,1,1.2c0,2.5,0,4.9,0,7.4c0,1.7,0,3.5,0,5.2
	c0,3.2,1.4,5.1,4.5,5.8c4.2,1.1,8.4,2.8,12.3,5.1c2.7,1.6,5,1.3,7.2-0.9c1.6-1.6,3.2-3.2,4.8-4.8c1.3-1.3,2.7-2.7,4-4
	c0.9-0.9,1.1-0.9,2,0c2.6,2.6,5.2,5.2,7.8,7.8c0.8,0.8,0.8,0.9,0,1.8c-1.7,1.8-3.5,3.5-5.2,5.3c-1.2,1.2-2.4,2.4-3.6,3.6
	c-2.3,2.3-2.6,4.6-1,7.4c2.3,3.9,4,8,5,12.2c0.8,3.1,2.6,4.6,5.9,4.6c1.9,0,3.9,0,5.8,0c2.2,0,4.4,0,6.5,0c1.2,0,1.4,0.1,1.4,1.4
	C139.5,73.2,139.5,76.8,139.4,80.5z"/>
<path class="st0" d="M97.1,51.1c-6.4-6-14.6-9.1-23.2-8.7C55.8,43.3,41.7,58.3,42.4,76c0.4,8.7,4,16.8,10.4,22.8
	c6,5.7,13.7,8.8,21.8,8.8c0.4,0,0.9,0,1.3,0c9-0.4,17.2-4.2,23.3-10.8c5.8-6.3,8.8-14.4,8.4-22.8C107.2,65.2,103.4,57.1,97.1,51.1z
	 M75,97C75,97,75,97,75,97c-5.9,0-11.4-2.3-15.6-6.4c-4.1-4.2-6.4-9.7-6.4-15.6c0-12.1,9.9-21.9,22-21.9c0,0,0,0,0,0
	C87.1,53.1,97,62.9,97,75C97,87.1,87.1,96.9,75,97z"/>
<circle class="st0" cx="75" cy="75" r="11.5"/>
</svg>
