<?xml version="1.0" encoding="utf-8"?>
<!-- Generator: Adobe Illustrator 20.1.0, SVG Export Plug-In . SVG Version: 6.00 Build 0)  -->
<svg version="1.1" id="Layer_1" xmlns="http://www.w3.org/2000/svg" xmlns:xlink="http://www.w3.org/1999/xlink" x="0px" y="0px"
	 viewBox="0 0 51 111" style="enable-background:new 0 0 51 111;" xml:space="preserve">
<style type="text/css">
	.st0{fill:#FFFFFF;}
</style>
<path class="st0" d="M33.5,36.2c6.1,0,11.5,0,17.5,0c-0.7,6.5-1.3,12.7-1.9,19.3c-5.2,0-10,0-15.4,0c0,18.7,0,36.8,0,55.3
	c-7.9,0-15.2,0-23.1,0c0-18.3,0-36.3,0-55c-3.7,0-7,0-10.6,0c0-6.8,0-13,0-19.6c3.3,0,6.5,0,10.5,0c0-4,0-7.7,0-11.3
	C10.6,8.4,18.7,0.3,35.2,0.3c5,0,10.1,0,15.3,0c0,6.4,0,12.3,0,19c-3.6,0-7.3,0-10.9,0c-4.2-0.1-6.2,1.9-6.1,6.2
	C33.6,28.8,33.5,32.1,33.5,36.2z"/>
</svg>
