<?xml version="1.0" encoding="utf-8"?>
<!-- Generator: Adobe Illustrator 20.1.0, SVG Export Plug-In . SVG Version: 6.00 Build 0)  -->
<svg version="1.1" id="Layer_1" xmlns="http://www.w3.org/2000/svg" xmlns:xlink="http://www.w3.org/1999/xlink" x="0px" y="0px"
	 viewBox="0 0 111 108" style="enable-background:new 0 0 111 108;" xml:space="preserve">
<style type="text/css">
	.st0{fill:url(#SVGID_1_);}
	.st1{fill:#FFFFFF;}
</style>
<g>
	<linearGradient id="SVGID_1_" gradientUnits="userSpaceOnUse" x1="55.5" y1="0" x2="55.5" y2="108">
		<stop  offset="0" style="stop-color:#E10019"/>
		<stop  offset="1" style="stop-color:#6D0007"/>
	</linearGradient>
	<polygon class="st0" points="0,108 111,108 111,0 	"/>
	<g>
		<path class="st1" d="M46.1,90.7l-6.9-7l4.4-4.3l1.2,1.2l-3.1,3.1l1.8,1.8l2.6-2.5l1.1,1.1l-2.6,2.5l2.9,2.9L46.1,90.7z"/>
		<path class="st1" d="M54,83.2c-0.4,0.4-0.8,0.7-1.3,0.8s-0.9,0.2-1.4,0.2c-0.5,0-0.9-0.1-1.4-0.3c-0.4-0.2-0.8-0.5-1.2-0.8
			c-0.4-0.4-0.6-0.8-0.9-1.2c-0.2-0.4-0.3-0.9-0.3-1.4c0-0.5,0.1-0.9,0.2-1.4c0.2-0.5,0.5-0.9,0.9-1.3c0.4-0.4,0.8-0.7,1.3-0.8
			c0.5-0.2,0.9-0.2,1.4-0.2c0.5,0,0.9,0.1,1.3,0.4s0.8,0.5,1.2,0.8c0.1,0.1,0.2,0.2,0.2,0.2c0.1,0.1,0.1,0.2,0.2,0.2l-3.8,3.7
			c0.2,0.2,0.4,0.3,0.7,0.4c0.2,0.1,0.5,0.1,0.7,0.1c0.2,0,0.4,0,0.7-0.1c0.2-0.1,0.4-0.2,0.6-0.4c0.2-0.2,0.4-0.5,0.5-0.9
			c0.1-0.3,0.1-0.7-0.1-0.9l1.4-0.7c0.2,0.6,0.2,1.2,0.1,1.8C54.9,82,54.6,82.6,54,83.2z M52.2,78.8c-0.4-0.4-0.9-0.5-1.3-0.5
			c-0.5,0-0.9,0.2-1.2,0.5c-0.2,0.2-0.3,0.3-0.4,0.5c-0.1,0.2-0.1,0.4-0.1,0.6c0,0.2,0,0.4,0.1,0.7c0.1,0.2,0.2,0.4,0.4,0.6
			L52.2,78.8z"/>
		<path class="st1" d="M60.3,77.1c-0.4,0.4-0.8,0.7-1.3,0.8c-0.5,0.2-0.9,0.2-1.4,0.2s-0.9-0.1-1.4-0.3c-0.4-0.2-0.8-0.5-1.2-0.8
			c-0.4-0.4-0.6-0.8-0.9-1.2c-0.2-0.4-0.3-0.9-0.3-1.4c0-0.5,0.1-0.9,0.2-1.4c0.2-0.5,0.5-0.9,0.9-1.3c0.4-0.4,0.8-0.7,1.3-0.8
			c0.5-0.2,0.9-0.2,1.4-0.2c0.5,0,0.9,0.1,1.3,0.4s0.8,0.5,1.2,0.8c0.1,0.1,0.2,0.2,0.2,0.2c0.1,0.1,0.1,0.2,0.2,0.2L56.8,76
			c0.2,0.2,0.4,0.3,0.7,0.4c0.2,0.1,0.5,0.1,0.7,0.1c0.2,0,0.4,0,0.7-0.1c0.2-0.1,0.4-0.2,0.6-0.4c0.2-0.2,0.4-0.5,0.5-0.9
			c0.1-0.3,0.1-0.7-0.1-0.9l1.4-0.7c0.2,0.6,0.2,1.2,0.1,1.8C61.2,76,60.8,76.5,60.3,77.1z M58.5,72.7c-0.4-0.4-0.9-0.5-1.3-0.5
			c-0.5,0-0.9,0.2-1.2,0.5c-0.2,0.2-0.3,0.3-0.4,0.5c-0.1,0.2-0.1,0.4-0.1,0.6c0,0.2,0,0.4,0.1,0.7c0.1,0.2,0.2,0.4,0.4,0.6
			L58.5,72.7z"/>
		<path class="st1" d="M66.3,71.2c-0.3,0.3-0.7,0.6-1.1,0.7c-0.4,0.1-0.9,0.2-1.3,0.1c-0.4,0-0.9-0.2-1.3-0.4
			c-0.4-0.2-0.8-0.5-1.2-0.9c-0.4-0.4-0.7-0.8-0.9-1.2c-0.2-0.4-0.3-0.9-0.4-1.3c0-0.4,0-0.8,0.1-1.2c0.1-0.4,0.4-0.7,0.7-1.1
			c0.4-0.3,0.8-0.6,1.2-0.7c0.5-0.1,0.9-0.1,1.4,0.1l-2.9-2.9l1.2-1.2l5.6,5.7c0.1,0.1,0.3,0.2,0.4,0.2c0.1,0,0.2,0,0.3-0.1l1.1,1.1
			c-0.2,0.3-0.3,0.5-0.5,0.6c-0.2,0.2-0.5,0.3-0.7,0.4s-0.5-0.1-0.7-0.2L67,68.6c0.1,0.5,0.1,1,0,1.5C66.9,70.5,66.6,70.9,66.3,71.2
			z M65.5,69.8c0.1-0.1,0.2-0.3,0.3-0.4c0.1-0.2,0.1-0.3,0.2-0.5c0-0.2,0-0.4,0-0.6c0-0.2-0.1-0.4-0.2-0.5l-1.2-1.2
			c-0.2-0.1-0.4-0.2-0.6-0.2c-0.2,0-0.4,0-0.6,0c-0.2,0-0.4,0.1-0.6,0.1c-0.2,0.1-0.3,0.2-0.5,0.3c-0.2,0.2-0.3,0.4-0.4,0.6
			c-0.1,0.2-0.1,0.5-0.1,0.7c0,0.3,0.1,0.5,0.2,0.8c0.1,0.3,0.3,0.5,0.5,0.7c0.2,0.2,0.4,0.4,0.7,0.5c0.2,0.1,0.5,0.2,0.8,0.2
			c0.3,0,0.5,0,0.7-0.1C65.1,70.1,65.3,70,65.5,69.8z"/>
		<path class="st1" d="M73.7,64c-0.4,0.4-0.8,0.6-1.3,0.7c-0.5,0.1-0.9,0.1-1.4-0.1l0.9,0.9l-1.1,1.1l-7.1-7.2l1.2-1.2l2.9,2.9
			c-0.1-0.5-0.2-0.9,0-1.4c0.1-0.4,0.4-0.9,0.7-1.2c0.3-0.3,0.7-0.5,1.1-0.6c0.4-0.1,0.8-0.1,1.2-0.1c0.4,0.1,0.9,0.2,1.3,0.4
			c0.4,0.2,0.8,0.5,1.2,0.9c0.4,0.4,0.7,0.8,0.9,1.2c0.2,0.4,0.3,0.9,0.4,1.3c0,0.4,0,0.9-0.2,1.3C74.3,63.3,74.1,63.7,73.7,64z
			 M72.3,63.2c0.2-0.2,0.3-0.4,0.4-0.7c0.1-0.2,0.1-0.5,0.1-0.7c0-0.3-0.1-0.5-0.2-0.7c-0.1-0.2-0.3-0.5-0.5-0.7s-0.4-0.4-0.7-0.5
			c-0.3-0.1-0.5-0.2-0.8-0.2c-0.3,0-0.5,0-0.7,0c-0.2,0.1-0.5,0.2-0.6,0.4c-0.3,0.3-0.4,0.6-0.5,1c0,0.4,0,0.8,0.2,1.2l1.2,1.2
			c0.2,0.1,0.4,0.1,0.5,0.2c0.2,0,0.4,0,0.6,0c0.2,0,0.4-0.1,0.5-0.2C72,63.4,72.2,63.3,72.3,63.2z"/>
		<path class="st1" d="M78.9,59c-0.2,0.2-0.5,0.4-0.8,0.5c-0.3,0.1-0.6,0.2-0.9,0.2s-0.6-0.1-0.9-0.2c-0.3-0.1-0.5-0.3-0.8-0.5
			c-0.2-0.2-0.4-0.5-0.5-0.8C75,57.8,75,57.5,75,57.2c0-0.3,0.1-0.6,0.3-1c0.2-0.3,0.4-0.6,0.7-0.9c0.2-0.2,0.4-0.4,0.7-0.6
			c0.2-0.2,0.5-0.3,0.7-0.4l-0.3-0.3c-0.3-0.3-0.7-0.5-1.1-0.5c-0.4,0-0.7,0.2-1.1,0.5c-0.3,0.3-0.5,0.5-0.6,0.9
			c-0.2,0.3-0.3,0.7-0.3,1.2l-1.2-0.5c0.2-1,0.6-1.9,1.4-2.6c0.7-0.7,1.4-1,2.2-1c0.7,0,1.5,0.3,2.1,1l1.6,1.6
			c0.1,0.1,0.3,0.2,0.4,0.2c0.1,0,0.2,0,0.3-0.1l1.1,1.1c-0.2,0.2-0.3,0.5-0.5,0.6c-0.2,0.2-0.5,0.3-0.7,0.4s-0.5-0.1-0.7-0.2
			l-0.3-0.3c0.1,0.5,0,1-0.1,1.5C79.5,58.2,79.2,58.6,78.9,59z M78.3,57.7c0.2-0.2,0.4-0.4,0.5-0.7c0.1-0.3,0.2-0.5,0.1-0.7
			c0-0.2,0-0.4-0.2-0.6l-0.6-0.6c-0.2,0.1-0.4,0.2-0.6,0.3c-0.2,0.1-0.4,0.3-0.6,0.4c-0.3,0.3-0.5,0.6-0.6,1c-0.1,0.4,0,0.6,0.3,0.9
			c0.2,0.2,0.5,0.3,0.8,0.3C77.8,58,78.1,57.9,78.3,57.7z"/>
		<path class="st1" d="M80.6,52c-0.4-0.4-0.6-0.8-0.8-1.2c-0.2-0.4-0.3-0.9-0.3-1.3c0-0.5,0.1-0.9,0.2-1.4c0.2-0.5,0.5-0.9,0.9-1.3
			c0.5-0.5,1.1-0.8,1.7-1c0.6-0.1,1.2-0.1,1.8,0.1l-0.8,1.6c-0.3-0.1-0.6-0.1-0.9,0c-0.3,0.1-0.5,0.2-0.7,0.4
			c-0.2,0.2-0.3,0.4-0.4,0.6c-0.1,0.2-0.1,0.5-0.1,0.7c0,0.2,0.1,0.5,0.2,0.7c0.1,0.3,0.3,0.5,0.5,0.7c0.2,0.2,0.5,0.4,0.7,0.5
			c0.3,0.1,0.5,0.2,0.8,0.2c0.3,0,0.5,0,0.7-0.1c0.2-0.1,0.4-0.2,0.6-0.4c0.2-0.2,0.4-0.5,0.4-0.8c0.1-0.3,0.1-0.6,0-0.8l1.6-0.8
			c0.2,0.6,0.3,1.1,0.1,1.8s-0.5,1.2-1,1.7c-0.4,0.4-0.8,0.7-1.3,0.8c-0.5,0.2-0.9,0.2-1.4,0.2c-0.5,0-0.9-0.1-1.4-0.4
			C81.4,52.7,81,52.4,80.6,52z"/>
		<path class="st1" d="M92.8,45.3l-3.6-0.9l0,1.3l1.5,1.5l-1.2,1.2l-7.1-7.2l1.2-1.2l4.3,4.4l-0.3-4.2l1.3-1.3l0.4,3.9l4.9,1.1
			L92.8,45.3z"/>
	</g>
</g>
</svg>
