<?xml version="1.0" encoding="utf-8"?>
<!-- Generator: Adobe Illustrator 20.1.0, SVG Export Plug-In . SVG Version: 6.00 Build 0)  -->
<svg version="1.1" id="Layer_1" xmlns="http://www.w3.org/2000/svg" xmlns:xlink="http://www.w3.org/1999/xlink" x="0px" y="0px"
	 viewBox="0 0 111 108" style="enable-background:new 0 0 111 108;" xml:space="preserve">
<style type="text/css">
	.st0{fill:url(#SVGID_1_);}
	.st1{fill:#FFFFFF;}
</style>
<linearGradient id="SVGID_1_" gradientUnits="userSpaceOnUse" x1="66.2871" y1="1.5156" x2="57.6204" y2="89.5156">
	<stop  offset="0" style="stop-color:#E10019"/>
	<stop  offset="1" style="stop-color:#6D0007"/>
</linearGradient>
<polygon class="st0" points="0.6,108 111,108 111,-0.4 "/>
<g>
	<path class="st1" d="M46.2,93l-6.8-7l4.7-4.5l1.1,1.2l-3.3,3.2l1.7,1.8l2.8-2.7l1,1.1l-2.7,2.7l2.8,2.9L46.2,93z"/>
	<path class="st1" d="M54.5,85.3c-0.4,0.4-0.9,0.7-1.3,0.9c-0.5,0.2-0.9,0.3-1.4,0.3s-0.9-0.1-1.3-0.3c-0.5-0.2-0.9-0.5-1.1-0.9
		c-0.4-0.4-0.7-0.8-0.9-1.2s-0.3-0.9-0.3-1.4s0.1-0.9,0.3-1.4s0.5-0.9,0.9-1.3c0.4-0.4,0.9-0.7,1.3-0.9c0.5-0.2,0.9-0.3,1.4-0.3
		s0.9,0.1,1.3,0.4c0.5,0.2,0.9,0.5,1.1,0.9c0.1,0.1,0.2,0.2,0.2,0.3c0.1,0.1,0.1,0.2,0.2,0.2l-4,3.9c0.2,0.2,0.5,0.3,0.7,0.4
		c0.2,0.1,0.5,0.1,0.7,0.1s0.5-0.1,0.7-0.2s0.4-0.2,0.6-0.4c0.3-0.3,0.5-0.6,0.6-0.9c0.1-0.4,0.1-0.7,0-0.9l1.4-0.8
		c0.2,0.6,0.2,1.2,0,1.9C55.4,84.1,55,84.7,54.5,85.3z M52.7,80.9c-0.4-0.4-0.9-0.6-1.3-0.5c-0.5,0-0.9,0.2-1.2,0.6
		c-0.2,0.2-0.3,0.4-0.4,0.6c-0.1,0.2-0.2,0.5-0.2,0.7c0,0.2,0,0.5,0.1,0.7c0.1,0.2,0.2,0.5,0.4,0.7L52.7,80.9z"/>
	<path class="st1" d="M60.9,79.1c-0.4,0.4-0.9,0.7-1.3,0.9s-0.9,0.3-1.4,0.3s-0.9-0.1-1.3-0.3c-0.5-0.2-0.9-0.5-1.1-0.9
		c-0.4-0.4-0.7-0.8-0.9-1.2s-0.3-0.9-0.3-1.4s0.1-0.9,0.3-1.4s0.5-0.9,0.9-1.3c0.4-0.4,0.9-0.7,1.3-0.9c0.5-0.2,0.9-0.3,1.4-0.3
		s0.9,0.1,1.3,0.4c0.5,0.2,0.9,0.5,1.1,0.9c0.1,0.1,0.2,0.2,0.2,0.3c0.1,0.1,0.1,0.2,0.2,0.2l-4,3.9c0.2,0.2,0.5,0.3,0.7,0.4
		c0.2,0.1,0.5,0.1,0.7,0.1s0.5-0.1,0.7-0.2c0.2-0.1,0.4-0.2,0.6-0.4c0.3-0.3,0.5-0.6,0.6-0.9c0.1-0.4,0.1-0.7,0-0.9l1.4-0.8
		c0.2,0.6,0.2,1.2,0,1.9C61.8,78,61.5,78.5,60.9,79.1z M59.2,74.7c-0.4-0.4-0.9-0.6-1.3-0.5c-0.5,0-0.9,0.2-1.2,0.6
		c-0.2,0.2-0.3,0.4-0.4,0.6c-0.1,0.2-0.2,0.5-0.2,0.7c0,0.2,0,0.5,0.1,0.7c0.1,0.2,0.2,0.5,0.4,0.7L59.2,74.7z"/>
	<path class="st1" d="M67.1,73.1c-0.4,0.4-0.8,0.6-1.2,0.8c-0.5,0.2-0.9,0.2-1.3,0.2s-0.9-0.2-1.3-0.4c-0.5-0.2-0.9-0.5-1.2-0.9
		c-0.4-0.4-0.7-0.8-0.9-1.2s-0.3-0.9-0.4-1.3c0-0.5,0-0.9,0.2-1.3c0.2-0.4,0.4-0.8,0.8-1.1c0.4-0.4,0.9-0.6,1.3-0.8
		c0.5-0.1,0.9-0.1,1.4,0l-2.8-2.9l1.3-1.3l5.5,5.7c0.1,0.1,0.3,0.2,0.4,0.2s0.2,0,0.4-0.1l1,1.1c-0.2,0.3-0.4,0.5-0.5,0.6
		c-0.3,0.2-0.5,0.4-0.8,0.4c-0.3,0-0.5,0-0.7-0.2l-0.4-0.3c0.1,0.5,0.1,1-0.1,1.5C67.6,72.4,67.3,72.9,67.1,73.1z M66.3,71.7
		c0.1-0.1,0.2-0.3,0.3-0.5c0.1-0.2,0.2-0.4,0.2-0.6c0-0.2,0.1-0.4,0-0.6c0-0.2-0.1-0.4-0.1-0.6l-1.2-1.2c-0.2-0.1-0.4-0.2-0.6-0.2
		c-0.2,0-0.4,0-0.7,0c-0.2,0-0.4,0.1-0.6,0.2c-0.2,0.1-0.4,0.2-0.5,0.3c-0.2,0.2-0.4,0.4-0.4,0.7c-0.1,0.3-0.1,0.5-0.1,0.8
		s0.1,0.5,0.2,0.8c0.1,0.3,0.3,0.5,0.5,0.7c0.2,0.2,0.5,0.4,0.7,0.5c0.3,0.1,0.5,0.2,0.8,0.2c0.3,0,0.5,0,0.8-0.1
		C65.8,72,66.1,71.9,66.3,71.7z"/>
	<path class="st1" d="M74.7,65.8c-0.4,0.4-0.9,0.7-1.3,0.8s-0.9,0.1-1.4,0l0.9,0.9l-1.1,1.1l-7-7.3L66,60l2.8,2.9
		c-0.1-0.5-0.1-0.9,0-1.4s0.4-0.9,0.8-1.3c0.4-0.3,0.8-0.6,1.1-0.7c0.5-0.1,0.9-0.1,1.3-0.1c0.5,0.1,0.9,0.2,1.3,0.4
		s0.9,0.5,1.1,0.9c0.4,0.4,0.7,0.8,0.9,1.2c0.2,0.5,0.3,0.9,0.3,1.3s-0.1,0.9-0.2,1.3C75.3,65,75,65.4,74.7,65.8z M73.2,65
		c0.2-0.2,0.4-0.5,0.5-0.7s0.2-0.5,0.1-0.8c0-0.3-0.1-0.5-0.2-0.8s-0.3-0.5-0.5-0.7s-0.5-0.4-0.7-0.5c-0.3-0.1-0.5-0.2-0.8-0.2
		s-0.5,0-0.8,0.1c-0.3,0.1-0.5,0.2-0.7,0.4c-0.3,0.3-0.5,0.7-0.5,1c0,0.4,0,0.9,0.2,1.2l1.2,1.2c0.2,0.1,0.4,0.1,0.6,0.2
		c0.2,0,0.4,0,0.6,0c0.2,0,0.4-0.1,0.6-0.2C72.9,65.2,73.1,65.1,73.2,65z"/>
	<path class="st1" d="M79.9,60.7c-0.3,0.3-0.6,0.5-0.9,0.6c-0.3,0.1-0.6,0.2-0.9,0.2c-0.3,0-0.6-0.1-0.9-0.2
		c-0.3-0.1-0.6-0.3-0.8-0.6s-0.4-0.6-0.5-0.9c-0.1-0.3-0.1-0.7-0.1-0.9c0.1-0.4,0.2-0.7,0.4-1c0.2-0.4,0.5-0.7,0.8-0.9
		c0.2-0.2,0.5-0.4,0.8-0.6c0.3-0.2,0.5-0.3,0.8-0.4l-0.3-0.3c-0.3-0.4-0.7-0.5-1-0.5s-0.8,0.2-1.1,0.6c-0.3,0.3-0.5,0.6-0.7,0.9
		c-0.2,0.4-0.3,0.8-0.4,1.2L74,57.5c0.3-1,0.8-2,1.5-2.7c0.8-0.8,1.5-1.1,2.3-1.1c0.8,0,1.5,0.3,2.2,0.9l1.5,1.6
		c0.1,0.1,0.3,0.2,0.4,0.2s0.2,0,0.4-0.1l1,1.1c-0.2,0.3-0.4,0.5-0.5,0.7c-0.3,0.3-0.5,0.4-0.8,0.4c-0.3,0-0.5-0.1-0.7-0.2L81.1,58
		c0.1,0.6,0,1-0.2,1.5C80.6,59.9,80.3,60.4,79.9,60.7z M79.4,59.4c0.2-0.2,0.4-0.5,0.6-0.8c0.1-0.3,0.2-0.6,0.2-0.8
		c0-0.3,0-0.5-0.2-0.6l-0.6-0.6c-0.2,0.1-0.5,0.2-0.7,0.4c-0.2,0.2-0.4,0.3-0.6,0.5c-0.4,0.3-0.6,0.7-0.6,1c-0.1,0.4,0,0.7,0.3,0.9
		c0.2,0.2,0.5,0.3,0.8,0.3C78.8,59.8,79.1,59.6,79.4,59.4z"/>
	<path class="st1" d="M81.7,53.7c-0.4-0.4-0.7-0.8-0.8-1.2c-0.2-0.5-0.3-0.9-0.3-1.4s0.1-0.9,0.3-1.4c0.2-0.5,0.5-0.9,0.9-1.3
		c0.6-0.6,1.1-0.9,1.8-1c0.7-0.1,1.2-0.1,1.8,0.1L84.6,49c-0.3-0.1-0.6-0.1-0.9,0c-0.3,0.1-0.6,0.2-0.8,0.5
		c-0.2,0.2-0.4,0.4-0.4,0.7c-0.1,0.2-0.1,0.5-0.1,0.8s0.1,0.5,0.2,0.8s0.3,0.5,0.5,0.8c0.2,0.2,0.5,0.4,0.8,0.6
		c0.3,0.1,0.5,0.2,0.8,0.2s0.5,0,0.8-0.1c0.3-0.1,0.5-0.2,0.7-0.4c0.3-0.2,0.4-0.5,0.5-0.9c0.1-0.3,0.1-0.6,0-0.9l1.7-0.9
		c0.2,0.6,0.2,1.1,0.1,1.8c-0.2,0.7-0.6,1.2-1.1,1.8c-0.4,0.4-0.9,0.7-1.3,0.9c-0.5,0.2-0.9,0.3-1.4,0.3s-0.9-0.1-1.4-0.3
		C82.5,54.4,82.1,54.1,81.7,53.7z"/>
	<path class="st1" d="M94.2,46.7l-3.7-0.8v1.4l1.5,1.5l-1.3,1.3l-7-7.2l1.3-1.3l4.3,4.4L89,41.7l1.4-1.3l0.2,4.1l4.9,0.9L94.2,46.7z
		"/>
</g>
</svg>
