<?xml version="1.0" encoding="utf-8"?>
<!-- Generator: Adobe Illustrator 20.1.0, SVG Export Plug-In . SVG Version: 6.00 Build 0)  -->
<svg version="1.1" id="Layer_1" xmlns="http://www.w3.org/2000/svg" xmlns:xlink="http://www.w3.org/1999/xlink" x="0px" y="0px"
	 viewBox="0 0 110 71" style="enable-background:new 0 0 110 71;" xml:space="preserve">
<style type="text/css">
	.st0{fill:#FFFFFF;}
</style>
<g>
	<path class="st0" d="M55.1,42.5c-6.9,0-13.1,0-19.7,0c0-4.2,0-7.9,0-11.8c10.9,0,21.6,0,32.4,0C72,42.4,64.3,59.9,52,66.4
		c-15.7,8.3-35.2,3.7-45.5-10.7C-3.8,41.3-1.7,22,11.4,9.7c13-12.2,32.3-12.5,46.9-0.5c-1.7,1.9-3.5,3.7-5.1,5.7
		c-2.1,2.7-4.1,3.1-7.4,1.4c-13.2-6.6-26.9-1.1-31.1,12c-3,9.2-0.1,18.8,7.4,24.7c7.2,5.6,16.9,6.1,24.8,1.2
		C50.9,51.7,53.7,48.3,55.1,42.5z"/>
	<path class="st0" d="M90.1,40.7c-3.3-0.2-6.2-0.4-9.5-0.5c0-3.2,0-6.2,0-9.5c3.2-0.2,6.2-0.3,9.5-0.5c0.2-3.2,0.4-6.1,0.6-9.3
		c3.1,0,6.1,0,9.7,0c0,3,0,6,0,9.4c3.5,0,6.3,0,9.7,0c0,3.4,0,6.4,0,9.9c-2.8,0.2-5.8,0.3-9.2,0.5c-0.2,3.2-0.4,6.2-0.6,9.6
		c-3.2,0-6.2,0-9.5,0C90.5,47.1,90.3,44.2,90.1,40.7z"/>
</g>
</svg>
