<?xml version="1.0" encoding="utf-8"?>
<!-- Generator: Adobe Illustrator 20.1.0, SVG Export Plug-In . SVG Version: 6.00 Build 0)  -->
<svg version="1.1" id="Layer_1" xmlns="http://www.w3.org/2000/svg" xmlns:xlink="http://www.w3.org/1999/xlink" x="0px" y="0px"
	 viewBox="0 0 309 328" style="enable-background:new 0 0 309 328;" xml:space="preserve">
<style type="text/css">
	.st0{fill:#FFFFFF;}
	.st1{fill:#646464;}
</style>
<g>
	<ellipse class="st0" cx="69.9" cy="196.6" rx="57.7" ry="36.8"/>
	<ellipse class="st0" cx="69.9" cy="196.6" rx="57.7" ry="36.8"/>
	<path class="st1" d="M139.5,162.6c-0.7-13.1-8.1-25.2-21.1-34.3c-13-9.1-30.2-14.1-48.5-14.1s-35.4,5-48.5,14.1
		c-13.1,9.1-20.5,21.3-21.2,34.5c0,0.3-0.1,0.5-0.1,0.8v30.1c0,0.3,0,0.6,0.1,0.9c0.8,13,8.2,25,21.1,34.1
		c13,9.1,30.2,14.1,48.5,14.1c18.2,0,35.4-5,48.5-14.1c13-9.1,20.4-21.2,21.1-34.3c0-0.3,0.1-0.6,0.1-0.9v-30.1
		C139.6,163.2,139.5,162.9,139.5,162.6z M69.9,230.8c-31.4,0-57-16.8-57.7-37.7c2.7,2.8,5.7,5.5,9.2,7.9c13,9.1,30.2,14.1,48.5,14.1
		c18.2,0,35.4-5,48.5-14.1c3.5-2.4,6.5-5.1,9.2-7.9C126.9,214,101.3,230.8,69.9,230.8z M16.1,178.5c8.4-14.4,29.3-24.6,53.8-24.6
		c24.5,0,45.4,10.2,53.8,24.6c-8.4,14.4-29.3,24.6-53.8,24.6C45.4,203.1,24.4,192.9,16.1,178.5z M118.3,156
		c-13-9.1-30.2-14.1-48.5-14.1s-35.4,5-48.5,14.1c-3.5,2.4-6.5,5.1-9.2,7.9c0.6-20.9,26.2-37.7,57.7-37.7c31.4,0,57,16.8,57.7,37.7
		C124.9,161.1,121.8,158.4,118.3,156z"/>
	<ellipse class="st0" cx="69.9" cy="165.1" rx="57.7" ry="36.8"/>
	<path class="st1" d="M68.1,150c-1.3-2.1-0.5-4.4,0.9-5.7c0.6-0.6,2.4-1.9,4.5-0.3c0.6,0.4,1.7,1.7,1.4,2.8
		c-0.1,0.5-0.3,5.3-0.3,5.3l5.9,7.9l2-10c0.1-0.4,0.2-0.8,0.3-1.3c0.9-3.8,0.5-6.8-1.3-9c-1-1.2-2-2-2.9-2.7
		c-4.5-3.3-10.7-2.8-15.1,1.3c-4.5,4.2-5.4,10.7-2.2,15.9l0.1,0.2l18.3,25l-28.2-6.2l13.3-8.5l-4.4-6.9l-30,19l2.2,0.5
		c0.6,0.1,64.3,13.8,64.3,13.8L68.1,150z"/>
	<ellipse class="st0" cx="69.9" cy="168.5" rx="57.7" ry="36.8"/>
	<ellipse class="st0" cx="69.9" cy="168.5" rx="57.7" ry="36.8"/>
	<path class="st1" d="M139.5,134.5c-0.7-13.1-8.1-25.2-21.1-34.3c-13-9.1-30.2-14.1-48.5-14.1s-35.4,5-48.5,14.1
		c-13.1,9.1-20.5,21.3-21.2,34.5c0,0.3-0.1,0.5-0.1,0.8v30.1c0,0.3,0,0.6,0.1,0.9c0.8,13,8.2,25,21.1,34.1
		c13,9.1,30.2,14.1,48.5,14.1c18.2,0,35.4-5,48.5-14.1c13-9.1,20.4-21.2,21.1-34.3c0-0.3,0.1-0.6,0.1-0.9v-30.1
		C139.6,135,139.5,134.7,139.5,134.5z M69.9,202.7c-31.4,0-57-16.8-57.7-37.7c2.7,2.8,5.7,5.5,9.2,7.9c13,9.1,30.2,14.1,48.5,14.1
		c18.2,0,35.4-5,48.5-14.1c3.5-2.4,6.5-5.1,9.2-7.9C126.9,185.9,101.3,202.7,69.9,202.7z M16.1,150.4c8.4-14.4,29.3-24.6,53.8-24.6
		c24.5,0,45.4,10.2,53.8,24.6c-8.4,14.4-29.3,24.6-53.8,24.6C45.4,175,24.4,164.8,16.1,150.4z M118.3,127.9
		c-13-9.1-30.2-14.1-48.5-14.1s-35.4,5-48.5,14.1c-3.5,2.4-6.5,5.1-9.2,7.9c0.6-20.9,26.2-37.7,57.7-37.7c31.4,0,57,16.8,57.7,37.7
		C124.9,132.9,121.8,130.3,118.3,127.9z"/>
	<ellipse class="st0" cx="69.9" cy="137" rx="57.7" ry="36.8"/>
	<ellipse class="st0" cx="128" cy="101.7" rx="57.7" ry="36.8"/>
	<ellipse class="st0" cx="123.7" cy="110.7" rx="57.7" ry="36.8"/>
	<path class="st1" d="M193.3,76.6c-0.7-13.1-8.1-25.2-21.1-34.3c-13-9.1-30.2-14.1-48.5-14.1s-35.4,5-48.5,14.1
		C62.1,51.5,54.7,63.7,54,76.9c0,0.3-0.1,0.5-0.1,0.8v30.1c0,0.3,0,0.6,0.1,0.9c0.8,13,8.2,25,21.1,34.1c13,9.1,30.2,14.1,48.5,14.1
		c18.2,0,35.4-5,48.5-14.1c13-9.1,20.4-21.2,21.1-34.3c0-0.3,0.1-0.6,0.1-0.9V77.5C193.3,77.2,193.3,76.9,193.3,76.6z M123.7,144.9
		c-31.4,0-57-16.8-57.7-37.7c2.7,2.8,5.7,5.5,9.2,7.9c13,9.1,30.2,14.1,48.5,14.1c18.2,0,35.4-5,48.5-14.1c3.5-2.4,6.5-5.1,9.2-7.9
		C180.7,128,155.1,144.9,123.7,144.9z M69.9,92.6C78.2,78.2,99.2,68,123.7,68c24.5,0,45.4,10.2,53.8,24.6
		c-8.4,14.4-29.3,24.6-53.8,24.6C99.2,117.2,78.2,106.9,69.9,92.6z M172.1,70.1C159.1,61,141.9,56,123.7,56s-35.4,5-48.5,14.1
		c-3.5,2.4-6.5,5.1-9.2,7.9c0.6-20.9,26.2-37.7,57.7-37.7c31.4,0,57,16.8,57.7,37.7C178.7,75.1,175.6,72.5,172.1,70.1z"/>
	<ellipse class="st0" cx="123.7" cy="79.1" rx="57.7" ry="36.8"/>
	<path class="st1" d="M126.2,55.1c-1.3-2.1-0.5-4.4,0.9-5.7c0.6-0.6,2.4-1.9,4.5-0.3c0.6,0.4,1.7,1.7,1.4,2.8
		c-0.1,0.5-0.3,5.3-0.3,5.3l5.9,7.9l2-10c0.1-0.4,0.2-0.8,0.3-1.3c0.9-3.8,0.5-6.8-1.3-9c-1-1.2-2-2-2.9-2.7
		c-4.5-3.3-10.7-2.8-15.1,1.3c-4.5,4.2-5.4,10.7-2.2,15.9l0.1,0.2l18.3,25l-28.2-6.2l13.3-8.5l-4.4-6.9l-30,19l2.2,0.5
		c0.6,0.1,64.3,13.8,64.3,13.8L126.2,55.1z"/>
	<ellipse class="st0" cx="123.7" cy="82.5" rx="57.7" ry="36.8"/>
	<ellipse class="st0" cx="123.7" cy="82.5" rx="57.7" ry="36.8"/>
	<path class="st1" d="M193.3,48.5c-0.7-13.1-8.1-25.2-21.1-34.3c-13-9.1-30.2-14.1-48.5-14.1s-35.4,5-48.5,14.1
		C62.1,23.3,54.7,35.5,54,48.7c0,0.3-0.1,0.5-0.1,0.8v30.1c0,0.3,0,0.6,0.1,0.9c0.8,13,8.2,25,21.1,34.1c13,9.1,30.2,14.1,48.5,14.1
		c18.2,0,35.4-5,48.5-14.1c13-9.1,20.4-21.2,21.1-34.3c0-0.3,0.1-0.6,0.1-0.9V49.4C193.3,49.1,193.3,48.8,193.3,48.5z M123.7,116.8
		c-31.4,0-57-16.8-57.7-37.7c2.7,2.8,5.7,5.5,9.2,7.9c13,9.1,30.2,14.1,48.5,14.1c18.2,0,35.4-5,48.5-14.1c3.5-2.4,6.5-5.1,9.2-7.9
		C180.7,99.9,155.1,116.8,123.7,116.8z M69.9,64.4c8.4-14.4,29.3-24.6,53.8-24.6c24.5,0,45.4,10.2,53.8,24.6
		C169.1,78.8,148.1,89,123.7,89C99.2,89,78.2,78.8,69.9,64.4z M172.1,41.9c-13-9.1-30.2-14.1-48.5-14.1s-35.4,5-48.5,14.1
		c-3.5,2.4-6.5,5.1-9.2,7.9c0.6-20.9,26.2-37.7,57.7-37.7c31.4,0,57,16.8,57.7,37.7C178.7,47,175.6,44.4,172.1,41.9z"/>
	<ellipse class="st0" cx="123.7" cy="51" rx="57.7" ry="36.8"/>
	<g>
		<ellipse class="st0" cx="222" cy="173.6" rx="57.7" ry="36.8"/>
		<ellipse class="st0" cx="222" cy="173.6" rx="57.7" ry="36.8"/>
		<path class="st1" d="M291.6,139.6c-0.7-13.1-8.1-25.2-21.1-34.3c-13-9.1-30.2-14.1-48.5-14.1s-35.4,5-48.5,14.1
			c-13.1,9.1-20.5,21.3-21.2,34.5c0,0.3-0.1,0.5-0.1,0.8v30.1c0,0.3,0,0.6,0.1,0.9c0.8,13,8.2,25,21.1,34.1
			c13,9.1,30.2,14.1,48.5,14.1c18.2,0,35.4-5,48.5-14.1c13-9.1,20.4-21.2,21.1-34.3c0-0.3,0.1-0.6,0.1-0.9v-30.1
			C291.7,140.2,291.7,139.9,291.6,139.6z M222,207.9c-31.4,0-57-16.8-57.7-37.7c2.7,2.8,5.7,5.5,9.2,7.9c13,9.1,30.2,14.1,48.5,14.1
			c18.2,0,35.4-5,48.5-14.1c3.5-2.4,6.5-5.1,9.2-7.9C279.1,191,253.5,207.9,222,207.9z M168.2,155.5c8.4-14.4,29.3-24.6,53.8-24.6
			c24.5,0,45.4,10.2,53.8,24.6c-8.4,14.4-29.3,24.6-53.8,24.6C197.6,180.1,176.6,169.9,168.2,155.5z M270.5,133
			c-13-9.1-30.2-14.1-48.5-14.1s-35.4,5-48.5,14.1c-3.5,2.4-6.5,5.1-9.2,7.9c0.6-20.9,26.2-37.7,57.7-37.7c31.4,0,57,16.8,57.7,37.7
			C277,138.1,274,135.5,270.5,133z"/>
		<ellipse class="st0" cx="222" cy="142.1" rx="57.7" ry="36.8"/>
		<path class="st1" d="M220.3,127c-1.3-2.1-0.5-4.4,0.9-5.7c0.6-0.6,2.4-1.9,4.5-0.3c0.6,0.4,1.7,1.7,1.4,2.8
			c-0.1,0.5-0.3,5.3-0.3,5.3l5.9,7.9l2-10c0.1-0.4,0.2-0.8,0.3-1.3c0.9-3.8,0.5-6.8-1.3-9c-1-1.2-2-2-2.9-2.7
			c-4.5-3.3-10.7-2.8-15.1,1.3c-4.5,4.2-5.4,10.7-2.2,15.9l0.1,0.2l18.3,25l-28.2-6.2l13.3-8.5l-4.4-6.9l-30,19l2.2,0.5
			c0.6,0.1,64.3,13.8,64.3,13.8L220.3,127z"/>
	</g>
	<g>
		<ellipse class="st0" cx="222" cy="145.5" rx="57.7" ry="36.8"/>
		<ellipse class="st0" cx="222" cy="145.5" rx="57.7" ry="36.8"/>
		<path class="st1" d="M291.6,111.5c-0.7-13.1-8.1-25.2-21.1-34.3c-13-9.1-30.2-14.1-48.5-14.1s-35.4,5-48.5,14.1
			c-13.1,9.1-20.5,21.3-21.2,34.5c0,0.3-0.1,0.5-0.1,0.8v30.1c0,0.3,0,0.6,0.1,0.9c0.8,13,8.2,25,21.1,34.1
			c13,9.1,30.2,14.1,48.5,14.1c18.2,0,35.4-5,48.5-14.1c13-9.1,20.4-21.2,21.1-34.3c0-0.3,0.1-0.6,0.1-0.9v-30.1
			C291.7,112,291.7,111.8,291.6,111.5z M222,179.7c-31.4,0-57-16.8-57.7-37.7c2.7,2.8,5.7,5.5,9.2,7.9c13,9.1,30.2,14.1,48.5,14.1
			c18.2,0,35.4-5,48.5-14.1c3.5-2.4,6.5-5.1,9.2-7.9C279.1,162.9,253.5,179.7,222,179.7z M168.2,127.4c8.4-14.4,29.3-24.6,53.8-24.6
			c24.5,0,45.4,10.2,53.8,24.6c-8.4,14.4-29.3,24.6-53.8,24.6C197.6,152,176.6,141.8,168.2,127.4z M270.5,104.9
			c-13-9.1-30.2-14.1-48.5-14.1s-35.4,5-48.5,14.1c-3.5,2.4-6.5,5.1-9.2,7.9c0.6-20.9,26.2-37.7,57.7-37.7c31.4,0,57,16.8,57.7,37.7
			C277,110,274,107.3,270.5,104.9z"/>
		<ellipse class="st0" cx="222" cy="114" rx="57.7" ry="36.8"/>
		<path class="st1" d="M220.3,98.9c-1.3-2.1-0.5-4.4,0.9-5.7c0.6-0.6,2.4-1.9,4.5-0.3c0.6,0.4,1.7,1.7,1.4,2.8
			c-0.1,0.5-0.3,5.3-0.3,5.3l5.9,7.9l2-10c0.1-0.4,0.2-0.8,0.3-1.3c0.9-3.8,0.5-6.8-1.3-9c-1-1.2-2-2-2.9-2.7
			c-4.5-3.3-10.7-2.8-15.1,1.3c-4.5,4.2-5.4,10.7-2.2,15.9l0.1,0.2l18.3,25l-28.2-6.2l13.3-8.5l-4.4-6.9l-30,19l2.2,0.5
			c0.6,0.1,64.3,13.8,64.3,13.8L220.3,98.9z"/>
	</g>
	<ellipse class="st0" cx="222" cy="116.5" rx="57.7" ry="36.8"/>
	<ellipse class="st0" cx="222" cy="116.5" rx="57.7" ry="36.8"/>
	<path class="st1" d="M291.6,82.5c-0.7-13.1-8.1-25.2-21.1-34.3c-13-9.1-30.2-14.1-48.5-14.1s-35.4,5-48.5,14.1
		c-13.1,9.1-20.5,21.3-21.2,34.5c0,0.3-0.1,0.5-0.1,0.8v30.1c0,0.3,0,0.6,0.1,0.9c0.8,13,8.2,25,21.1,34.1
		c13,9.1,30.2,14.1,48.5,14.1c18.2,0,35.4-5,48.5-14.1c13-9.1,20.4-21.2,21.1-34.3c0-0.3,0.1-0.6,0.1-0.9V83.3
		C291.7,83,291.7,82.8,291.6,82.5z M222,150.7c-31.4,0-57-16.8-57.7-37.7c2.7,2.8,5.7,5.5,9.2,7.9c13,9.1,30.2,14.1,48.5,14.1
		c18.2,0,35.4-5,48.5-14.1c3.5-2.4,6.5-5.1,9.2-7.9C279.1,133.9,253.5,150.7,222,150.7z M168.2,98.4c8.4-14.4,29.3-24.6,53.8-24.6
		c24.5,0,45.4,10.2,53.8,24.6c-8.4,14.4-29.3,24.6-53.8,24.6C197.6,123,176.6,112.8,168.2,98.4z M270.5,75.9
		c-13-9.1-30.2-14.1-48.5-14.1s-35.4,5-48.5,14.1c-3.5,2.4-6.5,5.1-9.2,7.9c0.6-20.9,26.2-37.7,57.7-37.7c31.4,0,57,16.8,57.7,37.7
		C277,81,274,78.3,270.5,75.9z"/>
	<ellipse class="st0" cx="222" cy="84.5" rx="57.7" ry="38.5"/>
	<g>
		<ellipse class="st0" cx="155.5" cy="214" rx="57.7" ry="36.8"/>
		<ellipse class="st0" cx="155.5" cy="214" rx="57.7" ry="36.8"/>
		<path class="st1" d="M225.2,180c-0.7-13.1-8.1-25.2-21.1-34.3c-13-9.1-30.2-14.1-48.5-14.1s-35.4,5-48.5,14.1
			C94,154.8,86.6,167,85.9,180.2c0,0.3-0.1,0.5-0.1,0.8v30.1c0,0.3,0,0.6,0.1,0.9c0.8,13,8.2,25,21.1,34.1
			c13,9.1,30.2,14.1,48.5,14.1c18.2,0,35.4-5,48.5-14.1c13-9.1,20.4-21.2,21.1-34.3c0-0.3,0.1-0.6,0.1-0.9v-30.1
			C225.2,180.6,225.2,180.3,225.2,180z M155.5,248.2c-31.4,0-57-16.8-57.7-37.7c2.7,2.8,5.7,5.5,9.2,7.9c13,9.1,30.2,14.1,48.5,14.1
			c18.2,0,35.4-5,48.5-14.1c3.5-2.4,6.5-5.1,9.2-7.9C212.6,231.4,187,248.2,155.5,248.2z M101.8,195.9c8.4-14.4,29.3-24.6,53.8-24.6
			c24.5,0,45.4,10.2,53.8,24.6c-8.4,14.4-29.3,24.6-53.8,24.6C131.1,220.5,110.1,210.3,101.8,195.9z M204,173.4
			c-13-9.1-30.2-14.1-48.5-14.1s-35.4,5-48.5,14.1c-3.5,2.4-6.5,5.1-9.2,7.9c0.6-20.9,26.2-37.7,57.7-37.7c31.4,0,57,16.8,57.7,37.7
			C210.5,178.5,207.5,175.8,204,173.4z"/>
		<ellipse class="st0" cx="155.5" cy="182.5" rx="57.7" ry="36.8"/>
		<path class="st1" d="M153.8,167.4c-1.3-2.1-0.5-4.4,0.9-5.7c0.6-0.6,2.4-1.9,4.5-0.3c0.6,0.4,1.7,1.7,1.4,2.8
			c-0.1,0.5-0.3,5.3-0.3,5.3l5.9,7.9l2-10c0.1-0.4,0.2-0.8,0.3-1.3c0.9-3.8,0.5-6.8-1.3-9c-1-1.2-2-2-2.9-2.7
			c-4.5-3.3-10.7-2.8-15.1,1.3c-4.5,4.2-5.4,10.7-2.2,15.9l0.1,0.2l18.3,25l-28.2-6.2l13.3-8.5l-4.4-6.9l-30,19l2.2,0.5
			c0.6,0.1,64.3,13.8,64.3,13.8L153.8,167.4z"/>
	</g>
	<g>
		<ellipse class="st0" cx="155.5" cy="185.9" rx="57.7" ry="36.8"/>
		<ellipse class="st0" cx="155.5" cy="185.9" rx="57.7" ry="36.8"/>
		<path class="st1" d="M225.2,151.9c-0.7-13.1-8.1-25.2-21.1-34.3c-13-9.1-30.2-14.1-48.5-14.1s-35.4,5-48.5,14.1
			c-13.1,9.1-20.5,21.3-21.2,34.5c0,0.3-0.1,0.5-0.1,0.8V183c0,0.3,0,0.6,0.1,0.9c0.8,13,8.2,25,21.1,34.1
			c13,9.1,30.2,14.1,48.5,14.1c18.2,0,35.4-5,48.5-14.1c13-9.1,20.4-21.2,21.1-34.3c0-0.3,0.1-0.6,0.1-0.9v-30.1
			C225.2,152.4,225.2,152.1,225.2,151.9z M155.5,220.1c-31.4,0-57-16.8-57.7-37.7c2.7,2.8,5.7,5.5,9.2,7.9
			c13,9.1,30.2,14.1,48.5,14.1c18.2,0,35.4-5,48.5-14.1c3.5-2.4,6.5-5.1,9.2-7.9C212.6,203.3,187,220.1,155.5,220.1z M101.8,167.8
			c8.4-14.4,29.3-24.6,53.8-24.6c24.5,0,45.4,10.2,53.8,24.6c-8.4,14.4-29.3,24.6-53.8,24.6C131.1,192.4,110.1,182.2,101.8,167.8z
			 M204,145.3c-13-9.1-30.2-14.1-48.5-14.1s-35.4,5-48.5,14.1c-3.5,2.4-6.5,5.1-9.2,7.9c0.6-20.9,26.2-37.7,57.7-37.7
			c31.4,0,57,16.8,57.7,37.7C210.5,150.4,207.5,147.7,204,145.3z"/>
		<ellipse class="st0" cx="155.5" cy="154.4" rx="57.7" ry="36.8"/>
		<path class="st1" d="M153.8,139.3c-1.3-2.1-0.5-4.4,0.9-5.7c0.6-0.6,2.4-1.9,4.5-0.3c0.6,0.4,1.7,1.7,1.4,2.8
			c-0.1,0.5-0.3,5.3-0.3,5.3l5.9,7.9l2-10c0.1-0.4,0.2-0.8,0.3-1.3c0.9-3.8,0.5-6.8-1.3-9c-1-1.2-2-2-2.9-2.7
			c-4.5-3.3-10.7-2.8-15.1,1.3c-4.5,4.2-5.4,10.7-2.2,15.9l0.1,0.2l18.3,25l-28.2-6.2l13.3-8.5l-4.4-6.9l-30,19l2.2,0.5
			c0.6,0.1,64.3,13.8,64.3,13.8L153.8,139.3z"/>
	</g>
	<ellipse class="st0" cx="155.5" cy="156.9" rx="57.7" ry="36.8"/>
	<ellipse class="st0" cx="155.5" cy="156.9" rx="57.7" ry="36.8"/>
	<path class="st1" d="M225.2,122.9c-0.7-13.1-8.1-25.2-21.1-34.3c-13-9.1-30.2-14.1-48.5-14.1s-35.4,5-48.5,14.1
		c-13.1,9.1-20.5,21.3-21.2,34.5c0,0.3-0.1,0.5-0.1,0.8V154c0,0.3,0,0.6,0.1,0.9c0.8,13,8.2,25,21.1,34.1
		c13,9.1,30.2,14.1,48.5,14.1c18.2,0,35.4-5,48.5-14.1c13-9.1,20.4-21.2,21.1-34.3c0-0.3,0.1-0.6,0.1-0.9v-30.1
		C225.2,123.4,225.2,123.1,225.2,122.9z M155.5,191.1c-31.4,0-57-16.8-57.7-37.7c2.7,2.8,5.7,5.5,9.2,7.9
		c13,9.1,30.2,14.1,48.5,14.1c18.2,0,35.4-5,48.5-14.1c3.5-2.4,6.5-5.1,9.2-7.9C212.6,174.3,187,191.1,155.5,191.1z M101.8,138.8
		c8.4-14.4,29.3-24.6,53.8-24.6c24.5,0,45.4,10.2,53.8,24.6c-8.4,14.4-29.3,24.6-53.8,24.6C131.1,163.4,110.1,153.2,101.8,138.8z
		 M204,116.3c-13-9.1-30.2-14.1-48.5-14.1s-35.4,5-48.5,14.1c-3.5,2.4-6.5,5.1-9.2,7.9c0.6-20.9,26.2-37.7,57.7-37.7
		c31.4,0,57,16.8,57.7,37.7C210.5,121.3,207.5,118.7,204,116.3z"/>
	<ellipse class="st0" cx="155.5" cy="124.9" rx="57.7" ry="38.5"/>
	<path class="st1" d="M153.8,110.3c-1.3-2.1-0.5-4.4,0.9-5.7c0.6-0.6,2.4-1.9,4.5-0.3c0.6,0.4,1.7,1.7,1.4,2.8
		c-0.1,0.5-0.3,5.3-0.3,5.3l5.9,7.9l2-10c0.1-0.4,0.2-0.8,0.3-1.3c0.9-3.8,0.5-6.8-1.3-9c-1-1.2-2-2-2.9-2.7
		c-4.5-3.3-10.7-2.8-15.1,1.3c-4.5,4.2-5.4,10.7-2.2,15.9l0.1,0.2l18.3,25l-28.2-6.2l13.3-8.5l-4.4-6.9l-30,19l2.2,0.5
		c0.6,0.1,64.3,13.8,64.3,13.8L153.8,110.3z"/>
	<ellipse class="st0" cx="155.5" cy="127.3" rx="57.7" ry="36.8"/>
	<path class="st1" d="M225.2,93.2C224.5,80.1,217,68,204,58.9c-13-9.1-30.2-14.1-48.5-14.1s-35.4,5-48.5,14.1
		C94,68.1,86.6,80.3,85.9,93.5c0,0.3-0.1,0.5-0.1,0.8v30.1c0,0.3,0,0.6,0.1,0.9c0.8,13,8.2,25,21.1,34.1c13,9.1,30.2,14.1,48.5,14.1
		c18.2,0,35.4-5,48.5-14.1c13-9.1,20.4-21.2,21.1-34.3c0-0.3,0.1-0.6,0.1-0.9V94.1C225.2,93.8,225.2,93.5,225.2,93.2z M155.5,161.5
		c-31.4,0-57-16.8-57.7-37.7c2.7,2.8,5.7,5.5,9.2,7.9c13,9.1,30.2,14.1,48.5,14.1c18.2,0,35.4-5,48.5-14.1c3.5-2.4,6.5-5.1,9.2-7.9
		C212.6,144.7,187,161.5,155.5,161.5z M101.8,109.2c8.4-14.4,29.3-24.6,53.8-24.6c24.5,0,45.4,10.2,53.8,24.6
		c-8.4,14.4-29.3,24.6-53.8,24.6C131.1,133.8,110.1,123.5,101.8,109.2z M204,86.7c-13-9.1-30.2-14.1-48.5-14.1s-35.4,5-48.5,14.1
		c-3.5,2.4-6.5,5.1-9.2,7.9c0.6-20.9,26.2-37.7,57.7-37.7c31.4,0,57,16.8,57.7,37.7C210.5,91.7,207.5,89.1,204,86.7z"/>
	<ellipse class="st0" cx="155.5" cy="95.3" rx="57.7" ry="38.5"/>
	<path class="st1" d="M153.8,80.7c-1.3-2.1-0.5-4.4,0.9-5.7c0.6-0.6,2.4-1.9,4.5-0.3c0.6,0.4,1.7,1.7,1.4,2.8
		c-0.1,0.5-0.3,5.3-0.3,5.3l5.9,7.9l2-10c0.1-0.4,0.2-0.8,0.3-1.3c0.9-3.8,0.5-6.8-1.3-9c-1-1.2-2-2-2.9-2.7
		c-4.5-3.3-10.7-2.8-15.1,1.3c-4.5,4.2-5.4,10.7-2.2,15.9l0.1,0.2l18.3,25l-28.2-6.2l13.3-8.5l-4.4-6.9l-30,19l2.2,0.5
		c0.6,0.1,64.3,13.8,64.3,13.8L153.8,80.7z"/>
	<ellipse class="st0" cx="239.1" cy="244.2" rx="57.7" ry="36.8"/>
	<ellipse class="st0" cx="239.1" cy="244.2" rx="57.7" ry="36.8"/>
	<path class="st1" d="M308.7,210.1c-0.7-13.1-8.1-25.2-21.1-34.3c-13-9.1-30.2-14.1-48.5-14.1s-35.4,5-48.5,14.1
		c-13.1,9.1-20.5,21.3-21.2,34.5c0,0.3-0.1,0.5-0.1,0.8v30.1c0,0.3,0,0.6,0.1,0.9c0.8,13,8.2,25,21.1,34.1
		c13,9.1,30.2,14.1,48.5,14.1c18.2,0,35.4-5,48.5-14.1c13-9.1,20.4-21.2,21.1-34.3c0-0.3,0.1-0.6,0.1-0.9V211
		C308.8,210.7,308.8,210.4,308.7,210.1z M239.1,278.4c-31.4,0-57-16.8-57.7-37.7c2.7,2.8,5.7,5.5,9.2,7.9
		c13,9.1,30.2,14.1,48.5,14.1c18.2,0,35.4-5,48.5-14.1c3.5-2.4,6.5-5.1,9.2-7.9C296.2,261.5,270.6,278.4,239.1,278.4z M185.3,226.1
		c8.4-14.4,29.3-24.6,53.8-24.6c24.5,0,45.4,10.2,53.8,24.6c-8.4,14.4-29.3,24.6-53.8,24.6C214.7,250.7,193.7,240.4,185.3,226.1z
		 M287.6,203.6c-13-9.1-30.2-14.1-48.5-14.1s-35.4,5-48.5,14.1c-3.5,2.4-6.5,5.1-9.2,7.9c0.6-20.9,26.2-37.7,57.7-37.7
		c31.4,0,57,16.8,57.7,37.7C294.1,208.6,291.1,206,287.6,203.6z"/>
	<ellipse class="st0" cx="239.1" cy="212.6" rx="57.7" ry="36.8"/>
	<path class="st1" d="M237.4,197.5c-1.3-2.1-0.5-4.4,0.9-5.7c0.6-0.6,2.4-1.9,4.5-0.3c0.6,0.4,1.7,1.7,1.4,2.8
		c-0.1,0.5-0.3,5.3-0.3,5.3l5.9,7.9l2-10c0.1-0.4,0.2-0.8,0.3-1.3c0.9-3.8,0.5-6.8-1.3-9c-1-1.2-2-2-2.9-2.7
		c-4.5-3.3-10.7-2.8-15.1,1.3c-4.5,4.2-5.4,10.7-2.2,15.9l0.1,0.2l18.3,25l-28.2-6.2l13.3-8.5l-4.4-6.9l-30,19l2.2,0.5
		c0.6,0.1,64.3,13.8,64.3,13.8L237.4,197.5z"/>
	<ellipse class="st0" cx="239.1" cy="216" rx="57.7" ry="36.8"/>
	<ellipse class="st0" cx="239.1" cy="216" rx="57.7" ry="36.8"/>
	<path class="st1" d="M308.7,182c-0.7-13.1-8.1-25.2-21.1-34.3c-13-9.1-30.2-14.1-48.5-14.1s-35.4,5-48.5,14.1
		c-13.1,9.1-20.5,21.3-21.2,34.5c0,0.3-0.1,0.5-0.1,0.8v30.1c0,0.3,0,0.6,0.1,0.9c0.8,13,8.2,25,21.1,34.1
		c13,9.1,30.2,14.1,48.5,14.1c18.2,0,35.4-5,48.5-14.1c13-9.1,20.4-21.2,21.1-34.3c0-0.3,0.1-0.6,0.1-0.9v-30.1
		C308.8,182.6,308.8,182.3,308.7,182z M239.1,250.3c-31.4,0-57-16.8-57.7-37.7c2.7,2.8,5.7,5.5,9.2,7.9c13,9.1,30.2,14.1,48.5,14.1
		c18.2,0,35.4-5,48.5-14.1c3.5-2.4,6.5-5.1,9.2-7.9C296.2,233.4,270.6,250.3,239.1,250.3z M185.3,197.9
		c8.4-14.4,29.3-24.6,53.8-24.6c24.5,0,45.4,10.2,53.8,24.6c-8.4,14.4-29.3,24.6-53.8,24.6C214.7,222.5,193.7,212.3,185.3,197.9z
		 M287.6,175.4c-13-9.1-30.2-14.1-48.5-14.1s-35.4,5-48.5,14.1c-3.5,2.4-6.5,5.1-9.2,7.9c0.6-20.9,26.2-37.7,57.7-37.7
		c31.4,0,57,16.8,57.7,37.7C294.1,180.5,291.1,177.9,287.6,175.4z"/>
	<ellipse class="st0" cx="239.1" cy="184.8" rx="57.7" ry="39.2"/>
	<ellipse class="st0" cx="114.1" cy="274.5" rx="66.7" ry="42.6"/>
	<ellipse class="st0" cx="114.1" cy="274.5" rx="66.7" ry="42.6"/>
	<path class="st1" d="M194.6,235.1c-0.8-15.2-9.4-29.2-24.4-39.7c-15.1-10.5-35-16.3-56-16.3s-41,5.8-56,16.3
		c-15.1,10.6-23.7,24.7-24.5,39.9c0,0.3-0.1,0.6-0.1,0.9v34.8c0,0.4,0,0.7,0.1,1.1c0.9,15.1,9.5,29,24.4,39.4
		c15.1,10.5,35,16.3,56,16.3c21.1,0,41-5.8,56-16.3c15-10.5,23.6-24.5,24.4-39.7c0-0.3,0.1-0.7,0.1-1v-34.8
		C194.6,235.8,194.6,235.4,194.6,235.1z M114.1,314c-36.3,0-66-19.5-66.7-43.6c3.1,3.3,6.6,6.3,10.6,9.1c15.1,10.5,35,16.3,56,16.3
		c21.1,0,41-5.8,56-16.3c4-2.8,7.6-5.8,10.6-9.1C180,294.6,150.4,314,114.1,314z M51.9,253.5c9.7-16.6,33.9-28.4,62.2-28.4
		c28.3,0,52.5,11.8,62.2,28.4c-9.7,16.6-33.9,28.4-62.2,28.4C85.8,282,61.6,270.2,51.9,253.5z M170.1,227.5
		c-15.1-10.5-35-16.3-56-16.3s-41,5.8-56,16.3c-4,2.8-7.6,5.8-10.6,9.1c0.7-24.1,30.3-43.6,66.7-43.6c36.3,0,66,19.5,66.7,43.6
		C177.7,233.4,174.1,230.3,170.1,227.5z"/>
	<ellipse class="st0" cx="114.1" cy="237.5" rx="66.7" ry="44.5"/>
</g>
</svg>
