<?xml version="1.0" encoding="utf-8"?>
<!-- Generator: Adobe Illustrator 20.1.0, SVG Export Plug-In . SVG Version: 6.00 Build 0)  -->
<svg version="1.1" id="Layer_1" xmlns="http://www.w3.org/2000/svg" xmlns:xlink="http://www.w3.org/1999/xlink" x="0px" y="0px"
	 viewBox="0 0 56.7 56.7" style="enable-background:new 0 0 56.7 56.7;" xml:space="preserve">
<style type="text/css">
	.st0{fill:url(#SVGID_1_);}
	.st1{fill:url(#SVGID_2_);}
	.st2{fill:url(#SVGID_3_);}
</style>
<g>
	<radialGradient id="SVGID_1_" cx="23.375" cy="55.995" r="52.6176" gradientUnits="userSpaceOnUse">
		<stop  offset="0" style="stop-color:#FCC685"/>
		<stop  offset="0.178" style="stop-color:#FBAD50"/>
		<stop  offset="0.3715" style="stop-color:#CD486B"/>
		<stop  offset="0.5514" style="stop-color:#BC2A8D"/>
		<stop  offset="0.6092" style="stop-color:#B52C93"/>
		<stop  offset="0.8185" style="stop-color:#8A3AB9"/>
		<stop  offset="1" style="stop-color:#4C68D7"/>
	</radialGradient>
	<circle class="st0" cx="28.1" cy="28.6" r="4.4"/>
	<radialGradient id="SVGID_2_" cx="23.375" cy="55.995" r="52.6225" gradientUnits="userSpaceOnUse">
		<stop  offset="0" style="stop-color:#FCC685"/>
		<stop  offset="0.178" style="stop-color:#FBAD50"/>
		<stop  offset="0.3715" style="stop-color:#CD486B"/>
		<stop  offset="0.5514" style="stop-color:#BC2A8D"/>
		<stop  offset="0.6092" style="stop-color:#B52C93"/>
		<stop  offset="0.8185" style="stop-color:#8A3AB9"/>
		<stop  offset="1" style="stop-color:#4C68D7"/>
	</radialGradient>
	<path class="st1" d="M33.6,17.8h-11c-1.6,0-3,0.5-3.9,1.4s-1.4,2.3-1.4,3.9v11c0,1.6,0.5,3,1.5,4c1,0.9,2.3,1.4,3.9,1.4h10.9
		c1.6,0,3-0.5,3.9-1.4c1-0.9,1.5-2.3,1.5-3.9v-11c0-1.6-0.5-2.9-1.4-3.9C36.6,18.2,35.3,17.8,33.6,17.8z M28.1,35.3
		c-3.8,0-6.8-3.1-6.8-6.8c0-3.8,3.1-6.8,6.8-6.8s6.9,3,6.9,6.8S31.9,35.3,28.1,35.3z M35.2,23c-0.9,0-1.6-0.7-1.6-1.6
		s0.7-1.6,1.6-1.6s1.6,0.7,1.6,1.6S36.1,23,35.2,23z"/>
	<radialGradient id="SVGID_3_" cx="20.6667" cy="48.7033" r="44.4153" gradientUnits="userSpaceOnUse">
		<stop  offset="0" style="stop-color:#FCC685"/>
		<stop  offset="0.178" style="stop-color:#FBAD50"/>
		<stop  offset="0.3715" style="stop-color:#CD486B"/>
		<stop  offset="0.5514" style="stop-color:#BC2A8D"/>
		<stop  offset="0.6092" style="stop-color:#B52C93"/>
		<stop  offset="0.8185" style="stop-color:#8A3AB9"/>
		<stop  offset="1" style="stop-color:#4C68D7"/>
	</radialGradient>
	<path class="st2" d="M28.3,3.7c-13.6,0-24.6,11-24.6,24.6S14.7,53,28.3,53s24.6-11,24.6-24.6C53,14.8,41.9,3.7,28.3,3.7z
		 M41.4,34.1c0,2.3-0.8,4.3-2.2,5.7s-3.4,2.1-5.6,2.1H22.7c-2.2,0-4.2-0.7-5.6-2.1c-1.5-1.4-2.2-3.4-2.2-5.7v-11
		c0-4.6,3.1-7.8,7.8-7.8h11c2.3,0,4.2,0.8,5.6,2.2c1.4,1.4,2.1,3.3,2.1,5.6C41.4,23.1,41.4,34.1,41.4,34.1z"/>
</g>
</svg>
