<?xml version="1.0" encoding="utf-8"?>
<!-- Generator: Adobe Illustrator 20.1.0, SVG Export Plug-In . SVG Version: 6.00 Build 0)  -->
<svg version="1.1" id="Layer_1" xmlns="http://www.w3.org/2000/svg" xmlns:xlink="http://www.w3.org/1999/xlink" x="0px" y="0px"
	 viewBox="0 0 272.6 200" style="enable-background:new 0 0 272.6 200;" xml:space="preserve">
<style type="text/css">
	.st0{fill:#BEBEBE;}
	.st1{fill:#C1C1C1;}
	.st2{fill:#898989;}
	.st3{fill:#F9F7F7;}
	.st4{fill:#FFFFFF;}
</style>
<g>
	<path class="st0" d="M173.3,49.1l0.3,41l0,0l-0.3-42.9c0,0.6,0,1.2,0,1.8V49.1z"/>
	<path class="st0" d="M147.4,42.1c0,1.2-0.1,2.5,0,3.9c0-1.2,0.1-2.3,0.1-3.4C147.4,42.5,147.4,42.3,147.4,42.1z"/>
	<path class="st0" d="M137,27.1c-12.8-5.6-20.4,3.7-22.5,6.6c-2.7,4-4.4,9.1-4.2,14.4c0.2-4.6,1.8-8.9,4.2-12.4
		c2-2.9,9.7-12.3,22.5-6.6c3,1.3,10.2,6.1,10.4,13.1c0-0.5,0-1,0-1.4C147.5,33.4,140,28.4,137,27.1z"/>
	<polygon class="st0" points="65.2,172.1 118.1,119.5 117.1,118.5 63.2,172.1 	"/>
	<path class="st0" d="M173.3,43.3c0-0.8,0-1.8,0-2.7c0,0.3,0,0.5,0,0.8C173.3,42.1,173.3,42.7,173.3,43.3z"/>
	<path class="st1" d="M269.7,198c0.3,0,0.6,0,0.8,0l-33.7-29.3l-39.1-34l-81.2-70.6c-4.7-4.8-6.5-10.6-6.2-16
		c-0.2-5.3,1.4-10.4,4.2-14.4c2-2.9,9.7-12.3,22.5-6.6c3.1,1.4,10.6,6.3,10.4,13.6c0,0.5,0,0.9,0,1.4c0,0.2,0,0.3,0,0.5
		c0,1,0,2.2-0.1,3.4c0,0.6,0,1.1,0.1,1.7l0.3,20.1l25.9,22.3l-0.3-41v-0.2c0-0.6,0-1.2,0-1.8V47c0-1.2,0-2.4,0-3.7c0-0.6,0-1.3,0-2
		c0-0.2,0-0.5,0-0.8c-0.1-8.8-1.8-21.5-11.8-29.3c-4.3-3.4-8.7-5.6-13.5-7.7c-19.9-8.7-42.6-0.9-55,17.2c-5.7,8.3-8.6,17.6-8.8,26.9
		c0.2,12,5,23.7,14,32.9l0.3,0.5l103.4,91h-2.2l2.2,2H63.2l2-2h-2l53.9-53.6l-17.3-17.6L2.1,198C25,198,241.8,198.3,269.7,198z"/>
	<path class="st2" d="M147.9,5.6c4.8,2,9.2,4.3,13.5,7.7c10,7.8,11.7,20.5,11.8,29.3c0.1-8.8-1-22.8-11.8-31.3
		c-4.3-3.4-8.7-5.6-13.5-7.7c-19.9-8.7-42.6-0.9-55,17.2c-6.1,8.9-9,18.9-8.8,28.8c0.2-9.3,3.1-18.6,8.8-26.9
		C105.3,4.7,128-3.1,147.9,5.6z"/>
	<polygon class="st2" points="201.9,176 199.7,174 65,174 63.1,176 	"/>
	<path class="st2" d="M116.4,66.1l81.2,70.6l39.1,34l33.7,29.3c0.7,0,1.3,0,1.9,0c0.2,0,0.3,0,0.3,0l-36-31.3l-39.1-34l-81.2-70.6
		c-4.2-4.3-6-9.2-6.2-14.1C109.9,55.5,111.7,61.2,116.4,66.1z"/>
	<path class="st2" d="M117,120.5l1-1l-18.2-18.6L0,199.9c0,0,0.7,0,2,0l97.7-97.1L117,120.5z"/>
	<path class="st3" d="M98.5,80.9l-0.3-0.5c-9-9.1-13.8-20.9-14-32.9c-0.3,12.6,4.5,25.2,14,34.8l0.3,0.5l101.2,89h2.2L98.5,80.9z"/>
	<path class="st4" d="M269.6,197.8c-27.9,0.3-244.7,0-267.6,0l-2,1.9c0,0,240.1,0.3,269.6,0c1,0,1.9,0,2.7,0c0.2,0,0.3,0,0.3,0
		l-2.2-2C270.1,197.8,269.9,197.8,269.6,197.8z"/>
	<path class="st3" d="M147.4,47.7c0-0.6-0.1-1.1-0.1-1.7c0,1.2,0,2.4,0.1,3.6l0.3,20.1l25.9,22.3l0-2l-25.9-22.3L147.4,47.7z"/>
</g>
</svg>
