<?xml version="1.0" encoding="utf-8"?>
<!-- Generator: Adobe Illustrator 20.1.0, SVG Export Plug-In . SVG Version: 6.00 Build 0)  -->
<svg version="1.1" id="Layer_1" xmlns="http://www.w3.org/2000/svg" xmlns:xlink="http://www.w3.org/1999/xlink" x="0px" y="0px"
	 viewBox="0 0 140 202" style="enable-background:new 0 0 140 202;" xml:space="preserve">
<style type="text/css">
	.st0{fill:#646464;}
</style>
<g>
	<path class="st0" d="M70,201.5c-38.4,0-69.7-31.3-69.7-69.7S31.6,62.2,70,62.2s69.7,31.3,69.7,69.7S108.4,201.5,70,201.5z M70,74.2
		c-31.8,0-57.7,25.9-57.7,57.7s25.9,57.7,57.7,57.7s57.7-25.9,57.7-57.7S101.8,74.2,70,74.2z"/>
	<path class="st0" d="M64.9,136.8c0.8,0.4,1.1,0.9,1.1,1.8c-0.1,4.1-0.1,8.3-0.1,12.4c0,0.9,0.3,1.2,1.1,1.1c1.5-0.1,3,0,4.4,0
		c1.4,0,2.8,0,4.3,0c1.3,0,1.3,0,1.3-1.3c0-4.1,0-8.2,0-12.3c0-0.9,0.3-1.3,1-1.8c4.2-2.3,6.6-5.9,7-10.7
		c0.9-9.2-7.6-16.5-16.6-14.4c-5.3,1.3-9.5,5.8-10.3,10.9C57.1,129.1,60.4,134.4,64.9,136.8z"/>
	<g>
		<path class="st0" d="M115.6,32.8c-2.3-6.6-6-12.5-10.6-17.3c-3.2-3.4-6.9-6.2-10.9-8.5C83.4,0.8,70.3-1.3,57.6,2.1
			C53.4,3.3,49.4,4.9,45.8,7c-4,2.3-7.6,5.1-10.7,8.5c-3,3.2-5.6,6.8-7.8,10.8c-3.5,6.3-5.3,13.2-5.5,20.4c-0.2,7.3,0,14.6,0,22
			c0,0.3,0,0.7,0,1.1c0.3-0.2,0.4-0.2,0.6-0.3c3.7-2.3,7.4-4.7,11.1-7c0.6-0.4,0.7-0.8,0.7-1.5c0-4.1,0-8.2,0-12.3c0-3,0.3-6,1.1-9
			C37.1,33,40.8,27,45.8,22.4c3.2-2.9,6.8-5.2,10.8-6.9c2.9-1.2,6-2,9.3-2.4c6.1-0.7,12,0.1,17.5,2.3c2.1,0.9,4.1,1.9,6.1,3.3
			c1.7,1.1,3.2,2.4,4.7,3.6c7.2,6.5,11.2,14.8,11.6,25.1c0,0.2,0,0.4,0,0.7l11.9-6.9C117.2,38.4,116.5,35.6,115.6,32.8z"/>
	</g>
</g>
</svg>
