<?xml version="1.0" encoding="utf-8"?>
<!-- Generator: Adobe Illustrator 20.1.0, SVG Export Plug-In . SVG Version: 6.00 Build 0)  -->
<svg version="1.1" id="Layer_1" xmlns="http://www.w3.org/2000/svg" xmlns:xlink="http://www.w3.org/1999/xlink" x="0px" y="0px"
	 viewBox="0 0 146 18" style="enable-background:new 0 0 146 18;" xml:space="preserve">
<style type="text/css">
	.st0{fill:#FFFFFF;}
</style>
<g>
	<polygon class="st0" points="29.7,3.1 28.6,5.1 33.4,5.1 33.4,17.3 35.7,17.3 35.7,5.1 41.4,5.1 40.4,3.1 	"/>
	<polygon class="st0" points="48.3,10.3 44.4,3.1 41.9,3.1 47.2,12.2 47.2,17.3 49.5,17.3 49.5,12.3 54.7,3.1 52.3,3.1 	"/>
	<polygon class="st0" points="58.3,3.1 56.1,3.1 56.1,17.3 65.9,17.3 65.9,15.3 58.3,15.3 	"/>
	<polygon class="st0" points="69.6,10.9 76,10.9 76,9.2 69.6,9.2 69.6,5.1 76.9,5.1 76.9,3.1 67.4,3.1 67.4,17.3 77.1,17.3 
		77.1,15.3 69.6,15.3 	"/>
	<path class="st0" d="M88.6,11.1c-0.4-0.3-0.9-0.5-1.6-0.7c-0.6-0.2-1.3-0.4-2.1-0.5c-0.7-0.2-1.4-0.3-1.9-0.5
		c-0.5-0.1-1-0.3-1.3-0.6c-0.4-0.2-0.6-0.5-0.8-0.8c-0.2-0.3-0.3-0.7-0.3-1.2c0-0.9,0.3-1.7,1-2.2c0.7-0.5,1.7-0.8,3.1-0.8
		c1.6,0,3,0.5,3.9,1.5l0.4-0.6c-0.6-0.5-1.2-0.9-1.9-1.2c-0.7-0.3-1.5-0.4-2.4-0.4c-0.7,0-1.4,0.1-2,0.3c-0.6,0.2-1.1,0.4-1.5,0.8
		c-0.4,0.3-0.8,0.7-1,1.2c-0.2,0.5-0.4,1-0.4,1.6c0,0.6,0.1,1,0.3,1.4c0.2,0.4,0.5,0.7,0.9,0.9c0.4,0.3,0.9,0.5,1.4,0.7
		c0.6,0.2,1.2,0.3,2,0.5c0.7,0.2,1.4,0.3,2,0.5c0.6,0.2,1,0.4,1.4,0.6c0.4,0.2,0.7,0.6,0.9,0.9c0.2,0.3,0.3,0.8,0.3,1.3
		c0,1-0.4,1.7-1.1,2.2c-0.7,0.5-1.7,0.7-3,0.7c-1.1,0-2.1-0.2-3-0.6c-0.8-0.4-1.5-0.8-2.1-1.4l-0.4,0.6c1.5,1.3,3.3,2,5.5,2
		c0.7,0,1.4-0.1,2-0.2c0.6-0.2,1.1-0.4,1.6-0.7c0.4-0.3,0.8-0.7,1-1.1c0.2-0.4,0.4-1,0.4-1.6c0-0.6-0.1-1.1-0.3-1.5
		C89.3,11.8,89,11.4,88.6,11.1z"/>
	<polygon class="st0" points="93.7,10.5 100.8,10.5 100.8,9.8 93.7,9.8 93.7,9.6 93.7,4.1 93.7,4 102,4 102,3.3 92.9,3.3 92.9,17.3 
		102.1,17.3 102.1,16.5 93.7,16.5 	"/>
	<polygon class="st0" points="115.6,16 105.5,3.3 104.9,3.3 104.9,17.3 105.7,17.3 105.7,5 105.7,4.7 115.6,17.3 116.4,17.3 
		116.4,3.3 115.6,3.3 	"/>
	<path class="st0" d="M128.5,11.1c-0.4-0.3-0.9-0.5-1.6-0.7c-0.6-0.2-1.3-0.4-2.1-0.5c-0.7-0.2-1.4-0.3-1.9-0.5
		c-0.5-0.1-1-0.3-1.3-0.6c-0.4-0.2-0.6-0.5-0.8-0.8c-0.2-0.3-0.3-0.7-0.3-1.2c0-0.9,0.3-1.7,1-2.2c0.7-0.5,1.7-0.8,3.1-0.8
		c1.6,0,3,0.5,3.9,1.5l0.4-0.6c-0.6-0.5-1.2-0.9-1.9-1.2c-0.7-0.3-1.5-0.4-2.4-0.4c-0.7,0-1.4,0.1-2,0.3c-0.6,0.2-1.1,0.4-1.5,0.8
		c-0.4,0.3-0.8,0.7-1,1.2c-0.2,0.5-0.4,1-0.4,1.6c0,0.6,0.1,1,0.3,1.4c0.2,0.4,0.5,0.7,0.9,0.9c0.4,0.3,0.9,0.5,1.4,0.7
		c0.6,0.2,1.2,0.3,2,0.5c0.7,0.2,1.4,0.3,2,0.5c0.6,0.2,1,0.4,1.4,0.6c0.4,0.2,0.7,0.6,0.9,0.9c0.2,0.3,0.3,0.8,0.3,1.3
		c0,1-0.4,1.7-1.1,2.2c-0.7,0.5-1.7,0.7-3,0.7c-1.1,0-2.1-0.2-3-0.6c-0.8-0.4-1.5-0.8-2.1-1.4l-0.4,0.6c1.5,1.3,3.3,2,5.5,2
		c0.7,0,1.4-0.1,2-0.2c0.6-0.2,1.1-0.4,1.6-0.7c0.4-0.3,0.8-0.7,1-1.1c0.2-0.4,0.4-1,0.4-1.6c0-0.6-0.1-1.1-0.3-1.5
		C129.3,11.8,128.9,11.4,128.5,11.1z"/>
	<polygon class="st0" points="133.7,16.5 133.7,10.5 140.8,10.5 140.8,9.8 133.5,9.8 133.5,4 141.8,4 141.8,3.3 132.7,3.3 
		132.7,17.3 142,17.3 142.1,17.3 142.1,16.5 142,16.5 	"/>
	<rect x="144.7" y="3.3" class="st0" width="0.8" height="14"/>
	<path class="st0" d="M10.7,5.8C9.9,5,10,4,10.5,3.3c0.2-0.3,0.8-1.1,2-0.6c0.3,0.1,0.9,0.6,0.9,1.2c0,0.2,0,0.4,0,0.6l0,1.8l2.3,2
		l0-3.8l0,0c0-0.2,0-0.3,0-0.5c0-0.8-0.1-2.1-1-2.8c-0.4-0.3-0.8-0.5-1.2-0.7C11.7-0.2,9.7,0.4,8.6,2c-1.2,1.7-1,4,0.5,5.4l0,0
		l9.1,8H6l4.8-4.8L9.2,9.1l-8.8,8.7c0,0,21.1,0,23.7,0c0.1,0,0.2,0,0.2,0c0,0,0,0,0,0L10.7,5.8z"/>
	<path class="st0" d="M27.9,9.8c-0.4-0.4-1-0.7-1.6-0.9c-0.7-0.3-1.4-0.5-2.2-0.7c-0.6-0.2-1.2-0.3-1.7-0.5c-0.5-0.2-1-0.3-1.3-0.5
		c-0.4-0.2-0.7-0.4-0.9-0.7c-0.2-0.3-0.3-0.7-0.3-1.1c0-0.7,0.3-1.3,0.8-1.7c0.5-0.4,1.3-0.6,2.3-0.6c0.5,0,1.1,0.1,1.6,0.2
		c0.5,0.1,1,0.3,1.4,0.5c0.4,0.2,0.8,0.4,1.1,0.6c0.1,0.1,0.2,0.1,0.3,0.2l1.1-2c-0.7-0.4-1.4-0.8-2.3-1.1c-1-0.4-2-0.5-3.2-0.5
		c-0.8,0-1.6,0.1-2.3,0.3c-0.7,0.2-1.3,0.5-1.9,1c-0.5,0.4-0.9,0.9-1.2,1.6c-0.3,0.6-0.4,1.3-0.4,2.2c0,0.6,0.1,1.1,0.3,1.6
		c0.2,0.4,0.5,0.8,0.8,1.1c0.4,0.3,0.8,0.6,1.4,0.9c0.6,0.3,1.3,0.5,2.1,0.7c0.6,0.2,1.3,0.4,1.8,0.5c0.6,0.2,1.1,0.4,1.5,0.6
		c0.4,0.2,0.8,0.5,1,0.8c0.3,0.3,0.4,0.7,0.4,1.2c0,1.3-1,2.1-2.8,2.1l2.2,1.9c0.6-0.2,1.2-0.4,1.7-0.8c0.5-0.4,1-0.9,1.3-1.4
		c0.3-0.6,0.5-1.3,0.5-2.2c0-0.7-0.1-1.3-0.3-1.8C28.6,10.6,28.3,10.2,27.9,9.8z"/>
</g>
</svg>
