<?xml version="1.0" encoding="utf-8"?>
<!-- Generator: Adobe Illustrator 20.1.0, SVG Export Plug-In . SVG Version: 6.00 Build 0)  -->
<svg version="1.1" id="Layer_1" xmlns="http://www.w3.org/2000/svg" xmlns:xlink="http://www.w3.org/1999/xlink" x="0px" y="0px"
	 viewBox="0 0 214 161" style="enable-background:new 0 0 214 161;" xml:space="preserve">
<style type="text/css">
	.st0{fill:#646464;}
	.st1{fill:#FFFFFF;}
</style>
<g>
	<polygon class="st0" points="74.4,44.9 58.2,56.9 106.8,56.9 106.8,54 106.8,44.9 91.3,44.9 	"/>
	<polygon points="106.8,54 106.8,56.9 118.8,56.9 118.8,49.3 118.8,44.9 106.8,44.9 	"/>
	<path class="st0" d="M146.4,44.9h-27.6v4.4v7.6h27.6c3,0,5.8,0.7,8.3,1.9L99.3,99.8c-6.7,4.5-15.5,4.3-21.9-0.7l-52.8-41
		c0.5-0.2,1-0.4,1.5-0.5c1.6-0.5,3.4-0.7,5.1-0.7h3.2h2.3H58h0.2l16.2-12H55.9h-1.7H31.3c-4.3,0-8.4,0.9-12.2,2.5
		c-1.9,0.8-3.6,1.8-5.3,2.9c-3.3,2.2-6.1,5.1-8.3,8.4c0,0.1-0.1,0.1-0.1,0.2c-3.2,4.9-5.1,10.7-5.1,17v27.7v12v13.9
		c0,17.1,13.9,31,31,31h115c17.1,0,31-13.9,31-31V94.2V79v-3.1C177.4,58.8,163.5,44.9,146.4,44.9z M165.4,86.1v12.8v30.6
		c0,10.5-8.5,19-19,19h-115c-10.5,0-19-8.5-19-19v-13.9v-12V80.1v-4.2c0-3.6,1-7,2.8-9.9c0,0,0-0.1,0.1-0.1l54.9,42.6
		c5.5,4.3,12.1,6.5,18.8,6.5c6,0,12.1-1.8,17.3-5.4l57.1-42.3c1.3,2.6,2.1,5.5,2.1,8.5V86.1z"/>
	<path class="st0" d="M156,114.7c-13.3,0-25.5-4.5-36.4-13.5c-0.2-0.1-0.3-0.3-0.5-0.4c-0.5-0.4-1-0.8-1.4-1.3
		c-0.7-0.5-1.2-1.1-1.6-1.5c-0.8-0.7-1.6-1.5-2.2-2.3c-7-7.8-11.5-16.9-13.4-26.9c-3.1-16.5,0.3-31.7,10.1-45.1
		C119,12.3,130.2,4.9,143.9,2c18.5-4,35.3,0.1,49.8,12.4c10,8.4,16.3,19.3,18.8,32.2c3.4,18.2-0.9,34.6-13,48.6
		c-8.5,9.9-19.3,16.2-32.1,18.5C163.5,114.4,159.7,114.7,156,114.7z M127.5,92.1c11.2,9.1,23.6,12.3,37.7,9.7
		c10-1.8,18.5-6.7,25.2-14.5c9.7-11.3,13.1-23.9,10.3-38.6c-1.9-10.1-6.9-18.6-14.7-25.2c-11.7-9.9-24.6-13.1-39.6-9.8
		c-10.7,2.3-19.5,8.1-26.2,17.1c-7.9,10.7-10.5,22.4-8,35.7c1.5,7.9,5.1,15,10.7,21.3l0.4,0.5c0.2,0.2,0.3,0.4,0.6,0.6l0.5,0.4
		l0.4,0.5c0.1,0.1,0.1,0.2,0.2,0.2l1.1,0.6l0.2,0.4l0.8,0.8C127.4,92,127.4,92.1,127.5,92.1z"/>
	<circle class="st1" cx="156.5" cy="57.6" r="45.1"/>
	<g>
		<path class="st0" d="M159.6,25.8h-6.1c-3.8,0-6.8,3.2-6.4,7l2.6,30.1c0.3,3.5,3.3,5.9,6.8,5.9c0,0,0.1,0,0.1,0c0,0,0.1,0,0.1,0
			c3.5,0.1,6.4-2.4,6.8-5.9l2.7-30.1C166.3,29,163.4,25.8,159.6,25.8z"/>
		<path class="st0" d="M156.5,74.6c-3.4,0-6.3,2.1-7.6,5c-0.4,1-0.7,2.1-0.7,3.3c0,4.6,3.7,8.3,8.3,8.3c4.6,0,8.3-3.7,8.3-8.3
			c0-1.2-0.2-2.3-0.7-3.3C162.8,76.6,159.9,74.6,156.5,74.6z"/>
	</g>
</g>
</svg>
