<?xml version="1.0" encoding="utf-8"?>
<!-- Generator: Adobe Illustrator 20.1.0, SVG Export Plug-In . SVG Version: 6.00 Build 0)  -->
<svg version="1.1" id="Layer_1" xmlns="http://www.w3.org/2000/svg" xmlns:xlink="http://www.w3.org/1999/xlink" x="0px" y="0px"
	 viewBox="0 0 278 175" style="enable-background:new 0 0 278 175;" xml:space="preserve">
<style type="text/css">
	.st0{fill:#4C4C4C;}
	.st1{fill:#9A9A9A;}
	.st2{fill:#CCCCCC;}
</style>
<path class="st0" d="M266.7,87.9c-26.6-26.6-53.5-53.4-80.3-80.3c-5.8,5.9-11.8,12.1-17.7,18.2c20.2,20,40.8,40.3,61.2,60.5
	c-21.7,21.6-42.3,42-62.3,61.8c7.5,7.4,13.7,13.6,19.5,19.4C212.8,141.8,239.8,114.9,266.7,87.9z"/>
<path class="st1" d="M188.8,87.9c-26.6-26.6-53.5-53.4-80.3-80.3c-5.8,5.9-11.8,12.1-17.7,18.2c20.2,20,40.8,40.3,61.2,60.5
	c-21.7,21.6-42.3,42-62.3,61.8c7.5,7.4,13.7,13.6,19.5,19.4C135,141.8,161.9,114.9,188.8,87.9z"/>
<path class="st2" d="M112.2,87.9C85.6,61.3,58.8,34.5,31.9,7.7c-5.8,5.9-11.8,12.1-17.7,18.2c20.2,20,40.8,40.3,61.2,60.5
	c-21.7,21.6-42.3,42-62.3,61.8c7.5,7.4,13.7,13.6,19.5,19.4C58.4,141.8,85.3,114.9,112.2,87.9z"/>
</svg>
