<?xml version="1.0" encoding="utf-8"?>
<!-- Generator: Adobe Illustrator 20.1.0, SVG Export Plug-In . SVG Version: 6.00 Build 0)  -->
<svg version="1.1" id="Layer_1" xmlns="http://www.w3.org/2000/svg" xmlns:xlink="http://www.w3.org/1999/xlink" x="0px" y="0px"
	 viewBox="0 0 420 420" style="enable-background:new 0 0 420 420;" xml:space="preserve">
<style type="text/css">
	.st0{fill:none;}
	.st1{fill:#FB324A;}
	.st2{fill:#FFFFFF;}
</style>
<path class="st0" d="M210,60.6c-39.7,0-77,15.5-105.1,43.5c-28.1,28.1-43.5,65.4-43.5,105.1c0,39.7,15.5,77,43.5,105.1
	c28.1,28.1,65.4,43.5,105.1,43.5c39.7,0,77-15.5,105.1-43.5c28.1-28.1,43.5-65.4,43.5-105.1c0-39.7-15.5-77-43.5-105.1
	C287,76.1,249.7,60.6,210,60.6z M330.2,206.6l6.8,6.8c-3.2,0-13,0-16,0c-0.3,0-0.6,0-1,0c-1.1,0-2,0-2.6,0
	c-2.2,56.3-47.7,101.6-104.1,103.4c0,0.5,0,1.1,0,1.8c0,0.3,0,0.6,0,1c0,3,0,12.8,0,16l-6.8-6.8c0-1.8,0-8.8,0-11.9
	c-56.4-1.8-102-47.1-104.1-103.4c-3.5,0-8.9,0-10.5,0l-6.8-6.8c3.2,0,13,0,16,0c0.3,0,0.6,0,1,0c0.1,0,0.2,0,0.3,0
	c1.4-57,47.3-103.1,104.2-104.9c0-3.2,0-10.1,0-11.9l6.8-6.8c0,3.2,0,13,0,16c0,0.3,0,0.6,0,1c0,0.7,0,1.3,0,1.8
	c56.9,1.8,102.8,47.9,104.2,104.9C320.2,206.6,328.3,206.6,330.2,206.6z"/>
<path class="st0" d="M210,107.7c-56,0-101.5,45.5-101.5,101.5S154,310.7,210,310.7s101.5-45.5,101.5-101.5S266,107.7,210,107.7z
	 M271.4,251.9c-0.4,0-0.8,0-1.2,0c-13.5,0.1-123.7,0-123.7,0l45.7-45.5l8.4,8.5L175.4,240h63.7l-47.5-41.7l-0.1-0.3
	c-7.6-7.7-8.6-19.3-2.5-28.3c5.7-8.3,16.1-11.9,25.2-7.9c2.1,0.9,4.2,2,6.1,3.5c5.1,4,5.5,10.7,5.4,14.7c0,0.9,0,1.7,0,2.6l0,0.1
	l0.1,19.7l-11.9-10.3l-0.1-9.2c0-1.2,0-2.2,0-3.2c0.1-3.3-3.3-5.6-4.8-6.3c-5.9-2.6-9.4,1.7-10.3,3.1c-2.4,3.5-3,8.9,0.9,13.1
	l71.7,62.3C271.5,251.9,271.5,251.9,271.4,251.9z"/>
<path class="st1" d="M198.9,176.5c0.9-1.4,4.4-5.6,10.3-3.1c1.4,0.6,4.9,2.9,4.8,6.3c0,1-0.1,2,0,3.2l0.1,9.2l11.9,10.3l-0.1-19.7
	l0-0.1c0-0.8,0-1.7,0-2.6c0.1-4-0.3-10.7-5.4-14.7c-2-1.5-4-2.6-6.1-3.5c-9.2-4-19.5-0.4-25.2,7.9c-6.2,9-5.2,20.7,2.5,28.3l0.1,0.3
	l47.5,41.7h-63.7l25.2-25.1l-8.4-8.5l-45.7,45.5c0,0,110.2,0.1,123.7,0c0.4,0,0.8,0,1.2,0c0.1,0,0.1,0,0.1,0l-71.7-62.3
	C195.9,185.4,196.5,180,198.9,176.5z"/>
<path class="st2" d="M40.8,205c-0.2-1.1-0.7-1.7-2.7-1.7c-0.1,0-0.1,0-0.2,0c-2.7,0.1-11.2,0.1-16.1,0.1c-3.6,0-6.8,0-8.4,0
	L1.6,215.1c1.4,0,3.2,0,5.2,0c4.3,0,9.6,0,14.2,0c4.6,0,7.8,0,9.5,0c0.2,0,0.5,0,0.7,0c0.4,0,0.7,0,1.1,0c0.5,0,1,0,1.4,0
	c1.1,0,2,0,2.8,0c0.6,0,1.1,0,1.6,0c1.2,0,2-0.1,2.3-0.4c0.5-0.5,0.5-1.9,0.5-4.5c0-1.1,0-2.4,0-4C40.9,205.8,40.9,205.4,40.8,205z"
	/>
<path class="st2" d="M406.6,215.1l11.9-11.8c-1.4,0-3.2,0-5.2,0c-4.3,0-9.6,0-14.2,0c-4.6,0-7.8,0-9.5,0c-0.2,0-0.5,0-0.7,0
	c-0.4,0-0.7,0-1.1,0c-0.5,0-1,0-1.4,0c-1.1,0-2,0-2.8,0c-0.6,0-1.1,0-1.6,0c-1.2,0-2,0.1-2.3,0.4c-0.5,0.5-0.5,1.9-0.5,4.5
	c0,1.1,0,2.4,0,4c0,0.4,0,0.8,0.1,1.2c0.2,1.1,0.7,1.7,2.7,1.7c0.1,0,0.1,0,0.2,0c2.7-0.1,11.2-0.1,16.1-0.1
	C401.8,215.1,405,215.1,406.6,215.1z"/>
<path class="st2" d="M204.1,31.7c0,0.4,0,0.7,0,1.1c0,1.7,0,3.1,0,4.2c0,2.2-0.1,3.4,0.4,3.9c0.5,0.5,1.7,0.5,3.6,0.5
	c0.3,0,0.6,0,0.9,0c0.3,0,0.7,0,1.1,0c0.7,0,1.7,0,2.9,0c0.1,0,0.1,0,0.1,0c0.4,0,0.7,0,1.1-0.1c1.1-0.2,1.8-0.8,1.7-2.9
	c-0.1-3.8-0.1-19.8-0.1-24.5L204.1,2.1c0,1.4,0,3.2,0,5.2c0,8.2,0,19.5,0,23.7C204.1,31.2,204.1,31.5,204.1,31.7z"/>
<path class="st2" d="M215.9,389.3c0-0.4,0-0.7,0-1.1c0-1.7,0-3.1,0-4.2c0-2.2,0.1-3.4-0.4-3.9c-0.5-0.5-1.7-0.5-3.6-0.5
	c-0.3,0-0.6,0-0.9,0c-0.3,0-0.7,0-1.1,0c-0.7,0-1.7,0-2.9,0c-0.1,0-0.1,0-0.1,0h0c-0.4,0-0.7,0-1.1,0.1c-1.1,0.2-1.8,0.8-1.7,2.9
	c0.1,3.8,0.1,19.8,0.1,24.5l11.8,11.9c0-1.4,0-3.2,0-5.2c0-8.2,0-19.5,0-23.7C215.9,389.8,215.9,389.5,215.9,389.3z"/>
<path class="st2" d="M206.6,316.8c0,3.2,0,10.1,0,11.9l6.8,6.8c0-3.2,0-13,0-16c0-0.3,0-0.6,0-1c0-0.7,0-1.3,0-1.8
	c-1.1,0-2.3,0.1-3.4,0.1C208.9,316.8,207.7,316.8,206.6,316.8z"/>
<path class="st2" d="M213.4,101.7c0-0.5,0-1.1,0-1.8c0-0.3,0-0.6,0-1c0-3,0-12.8,0-16l-6.8,6.8c0,1.8,0,8.8,0,11.9
	c1.1,0,2.3-0.1,3.4-0.1C211.1,101.6,212.3,101.7,213.4,101.7z"/>
<path class="st2" d="M102.4,206.6c-0.1,0-0.2,0-0.3,0c-0.3,0-0.6,0-1,0c-3,0-12.8,0-16,0l6.8,6.8c1.6,0,7,0,10.5,0
	c-0.1-1.4-0.1-2.8-0.1-4.1C102.4,208.4,102.4,207.5,102.4,206.6z"/>
<path class="st2" d="M317.6,209.2c0,1.4,0,2.8-0.1,4.2c0.7,0,1.5,0,2.6,0c0.3,0,0.6,0,1,0c3,0,12.8,0,16,0l-6.8-6.8
	c-2,0-10,0-12.7,0C317.6,207.5,317.6,208.3,317.6,209.2z"/>
<path class="st2" d="M210,50.4C167.6,50.4,127.7,67,97.7,97c-30,30-46.5,69.9-46.5,112.3s16.5,82.3,46.5,112.3
	c30,30,69.9,46.5,112.3,46.5s82.3-16.5,112.3-46.5c30-30,46.5-69.9,46.5-112.3S352.3,126.9,322.3,97C292.3,67,252.4,50.4,210,50.4z
	 M315.1,314.3c-28.1,28.1-65.4,43.5-105.1,43.5c-39.7,0-77-15.5-105.1-43.5c-28.1-28.1-43.5-65.4-43.5-105.1
	c0-39.7,15.5-77,43.5-105.1C133,76.1,170.3,60.6,210,60.6c39.7,0,77,15.5,105.1,43.5c28.1,28.1,43.5,65.4,43.5,105.1
	C358.6,248.9,343.2,286.2,315.1,314.3z"/>
<path class="st2" d="M315.3,208.4c0-0.3,0-0.5,0.1-0.7c0.2-0.8,0.7-1.1,1.8-1.1c0.1,0,0.2,0,0.4,0c-1.4-57-47.3-103.1-104.2-104.9
	c0.1,3.6,0.3,2.9-5,3c-0.3,0-0.5,0-0.7-0.1c-0.8-0.2-1.1-0.7-1.1-1.8c0-0.3,0-0.7,0-1.1c-56.9,1.8-102.8,47.9-104.2,104.9
	c5.3,0.1,4.4-0.9,4.5,5c0,0.3,0,0.5-0.1,0.7c-0.2,0.8-0.7,1.1-1.8,1.1c-0.5,0-1.5,0-2.6,0c2.1,56.3,47.7,101.6,104.1,103.4
	c0-0.5,0-0.9,0-1.1c0-1.1,0.3-1.6,1.1-1.8c0.2,0,0.4-0.1,0.7-0.1c5.2,0.1,5-0.6,5,3c56.4-1.8,102-47.1,104.1-103.4
	C314.8,213.4,315.4,213.2,315.3,208.4z M210,310.7c-56,0-101.5-45.5-101.5-101.5S154,107.7,210,107.7s101.5,45.5,101.5,101.5
	S266,310.7,210,310.7z"/>
<path class="st2" d="M208.4,313.8c-0.3,0-0.5,0-0.7,0.1c-0.8,0.2-1.1,0.7-1.1,1.8c0,0.3,0,0.7,0,1.1c1.1,0,2.3,0.1,3.4,0.1
	c1.1,0,2.3,0,3.4-0.1C213.5,313.2,213.7,313.9,208.4,313.8z"/>
<path class="st2" d="M207.7,104.6c0.2,0,0.4,0.1,0.7,0.1c5.2-0.1,5,0.6,5-3c-1.1,0-2.3-0.1-3.4-0.1c-1.1,0-2.3,0-3.4,0.1
	c0,0.5,0,0.9,0,1.1C206.6,103.9,206.9,104.5,207.7,104.6z"/>
<path class="st2" d="M106.9,212.3c0-0.2,0.1-0.4,0.1-0.7c-0.1-5.9,0.7-4.9-4.5-5c0,0.9,0,1.7,0,2.6c0,1.4,0,2.8,0.1,4.1
	c1.1,0,2.1,0,2.6,0C106.2,213.4,106.7,213.1,106.9,212.3z"/>
<path class="st2" d="M317.6,206.6c-0.2,0-0.3,0-0.4,0c-1.1,0-1.6,0.3-1.8,1.1c0,0.2-0.1,0.4-0.1,0.7c0.1,4.8-0.5,5,2.2,5
	c0.1-1.4,0.1-2.8,0.1-4.2C317.6,208.3,317.6,207.5,317.6,206.6z"/>
</svg>
