<?xml version="1.0" encoding="utf-8"?>
<!-- Generator: Adobe Illustrator 20.1.0, SVG Export Plug-In . SVG Version: 6.00 Build 0)  -->
<svg version="1.1" id="Layer_1" xmlns="http://www.w3.org/2000/svg" xmlns:xlink="http://www.w3.org/1999/xlink" x="0px" y="0px"
	 viewBox="0 0 194 176" style="enable-background:new 0 0 194 176;" xml:space="preserve">
<style type="text/css">
	.st0{fill:#595959;}
</style>
<g>
	<path class="st0" d="M191.9,71.4L181,41.2l-6.5-17.9l-0.8-2.3C167.9,4.8,150.1-3.5,134,2.3l-108.2,39C12.1,46.2,4,59.8,5.5,73.7
		c-3.3,4.9-5.2,10.8-5.2,17.2v53.6c0,17.1,13.9,31,31,31h115c17.1,0,31-13.9,31-31v-35.3C190.7,102.1,197.2,86.1,191.9,71.4z
		 M29.9,52.6l108.2-39c2.1-0.8,4.3-1.1,6.4-1.1c6.9,0,13.4,3.8,16.8,10.1c0.2,0.4,0.4,0.8,0.6,1.2c-0.2-0.4-0.4-0.8-0.6-1.2
		c-1.9,0.3-3.7,0.8-5.6,1.4l-99.9,36H31.3c-4.3,0-8.4,0.9-12.2,2.5C21.2,58,24.9,54.3,29.9,52.6z M165.3,101.2v12.8v30.6
		c0,10.5-8.5,19-19,19h-115c-10.5,0-19-8.5-19-19V95.1v-4.2c0-5.5,2.4-10.5,6.2-14c3.4-3.1,7.9-5,12.8-5h3.2h23.5h88.4
		c10.5,0,19,8.5,19,19V101.2z M177.3,94.1v-3.1c0-17.1-13.9-31-31-31h-42l57-20.5c2-0.7,4-1.1,5.9-1.1l13.4,37.2
		C183,82,181.5,89,177.3,94.1z"/>
	<path class="st0" d="M30.1,126.2c0.6-2.1,1-4.1,1.5-6.2c0.3-1.3,0.6-2.7,0.9-4c0.5-1.8,2.2-2.8,4.2-2.7c0.8,0.1,1.6,0.1,2.5,0.1
		c2.9-0.1,5.7-0.5,8.5-1.1c3.3-0.7,6.3-1.9,9.1-3.7c6.1-4,8.9-9.5,7.9-16.8c-0.5-3.6-2.4-6.4-5.5-8.3c-3.2-2-6.7-2.6-10.3-2.7
		c-2.8-0.1-5.6,0-8.4,0c0,0,0,0,0,0c-2.6,0-5.2,0-7.7,0c-0.7,0-1.4,0-2.1,0.2c-1.7,0.4-2.9,1.5-3.3,3.2c-0.3,1-0.5,2.1-0.7,3.2
		c-0.5,2-0.9,4-1.4,6c-0.5,2-0.9,4-1.4,6c-0.5,2.3-1.1,4.6-1.6,6.9c-0.5,2.1-0.9,4.1-1.4,6.2c-0.4,1.7-0.8,3.3-1.2,5
		c-0.5,2.4-1.1,4.7-1.6,7.1c-0.2,0.7-0.4,1.4-0.5,2.1c-0.2,1.2,0.7,2.6,2.4,2.6c2.1,0,4.2,0,6.3,0C28,129,29.7,127.8,30.1,126.2z
		 M35.9,100.1c0.6-2.6,1.2-5.3,1.9-7.9c0.4-1.5,1.9-2.8,3.5-2.8c0.6,0,1.1,0,1.9,0c1.5-0.1,3.3,0,5,0.7c1.8,0.7,3,2,3.4,3.8
		c0.5,2.2,0,4.3-1.4,6.1c-1.4,1.8-3.3,2.7-5.3,3.4c-2.5,0.8-5,1-7.5,0.9c-0.8,0-1.4-0.6-1.6-1.5C35.6,101.9,35.7,101,35.9,100.1z"/>
	<path class="st0" d="M71.2,91.6c-0.2-0.2-0.4-0.3-0.6-0.5L70,90.7l-0.3,0.3l-0.3,0.4l0.2,0.6c0.1,0.2,0.2,0.5,0.2,0.7
		c0.2,0.5,0.4,1,0.5,1.6c0.4,1.8,0.5,3.6,0.2,5.4c-0.3,2.8-1.3,5.1-2.8,7.2c-2,2.6-4.7,4.8-8.3,6.4c-2.4,1.1-5,1.7-7.2,2.1
		c-3,0.6-5.5,0.8-7.7,0.8l-0.6,0c-0.6,0-1.3,0-1.9,0c-1.8,0.1-3.3,1.3-3.7,3c-0.2,0.7-0.4,1.5-0.5,2.2l-0.5,2.3
		c-0.2,1-0.4,2-0.7,2.9c-0.1,0.3-0.1,0.5-0.2,0.8c-0.2,0.7-0.3,1.4-0.5,2c-0.5,1.5-1.9,2.5-3.6,2.5c-0.5,0-1.1,0-1.6,0
		c-0.7,0-1.4,0-2,0c0,0-0.9,0-1.2,0.6c-0.4,0.9-0.5,1.8-0.2,2.7c0.4,1.1,1.4,1.8,2.9,1.8c0.8,0,1.5,0,2.2,0c0.9,0,1.8,0,2.6,0
		c0.7,0,1.5,0,2.2-0.2c1.7-0.4,2.9-1.5,3.3-3.1c0.5-1.7,0.9-3.5,1.2-5.3c0.2-0.7,0.3-1.5,0.5-2.2l0.2-0.8c0.1-0.6,0.3-1.3,0.5-1.9
		c0.3-1.3,1.8-2.3,3.3-2.2c4.2,0.2,8.4-0.3,13-1.5c3.7-1,7.1-2.7,10-5.1c4.1-3.4,6.2-7.8,6.1-13.1c0-1.1-0.2-2.1-0.4-3.2
		C74.6,95.7,73.3,93.4,71.2,91.6z"/>
	<path class="st0" d="M145.6,139.7H82.9c-3.3,0-6,2.7-6,6s2.7,6,6,6h62.7c3.3,0,6-2.7,6-6S148.9,139.7,145.6,139.7z"/>
	<path class="st0" d="M145.6,122.5h-42.6c-3.3,0-6,2.7-6,6s2.7,6,6,6h42.6c3.3,0,6-2.7,6-6S148.9,122.5,145.6,122.5z"/>
</g>
</svg>
