<?xml version="1.0" encoding="utf-8"?>
<!-- Generator: Adobe Illustrator 20.1.0, SVG Export Plug-In . SVG Version: 6.00 Build 0)  -->
<svg version="1.1" id="Layer_1" xmlns="http://www.w3.org/2000/svg" xmlns:xlink="http://www.w3.org/1999/xlink" x="0px" y="0px"
	 viewBox="0 0 150 150" style="enable-background:new 0 0 150 150;" xml:space="preserve">
<style type="text/css">
	.st0{fill:#02BF88;}
</style>
<path class="st0" d="M121.1,15.8C88.4-9.6,41.2-3.7,15.8,28.9C-9.6,61.6-3.7,108.8,28.9,134.2c13.7,10.6,29.9,15.8,46,15.8
	c22.4,0,44.5-9.9,59.3-28.9C159.6,88.4,153.7,41.2,121.1,15.8z M24.6,35.8C37.2,19.6,56,11.2,75.1,11.2c13.7,0,27.5,4.4,39.1,13.4
	c12.3,9.6,20.2,22.9,23.2,37.1c-0.3-0.4-0.6-0.8-0.9-1.1C122,42.7,99.8,31.2,75,31.2c-24.8,0-47,11.5-61.6,29.4
	c-0.3,0.4-0.6,0.8-0.9,1.2C14.5,52.6,18.5,43.7,24.6,35.8z M100.6,50c11.9,5.1,22,13.5,29.1,24.2c-7.1,10.6-17.1,19.1-28.9,24.1
	c5.9-6.3,9.5-14.8,9.5-24.1C110.2,64.8,106.6,56.3,100.6,50z M95.6,64.7c0,7.5-6.1,13.6-13.6,13.6c-7.5,0-13.6-6.1-13.6-13.6
	S74.5,51.1,82,51.1C89.6,51.1,95.6,57.2,95.6,64.7z M49.3,98.3c-11.8-5.1-21.9-13.5-28.9-24.1C27.4,63.5,37.5,55.1,49.4,50
	c-6,6.3-9.6,14.8-9.6,24.2C39.8,83.5,43.4,92,49.3,98.3z M125.4,114.2C103.8,142,63.6,147,35.8,125.4c-13-10.1-21-24.3-23.6-39.3
	c0.4,0.6,0.8,1.1,1.3,1.7C28,105.7,50.2,117.2,75,117.2c24.8,0,47-11.5,61.6-29.4c0.5-0.6,0.9-1.1,1.3-1.7
	C136.1,96,132,105.7,125.4,114.2z"/>
</svg>
