<?xml version="1.0" encoding="utf-8"?>
<!-- Generator: Adobe Illustrator 20.1.0, SVG Export Plug-In . SVG Version: 6.00 Build 0)  -->
<svg version="1.1" id="Layer_1" xmlns="http://www.w3.org/2000/svg" xmlns:xlink="http://www.w3.org/1999/xlink" x="0px" y="0px"
	 viewBox="0 0 512 512" style="enable-background:new 0 0 512 512;" xml:space="preserve">
<style type="text/css">
	.st0{fill:none;stroke:#8F8F8F;stroke-width:12;stroke-miterlimit:10;}
</style>
<g id="Layer_1_1_">
</g>
<path class="st0" d="M373.4,470H161.1c-6.6,0-12-5.4-12-12V218.9c0-6.6,5.4-12,12-12h212.4c6.6,0,12,5.4,12,12V458
	C385.4,464.6,380,470,373.4,470z"/>
<path class="st0" d="M208.1,432.4h-7.4c-6.6,0-12-5.4-12-12v-165c0-6.6,5.4-12,12-12h7.4c6.6,0,12,5.4,12,12v165
	C220.1,427,214.7,432.4,208.1,432.4z"/>
<path class="st0" d="M273.4,432.4H266c-6.6,0-12-5.4-12-12v-165c0-6.6,5.4-12,12-12h7.4c6.6,0,12,5.4,12,12v165
	C285.4,427,280,432.4,273.4,432.4z"/>
<path class="st0" d="M335.1,432.4h-7.4c-6.6,0-12-5.4-12-12v-165c0-6.6,5.4-12,12-12h7.4c6.6,0,12,5.4,12,12v165
	C347.1,427,341.7,432.4,335.1,432.4z"/>
<path class="st0" d="M341.5,85.4L157.6,191.6c-5.7,3.3-13.1,1.3-16.4-4.4l-14.6-25.3c-3.3-5.7-1.3-13.1,4.4-16.4L314.9,39.4
	c5.7-3.3,13.1-1.3,16.4,4.4L345.9,69C349.2,74.8,347.2,82.1,341.5,85.4z"/>
</svg>
