<?xml version="1.0" encoding="utf-8"?>
<!-- Generator: Adobe Illustrator 20.1.0, SVG Export Plug-In . SVG Version: 6.00 Build 0)  -->
<svg version="1.1" id="Layer_1" xmlns="http://www.w3.org/2000/svg" xmlns:xlink="http://www.w3.org/1999/xlink" x="0px" y="0px"
	 viewBox="0 0 236 161" style="enable-background:new 0 0 236 161;" xml:space="preserve">
<style type="text/css">
	.st0{fill:#646464;}
</style>
<g>
	<path class="st0" d="M204.8,45.1h-27.6V34.4v-3.1c0-17.1-13.9-31-31-31H91.2H55.8H31.2c-4.3,0-8.4,0.9-12.2,2.5
		C13.5,5.1,8.8,9.1,5.4,14c-3.3,4.9-5.2,10.8-5.2,17.2v53.6c0,17.1,13.9,31,31,31h27.6v13.9c0,17.1,13.9,31,31,31h115
		c17.1,0,31-13.9,31-31V94.5V79.3v-3.1C235.8,59,221.9,45.1,204.8,45.1z M177.2,57.1h27.6c3,0,5.8,0.7,8.3,1.9L157.8,100
		c-6.7,4.5-15.5,4.3-21.9-0.7l-52.8-41c0.5-0.2,1-0.4,1.5-0.5c1.6-0.5,3.4-0.7,5.1-0.7H93h2.3h21.1h0.2h48.6H177.2z M80.7,56.5
		c0.1,0.1,0.2,0.1,0.4,0.2C81,56.6,80.9,56.5,80.7,56.5z M82.6,57.3c0.1,0,0.1,0,0.2,0.1C82.8,57.3,82.7,57.3,82.6,57.3z
		 M165.2,31.2v10.3v3.7h-15.5h-16.9l30.3-22.4C164.5,25.3,165.2,28.2,165.2,31.2z M31.2,12.2h3.2h23.5h88.4c3,0,5.8,0.7,8.3,1.9
		l-41.8,31H89.8c-4.3,0-8.4,0.9-12.2,2.5c-1.9,0.8-3.6,1.8-5.3,2.9L24.6,13.5C26.6,12.7,28.9,12.2,31.2,12.2z M58.8,76.1v27.7H31.2
		c-10.5,0-19-8.5-19-19V35.4v-4.2c0-3.7,1.1-7.1,2.9-10l48.8,37.9C60.7,64,58.8,69.9,58.8,76.1z M223.8,86.4v12.8v30.6
		c0,10.5-8.5,19-19,19h-115c-10.5,0-19-8.5-19-19v-13.9v-12V80.3v-4.2c0-3.6,1-7,2.8-9.9c0,0,0-0.1,0.1-0.1l54.9,42.6
		c5.5,4.3,12.1,6.5,18.8,6.5c6,0,12.1-1.8,17.3-5.4l57.1-42.3c1.3,2.6,2.1,5.5,2.1,8.5V86.4z"/>
</g>
</svg>
