<?xml version="1.0" encoding="utf-8"?>
<!-- Generator: Adobe Illustrator 20.1.0, SVG Export Plug-In . SVG Version: 6.00 Build 0)  -->
<svg version="1.1" id="Layer_1" xmlns="http://www.w3.org/2000/svg" xmlns:xlink="http://www.w3.org/1999/xlink" x="0px" y="0px"
	 viewBox="0 0 217 177" style="enable-background:new 0 0 217 177;" xml:space="preserve">
<style type="text/css">
	.st0{fill:#8F8F8F;}
</style>
<g>
	<path class="st0" d="M216.1,139c-0.1-2-0.6-4.4-2-11.4c-1.1-5.6-2.8-13.1-4.6-17.3c-7.3-17.1-18.9-30.4-34.4-39.7
		c6.5-10,8.7-21.2,6.4-33.5c-1.9-10.3-7-19-15-25.7c-11.6-9.8-25.1-13.1-39.9-9.9c-10.9,2.4-19.9,8.2-26.6,17.4
		c-3.1,4.2-5.4,8.6-6.9,13.3c-7-2-14.5-2.1-22.3-0.4C59.8,34.1,50.9,40,44.1,49.1c-7.9,10.7-10.6,22.8-8.1,36c1,5.3,3,10.3,5.8,14.9
		c-15.9,9.3-27.7,22.7-35.1,40.1c-1.8,4.2-3.5,11.5-4.6,17.1c-1.4,7-1.9,10.7-2,11.7h0c0,1,0,1,0,1.4c0,0.1,0,0.3,0,0.4
		c0.2,1.1,0.7,2.1,1.4,2.9c0.9,1,3.5,1.3,5.5,1.3c8.7,0,21.2,0,34.7,0c23.2,0,112.8,0.2,112.8,0.2c2.1,0,3.5-0.9,4.2-1.7
		c0.7-0.8,1.2-1.5,1.3-2.6c0-0.1,0-0.4,0-0.5c0-0.4,0.1-0.4,0-1.4h0c-0.1-1-0.6-4.3-2-11.3c-0.8-3.9-1.8-8.6-3-12.6
		c21.4,0,42.5,0.1,53.8,0.1c0.3,0,0.5,0,0.8,0l0.5,0c2.1,0,3.5-1,4.2-1.7c0.7-0.8,1.2-1.8,1.4-2.9c0-0.1,0-0.3,0-0.4
		C216.1,139.9,216.1,139,216.1,139L216.1,139z M107.7,24.6c5.3-7.2,12.3-11.8,20.9-13.7c11.9-2.6,22.3,0,31.6,7.9
		c6.3,5.3,10.3,12.1,11.8,20.2c2.2,11.7-0.5,21.8-8.2,30.8c-0.8,0.9-1.5,1.7-2.4,2.5c-8.5,6.3-21.9,10.1-34.9,7.3
		c0.2-3.9,0-8-0.8-12.1c-1.9-10.3-7-19-15-25.8c-2.8-2.3-5.7-4.3-8.7-5.9C103.2,31.8,105,28.1,107.7,24.6z M51.9,54.8
		c5.3-7.2,12.3-11.8,20.9-13.7c6.6-1.4,12.6-1.3,18.3,0.4c3.3,1,6.4,2.5,9.4,4.5c1.3,0.9,2.6,1.8,3.9,2.9
		c6.3,5.3,10.3,12.1,11.8,20.2c0.4,2.4,0.7,4.7,0.7,6.9c0,0.1,0,0.1,0,0.2c0.1,3.5-0.4,6.8-1.3,10c0,0.1-0.1,0.2-0.1,0.3
		c-1.4,4.8-3.9,9.2-7.6,13.5c-0.8,0.9-1.5,1.7-2.4,2.5c-7.8,5.8-19.8,9.5-31.8,7.8c-3.4-0.5-6.8-1.4-10.1-2.8
		c-1.2-0.5-2.4-1.1-3.6-1.8c-0.8-0.6-1.7-1.2-2.5-1.9c-0.1-0.1-0.1-0.1-0.2-0.2l-0.6-0.7l-0.2-0.3l-0.9-0.5
		c-0.1-0.1-0.1-0.1-0.2-0.2l-0.3-0.4l-0.4-0.3c-0.2-0.1-0.3-0.3-0.5-0.5l-0.3-0.4c-4.5-5-7.4-10.7-8.6-17
		C43.5,72.7,45.6,63.4,51.9,54.8z M149.2,165.1c-11.4,0-27.8-0.1-43.9-0.1c-0.1,0-0.1,0-0.2,0c-2.7,0-5.4,0-8.1,0
		c-24.4,0-66.4,0.1-85.7,0.1c1.1-6.3,3.2-16.7,5-20.9c6.5-15.3,16.9-27.1,30.9-35.2c2.8,2.8,6.5,5.1,10.7,6.8
		c0.8,0.5,1.6,0.9,2.4,1.4c3.1,1.6,6.4,2.8,9.8,3.7c3.4,0.8,6.8,1.2,10.4,1.2c3,0,6-0.3,9.1-0.9c6.2-1.1,11.7-3.4,16.7-6.7
		c2.7-1.4,5.2-3,7.1-4.9c10.9,6.3,19.5,14.9,25.9,25.6c1.8,3.1,3.5,6.3,5,9.7c0.1,0.2,0.2,0.4,0.3,0.6
		C146.2,149.7,148.1,159,149.2,165.1z M161.1,134c-0.1,0-0.1,0-0.2,0c-2.7,0-5.4,0-8.1,0c-0.6,0-1.2,0-1.8,0
		c-7.3-14-18-25.4-31.8-33.6c2.3-3.4,4-6.8,5.2-10.5c3.8,1,7.7,1.7,11.7,1.7c3,0,6-0.2,9.1-0.8c6.2-1.1,11.7-3.4,16.7-6.7
		c2.7-1.4,5.2-3,7.1-4.9c14,8.2,24.3,20,30.9,35.3c1.8,4.2,3.9,13.7,5,20.1C193.6,134.5,177.2,134,161.1,134z"/>
</g>
</svg>
