<?xml version="1.0" encoding="utf-8"?>
<!-- Generator: Adobe Illustrator 20.1.0, SVG Export Plug-In . SVG Version: 6.00 Build 0)  -->
<svg version="1.1" id="Layer_1" xmlns="http://www.w3.org/2000/svg" xmlns:xlink="http://www.w3.org/1999/xlink" x="0px" y="0px"
	 viewBox="0 0 184 184" style="enable-background:new 0 0 184 184;" xml:space="preserve">
<style type="text/css">
	.st0{fill:#646464;}
</style>
<g>
	<path class="st0" d="M178.9,62l-0.4-1.3l-1.1,0.8c-3.6,2.7-7,5.3-10.2,7.8l-0.5,0.4l0.2,0.6c2,7,3.1,14.3,3.1,21.6
		c0,43-35,77.9-77.9,77.9S14.1,135,14.1,92S49,14.1,92,14.1c15,0,29.7,4.4,42.2,12.5c-6.3,5-13,10.4-15.2,12.1
		c15.5,4.4,30.6,8.8,46,13.2c-1.1-15.6-2.3-31-3.4-46.8c-5.2,4.1-10.1,8-15,11.8c0,0-0.3,0.2-0.8,0.6C130.1,6.2,111.3,0.1,92,0.1
		C41.3,0.1,0.1,41.3,0.1,92s41.2,91.9,91.9,91.9c50.7,0,91.9-41.2,91.9-91.9C183.9,81.7,182.2,71.7,178.9,62z"/>
	<path class="st0" d="M65.7,121.1l-0.5,0.4l3.9,12.9l1-0.3c2.5-0.8,5.1-1.4,7.8-1.9c2.7-0.5,5.1-0.7,7.1-0.7c1.8,0,3.7,0.2,5.5,0.5
		c1.8,0.3,3.7,0.7,5.5,1.2c1.9,0.4,3.7,0.8,5.4,1.2c1.8,0.4,3.7,0.6,5.6,0.6c2.4,0,4.8-0.3,7.3-1c2.5-0.7,4.8-1.6,6.8-2.7l0.7-0.4
		l-4.5-13.6l-1,0.3c-1.8,0.6-3.4,1.1-4.7,1.4c-1.3,0.3-2.6,0.5-3.9,0.5c-2.6,0-5.2-0.3-7.7-1c-2.7-0.7-5.5-1-8.5-1
		c-1.4,0-2.8,0.1-4.4,0.3c-0.5,0.1-1.1,0.2-1.6,0.3c2.6-2.9,4.5-5.7,5.6-8.3c1.4-3,2.2-6.3,2.3-9.8h19.3v-14H90.7
		c-0.6-1.4-1.2-2.7-1.9-4c-0.7-1.4-1.4-2.9-2.1-4.2c-0.6-1.3-1.1-2.7-1.6-4c-0.4-1.2-0.6-2.5-0.6-3.7c0-2.5,0.8-4.6,2.5-6.3
		c1.7-1.7,3.8-2.5,6.5-2.5c2.7,0,5.6,0.8,8.5,2.4c2.9,1.6,5.3,3.8,7.2,6.4l0.7,1l9.7-11.3l-0.5-0.6c-3-4-6.8-7.2-11.2-9.5
		c-4.5-2.3-9.2-3.4-14.2-3.4c-3.5,0-6.9,0.6-9.9,1.7c-3.1,1.2-5.8,2.7-8.1,4.7c-2.3,2-4.2,4.4-5.5,7c-1.3,2.7-2,5.6-2,8.7
		c0,3.5,0.7,6.8,2.2,9.9c1.2,2.5,2.4,5.1,3.6,7.6h-8v14h12c-0.1,3.9-1.2,7.4-3,10.6C73,114,69.9,117.6,65.7,121.1z"/>
</g>
</svg>
