<?xml version="1.0" encoding="utf-8"?>
<!-- Generator: Adobe Illustrator 20.1.0, SVG Export Plug-In . SVG Version: 6.00 Build 0)  -->
<svg version="1.1" id="Layer_1" xmlns="http://www.w3.org/2000/svg" xmlns:xlink="http://www.w3.org/1999/xlink" x="0px" y="0px"
	 viewBox="0 0 315 390" style="enable-background:new 0 0 315 390;" xml:space="preserve">
<style type="text/css">
	.st0{fill:url(#SVGID_1_);}
	.st1{fill:url(#SVGID_2_);}
</style>
<g>
	<linearGradient id="SVGID_1_" gradientUnits="userSpaceOnUse" x1="157.5" y1="389.4035" x2="157.5" y2="0.5965">
		<stop  offset="0" style="stop-color:#003388"/>
		<stop  offset="1" style="stop-color:#2188E2"/>
	</linearGradient>
	<path class="st0" d="M314.4,112.8c0-29,0-58,0-87c0-0.8-0.1-1.7-0.2-2.5c-2.2,0.5-4.2,0.8-6.1,1.3c-10.3,2.7-20.8,4.2-31.4,5
		c-10.1,0.7-20.1,0.5-30.2-0.4c-10.1-0.9-20-2.4-29.7-5.1c-9.6-2.6-19.2-5.5-28.4-9.3c-10.1-4.1-19.7-9.3-29.6-14
		c-0.7-0.3-1.8-0.4-2.4,0c-10.6,5.9-21.6,11.3-33.1,15.4c-8.9,3.1-18.1,5.7-27.2,8.3c-9.9,2.8-20.1,4.1-30.4,5
		c-16,1.3-31.9,0.4-47.6-2.5c-5.7-1-11.4-2.4-17.5-3.7c0,1,0,1.9,0,2.8c0,58.4,0,116.7,0,175.1c0,9.2,0.7,18.3,2.4,27.4
		c1.9,9.9,4.7,19.4,8.6,28.6c4.3,10.2,9.7,19.9,15.9,29.1C37.3,300.9,49,314,61.9,326c10.4,9.7,21.3,18.7,32.9,26.7
		c10.1,6.9,20.3,13.7,30.8,19.9c10,5.9,20.4,11.1,30.7,16.5c0.6,0.3,1.7,0.3,2.3,0c10.3-5.4,20.9-10.6,30.8-16.6
		c11.7-7,23.1-14.7,34.3-22.4c10.8-7.5,20.7-16.1,30.3-25.1c10.2-9.5,19.6-19.8,28-31c7.2-9.6,13.5-19.7,18.6-30.6
		c4.9-10.4,8.9-21.1,10.8-32.4c1.3-7.9,2.8-16,2.8-24C314.6,175.7,314.4,144.2,314.4,112.8z M292.7,227.5c-1.8,8.3-4.4,16.3-7.8,24
		c-6.5,14.8-15.3,28-25.7,40.2c-10.8,12.7-22.9,24-35.9,34.5c-12.2,9.8-24.9,18.7-38.4,26.7c-8.5,5-17.2,9.7-25.8,14.3
		c-0.8,0.5-2.4,0.5-3.2,0c-11.4-6.5-23-12.7-34.1-19.7c-9.8-6.2-19.1-13-28.3-20c-10.8-8.2-20.8-17.3-30-27.2
		c-7.4-7.9-14.3-16.3-20.3-25.3c-5.9-8.8-11.1-18-14.7-28c-1.9-5.3-3.6-10.6-5.2-16c-3.1-11-3.4-22.4-3.4-33.8c0-23.1,0-46.1,0-69.2
		c0-26.1,0-52.2,0-78.3c0-2.8,0-2.7,2.7-2.4c13.1,1.7,26.3,2.5,39.6,1.8c11.5-0.7,22.9-1.9,34.1-4.6c9-2.2,17.9-4.6,26.6-7.7
		c9.4-3.3,18.5-7.4,27.7-11.2c1.6-0.7,3.3-1.4,4.8-2.4c1.5-0.9,2.8-0.8,4.4-0.1c9.9,4.4,19.8,9.1,29.9,13c7.5,2.9,15.3,4.8,23,6.9
		c5.1,1.4,10.3,2.5,15.4,3.5c3.6,0.7,7.4,1.1,11.1,1.5c5.8,0.5,11.6,1.1,17.5,1.2c8.5,0.1,17-0.3,25.4-0.6c3.9-0.2,7.8-0.8,11.7-1.4
		c1.2-0.1,1.7,0.2,1.6,1.4c0,0.4,0,0.8,0,1.2c0,28.8,0,57.6,0,86.4c0,21.4,0,42.8,0,64.2C295.2,209.5,294.6,218.6,292.7,227.5z"/>
	<linearGradient id="SVGID_2_" gradientUnits="userSpaceOnUse" x1="157.5" y1="344.9563" x2="157.5" y2="44.9676">
		<stop  offset="0" style="stop-color:#C2C2C2"/>
		<stop  offset="1" style="stop-color:#FFFFFF"/>
	</linearGradient>
	<path class="st1" d="M275,69.4c-0.6,0-1-0.1-1.4-0.1c-8.6-0.1-17.3,0-25.9-0.5c-7-0.4-14-1.2-20.9-2.3c-12.2-2-24.2-4.9-35.9-8.7
		c-10.4-3.4-20.6-7.4-30.6-11.9c-1.3-0.6-2.6-1.4-4.4-0.6c-6.7,3-13.3,6.1-20.2,8.5c-9,3.1-18.2,6-27.5,8.4
		c-8.1,2.1-16.3,3.7-24.6,5c-11.3,1.8-22.8,2.5-34.2,2.3c-3.1,0-6.2,0-9.5,0c0,0.5-0.1,0.9-0.1,1.3c0,45.3,0,90.6,0,136
		c0,0.9,0,1.8,0.1,2.7c1,6.9,1.5,13.9,4.1,20.5c1.9,4.9,3.1,10.1,5.2,14.9c4.8,10.8,11.2,20.7,18.6,29.9c7.3,9.1,15.1,17.6,24,25.1
		c7.8,6.7,15.7,13.2,23.9,19.3c7.6,5.6,15.6,10.7,23.6,15.8c5.2,3.3,10.6,6.2,15.9,9.3c1.5,0.9,2.9,0.9,4.4,0
		c2.8-1.7,5.7-3.1,8.5-4.8c11.5-7,22.8-14.1,33.6-22.2c9.2-6.9,18.1-14.2,26.4-22.1c9.8-9.4,18.8-19.5,26.4-30.8
		c7.1-10.6,12.8-21.8,16.4-34.1c2.5-8.7,4-17.6,4-26.6c0-44.1,0-88.1,0-132.2C275.1,70.8,275.1,70.1,275,69.4z M233.1,232
		c-0.5,0-1,0-1.5,0c-16.4,0.1-149.8,0-149.8,0l55.4-55l10.2,10.3l-30.5,30.3H194l-57.5-50.5l-0.2-0.3c-9.2-9.3-10.4-23.4-3-34.3
		c6.9-10.1,19.5-14.4,30.6-9.6c2.6,1.1,5.1,2.4,7.4,4.2c6.2,4.8,6.7,13,6.5,17.8c0,1.1-0.1,2.1,0,3.1l0,0.1L178,172l-14.4-12.4
		l-0.2-11.2c0-1.4,0-2.7,0-3.9c0.1-4.1-4-6.8-5.8-7.6c-7.1-3.1-11.3,2.1-12.5,3.7c-2.9,4.3-3.7,10.8,1.2,15.9l86.8,75.4
		C233.2,232,233.2,232,233.1,232z"/>
</g>
</svg>
