<?xml version="1.0" encoding="utf-8"?>
<!-- Generator: Adobe Illustrator 20.1.0, SVG Export Plug-In . SVG Version: 6.00 Build 0)  -->
<svg version="1.1" id="Layer_1" xmlns="http://www.w3.org/2000/svg" xmlns:xlink="http://www.w3.org/1999/xlink" x="0px" y="0px"
	 viewBox="0 0 527 117.5" style="enable-background:new 0 0 527 117.5;" xml:space="preserve">
<style type="text/css">
	.st0{fill:#FFFFFF;}
	.st1{enable-background:new    ;}
</style>
<g>
	<path class="st0" d="M136.3,62.4c-0.9-2-2.4-3.8-4.2-5.3c-1.8-1.5-4.1-2.7-6.7-3.7c-2.6-1.1-5.7-2-8.9-2.8
		c-2.5-0.6-4.7-1.3-6.7-1.8c-2-0.5-3.7-1.2-4.9-1.9c-1.4-0.7-2.3-1.6-3-2.5c-0.7-0.9-1.1-2.2-1.1-3.7c0-2.6,0.9-4.5,2.8-6
		c1.8-1.4,4.6-2.1,8.3-2.1c2.1,0,4.1,0.2,6.1,0.7c2,0.5,3.9,1.2,5.6,1.9s3.2,1.6,4.3,2.3c0.4,0.2,0.8,0.5,1.2,0.7l0.9,0.6l5.4-9.8
		l-0.8-0.5c-2.6-1.7-5.7-3.2-9.1-4.4c-3.9-1.5-8.3-2.2-12.9-2.2c-3.4,0-6.5,0.4-9.5,1.4c-2.9,0.9-5.5,2.3-7.7,4
		c-2.2,1.8-3.9,3.9-5.1,6.5c-1.3,2.6-1.9,5.6-1.9,8.9c0,2.5,0.4,4.7,1.2,6.5c0.7,1.8,1.9,3.4,3.5,4.7c1.5,1.5,3.5,2.6,5.8,3.7
		c2.3,1.1,5.1,2,8.3,2.8c2.5,0.7,5,1.5,7.2,2.1s4,1.4,5.6,2.1s2.8,1.7,3.7,2.7c0.9,1.1,1.4,2.4,1.4,4c0,4.6-3.3,7-9.9,7.4l-2.6,0.1
		l10.8,9.6l0.5-0.2c2.5-0.7,4.8-1.8,6.8-3.2c2.2-1.6,4-3.6,5.4-6.1c1.4-2.5,2-5.6,2-9C137.8,67.1,137.3,64.5,136.3,62.4z"/>
	<g class="st1">
		<path class="st0" d="M146.7,33.6V21.1h12.5v12.4h-12.5V33.6z M146.7,89.3v-49h12.5v49H146.7z"/>
		<path class="st0" d="M246.6,89.3h-12.5V61.8c0-3.9-0.6-6.8-2-8.6c-1.4-1.8-3.2-2.7-5.6-2.7c-2.5,0-4.8,0.9-7,2.8
			c-2.2,1.9-3.8,4.4-4.6,7.5v28.5h-12.5V61.8c0-3.9-0.6-6.8-2-8.6c-1.4-1.8-3.2-2.7-5.6-2.7c-2.4,0-4.7,0.9-6.9,2.8
			s-3.8,4.3-4.7,7.4v28.6h-12.5V40.4h11.2v9c1.8-3.2,4.3-5.7,7.5-7.4s6.7-2.5,10.8-2.5c4.1,0,7.2,0.9,9.6,2.9c2.2,2,3.7,4.4,4.3,7.4
			c2-3.4,4.5-5.9,7.6-7.7c3-1.8,6.5-2.6,10.5-2.6c2.9,0,5.5,0.5,7.4,1.7c1.9,1.2,3.5,2.6,4.5,4.4c1.1,1.8,1.8,3.9,2.2,6.2
			s0.6,4.6,0.6,7v30.5H246.6z"/>
		<path class="st0" d="M286.9,90.3c-3.9,0-7.2-0.8-10.1-2.5s-5.1-4-6.7-6.9v28.5h-12.5V40.4h10.9v8.4c1.8-2.8,4.1-5.1,7-6.7
			c2.8-1.7,6.2-2.5,9.9-2.5c3.3,0,6.3,0.6,9.1,2c2.8,1.4,5.3,3.2,7.2,5.5s3.6,4.9,4.7,8s1.7,6.3,1.7,9.8c0,3.6-0.5,6.9-1.6,10
			c-1.1,3.2-2.5,5.8-4.4,8.1c-1.9,2.3-4.2,4.1-6.7,5.5C293,89.7,290,90.3,286.9,90.3z M282.7,79.6c1.9,0,3.6-0.4,5.1-1.3
			c1.6-0.8,2.9-1.9,4.1-3.3s2-2.9,2.6-4.7c0.6-1.8,0.9-3.7,0.9-5.6c0-2.1-0.3-4-1.1-5.8c-0.7-1.8-1.7-3.4-2.8-4.6s-2.6-2.3-4.3-3
			c-1.7-0.7-3.5-1.2-5.4-1.2c-1.2,0-2.4,0.2-3.7,0.6c-1.3,0.4-2.4,0.9-3.5,1.7c-1.1,0.7-2,1.6-2.8,2.6c-0.8,0.9-1.5,2.1-1.9,3.3
			v11.5c1.2,2.8,2.8,5.1,5.1,6.9C277.5,78.6,280,79.6,282.7,79.6z"/>
		<path class="st0" d="M316.7,21.1h12.5v52.5c0,1.8,0.4,3.3,1.3,4.2s2.1,1.5,3.8,1.5c0.7,0,1.6-0.1,2.5-0.4c0.9-0.2,1.8-0.5,2.5-0.9
			l1.7,9.6c-1.7,0.8-3.7,1.5-5.9,1.9c-2.2,0.4-4.3,0.6-6.1,0.6c-3.9,0-6.9-1.1-9.1-3.2c-2.1-2.1-3.3-5-3.3-8.9V21.1H316.7z"/>
		<path class="st0" d="M346.4,33.6V21.1h12.5v12.4h-12.5V33.6z M346.4,89.3v-49h12.5v49H346.4z"/>
		<path class="st0" d="M367.1,64.9c0-3.5,0.6-6.6,1.8-9.7c1.2-3,2.9-5.8,5.1-8c2.2-2.3,4.9-4.1,8.1-5.5s6.7-2.1,10.7-2.1
			c5.4,0,9.9,1.2,13.7,3.5c3.8,2.3,6.6,5.4,8.4,9l-12.3,3.8c-1.1-1.8-2.4-3.2-4.2-4.2c-1.8-0.9-3.7-1.5-5.8-1.5
			c-1.8,0-3.5,0.3-5,1.1c-1.6,0.7-2.9,1.7-4.1,2.9s-2.1,2.8-2.7,4.6c-0.6,1.8-0.9,3.8-0.9,6c0,2.2,0.3,4.2,1.1,6s1.6,3.4,2.7,4.6
			c1.2,1.3,2.5,2.3,4.1,3c1.6,0.7,3.3,1.1,4.9,1.1c2.2,0,4.3-0.5,6.2-1.7c1.9-1.2,3.3-2.5,4-4.1l12.3,3.8c-1.7,3.8-4.4,6.8-8.3,9.1
			c-3.9,2.4-8.5,3.6-14,3.6c-4,0-7.6-0.7-10.7-2.1c-3.2-1.4-5.9-3.3-8.1-5.6c-2.2-2.3-4-5-5.1-8.1C367.8,71.4,367.1,68.2,367.1,64.9
			z"/>
		<path class="st0" d="M422.9,33.6V21.1h12.5v12.4h-12.5V33.6z M422.9,89.3v-49h12.5v49H422.9z"/>
		<path class="st0" d="M476.1,86.8c-1.7,0.7-3.8,1.5-6.2,2.2s-4.9,1.2-7.7,1.2c-1.8,0-3.4-0.2-4.9-0.6c-1.6-0.4-2.8-1.2-4-2.1
			c-1.2-0.9-2.1-2.2-2.7-3.8c-0.7-1.6-1.1-3.4-1.1-5.6V49.9h-6.4v-9.7h6.4V24.4H462v15.9h10.3v9.7H462v24c0,1.8,0.4,2.9,1.4,3.7
			c0.9,0.7,2,1.1,3.4,1.1s2.6-0.2,3.8-0.6c1.3-0.4,2.2-0.8,2.9-1.2L476.1,86.8z"/>
		<path class="st0" d="M483.6,98.8c1.1,0.3,2.1,0.5,3,0.7c0.9,0.1,1.8,0.2,2.5,0.2c0.8,0,1.6-0.1,2.2-0.4c0.7-0.3,1.3-0.8,1.9-1.7
			c0.5-0.7,1.2-1.9,1.7-3.3c0.5-1.4,1.2-3,1.8-5.1l-19.3-49h12.9l13.2,38.1l11.8-38.1h11.8L506.6,99c-1.2,3.5-3.3,6.2-6.1,8.4
			c-2.8,2.2-6.4,3.3-10.6,3.3c-0.9,0-2-0.1-3-0.2c-1.1-0.1-2.1-0.4-3.3-0.8V98.8z"/>
	</g>
	<path class="st0" d="M50.5,34.2c-3.7-3.8-3.1-8.8-0.9-12.2c0.9-1.2,4.1-5.2,9.6-2.8c1.3,0.6,4.5,2.7,4.4,5.8c0,0.9-0.1,1.9,0,3
		l0.1,8.6L74.7,46l-0.1-18.3v-0.1c0-0.8,0-1.5,0-2.4c0.1-3.7-0.3-9.9-5-13.6c-1.8-1.4-3.7-2.4-5.7-3.3C55.4,4.6,45.7,8,40.4,15.7
		c-5.7,8.3-4.8,19.1,2.2,26.2l0.1,0.2l44,38.6h-59l23.3-23.2l-7.8-7.8L1,91.9c0,0,102.1,0.1,114.7,0c0.4,0,0.8,0,1.2,0
		c0.1,0,0.1,0,0.1,0L50.5,34.2z"/>
</g>
</svg>
