<?xml version="1.0" encoding="utf-8"?>
<!-- Generator: Adobe Illustrator 20.1.0, SVG Export Plug-In . SVG Version: 6.00 Build 0)  -->
<svg version="1.1" id="Layer_1" xmlns="http://www.w3.org/2000/svg" xmlns:xlink="http://www.w3.org/1999/xlink" x="0px" y="0px"
	 viewBox="0 0 527 117.5" style="enable-background:new 0 0 527 117.5;" xml:space="preserve">
<style type="text/css">
	.st0{fill:#FFFFFF;}
	.st1{enable-background:new    ;}
</style>
<g>
	<path class="st0" d="M68.6,37.7c-5.1-5.3-4.3-12.2-1.2-16.8c1.2-1.7,5.7-7.2,13.2-3.9c1.8,0.8,6.2,3.7,6.1,8c0,1.2-0.1,2.6,0,4.1
		l0.2,11.8L102,54l-0.2-25.2v-0.1c0-1.1,0-2.1,0-3.3c0.1-5.1-0.4-13.7-6.9-18.8c-2.5-2-5.1-3.3-7.9-4.5C75.3-3,62,1.6,54.7,12.2
		c-7.9,11.5-6.6,26.4,3.1,36.2l0.2,0.3l60.7,53.3H37.3l32.2-32L58.8,59.2L0.3,117.3c0,0,140.9,0.2,158.2,0c0.6,0,1.1,0,1.6,0
		c0.1,0,0.2,0,0.2,0L68.6,37.7z"/>
	<path class="st0" d="M154.6,71.2c-0.9-1.9-2.3-3.6-4-5c-1.7-1.4-3.9-2.6-6.4-3.5c-2.5-1-5.4-1.9-8.5-2.7c-2.4-0.6-4.5-1.2-6.4-1.7
		c-1.9-0.5-3.5-1.1-4.7-1.8c-1.3-0.7-2.2-1.5-2.9-2.4c-0.7-0.9-1-2.1-1-3.5c0-2.5,0.9-4.3,2.7-5.7c1.7-1.3,4.4-2,7.9-2
		c2,0,3.9,0.2,5.8,0.7c1.9,0.5,3.7,1.1,5.3,1.8c1.6,0.7,3,1.5,4.1,2.2c0.4,0.2,0.8,0.5,1.1,0.7l0.9,0.6l5.1-9.3l-0.8-0.5
		c-2.5-1.6-5.4-3-8.7-4.2c-3.7-1.4-7.9-2.1-12.3-2.1c-3.2,0-6.2,0.4-9,1.3s-5.2,2.2-7.3,3.8c-2.1,1.7-3.7,3.7-4.9,6.2
		s-1.8,5.3-1.8,8.5c0,2.4,0.4,4.5,1.1,6.2c0.7,1.7,1.8,3.2,3.3,4.5c1.4,1.4,3.3,2.5,5.5,3.5c2.2,1,4.9,1.9,7.9,2.7
		c2.4,0.7,4.8,1.4,6.9,2c2.1,0.6,3.8,1.3,5.3,2c1.5,0.7,2.7,1.6,3.5,2.6c0.9,1,1.3,2.3,1.3,3.8c0,4.4-3.1,6.7-9.4,7l-2.5,0.1
		l10.3,9.1l0.5-0.2c2.4-0.7,4.6-1.7,6.5-3c2.1-1.5,3.8-3.4,5.1-5.8s1.9-5.3,1.9-8.6C156,75.6,155.5,73.2,154.6,71.2z"/>
	<g class="st1">
		<path class="st0" d="M164.5,43.7V31.8h11.9v11.8H164.5z M164.5,96.8V50.2h11.9v46.6H164.5z"/>
		<path class="st0" d="M259.6,96.8h-11.9V70.6c0-3.7-0.6-6.5-1.9-8.2c-1.3-1.7-3-2.6-5.3-2.6c-2.4,0-4.6,0.9-6.7,2.7
			c-2.1,1.8-3.6,4.2-4.4,7.1v27.1h-11.9V70.6c0-3.7-0.6-6.5-1.9-8.2c-1.3-1.7-3-2.6-5.3-2.6c-2.3,0-4.5,0.9-6.6,2.7
			c-2.1,1.8-3.6,4.1-4.5,7v27.2h-11.9V50.2H198v8.6c1.7-3,4.1-5.4,7.1-7c3-1.6,6.4-2.4,10.3-2.4c3.9,0,6.9,0.9,9.1,2.8
			c2.1,1.9,3.5,4.2,4.1,7c1.9-3.2,4.3-5.6,7.2-7.3c2.9-1.7,6.2-2.5,10-2.5c2.8,0,5.2,0.5,7,1.6c1.8,1.1,3.3,2.5,4.3,4.2
			c1,1.7,1.7,3.7,2.1,5.9c0.4,2.2,0.6,4.4,0.6,6.7V96.8z"/>
		<path class="st0" d="M297.9,97.7c-3.7,0-6.9-0.8-9.6-2.4c-2.7-1.6-4.9-3.8-6.4-6.6v27.1H270V50.2h10.4v8c1.7-2.7,3.9-4.9,6.7-6.4
			c2.7-1.6,5.9-2.4,9.4-2.4c3.1,0,6,0.6,8.7,1.9c2.7,1.3,5,3,6.9,5.2c1.9,2.2,3.4,4.7,4.5,7.6c1.1,2.9,1.6,6,1.6,9.3
			c0,3.4-0.5,6.6-1.5,9.5c-1,3-2.4,5.5-4.2,7.7c-1.8,2.2-4,3.9-6.4,5.2S300.9,97.7,297.9,97.7z M293.9,87.5c1.8,0,3.4-0.4,4.9-1.2
			c1.5-0.8,2.8-1.8,3.9-3.1c1.1-1.3,1.9-2.8,2.5-4.5c0.6-1.7,0.9-3.5,0.9-5.3c0-2-0.3-3.8-1-5.5c-0.7-1.7-1.6-3.2-2.7-4.4
			s-2.5-2.2-4.1-2.9c-1.6-0.7-3.3-1.1-5.1-1.1c-1.1,0-2.3,0.2-3.5,0.6c-1.2,0.4-2.3,0.9-3.3,1.6c-1,0.7-1.9,1.5-2.7,2.5
			c-0.8,0.9-1.4,2-1.8,3.1v10.9c1.1,2.7,2.7,4.9,4.9,6.6C289,86.6,291.4,87.5,293.9,87.5z"/>
		<path class="st0" d="M326.3,31.8h11.9v50c0,1.7,0.4,3.1,1.2,4c0.8,0.9,2,1.4,3.6,1.4c0.7,0,1.5-0.1,2.4-0.4
			c0.9-0.2,1.7-0.5,2.4-0.9l1.6,9.1c-1.6,0.8-3.5,1.4-5.6,1.8c-2.1,0.4-4.1,0.6-5.8,0.6c-3.7,0-6.6-1-8.7-3c-2-2-3.1-4.8-3.1-8.5
			V31.8z"/>
		<path class="st0" d="M354.6,43.7V31.8h11.9v11.8H354.6z M354.6,96.8V50.2h11.9v46.6H354.6z"/>
		<path class="st0" d="M374.3,73.5c0-3.3,0.6-6.3,1.7-9.2c1.1-2.9,2.8-5.5,4.9-7.6c2.1-2.2,4.7-3.9,7.7-5.2c3-1.3,6.4-2,10.2-2
			c5.1,0,9.4,1.1,13,3.3c3.6,2.2,6.3,5.1,8,8.6l-11.7,3.6c-1-1.7-2.3-3-4-4c-1.7-0.9-3.5-1.4-5.5-1.4c-1.7,0-3.3,0.3-4.8,1
			c-1.5,0.7-2.8,1.6-3.9,2.8c-1.1,1.2-2,2.7-2.6,4.4c-0.6,1.7-0.9,3.6-0.9,5.7c0,2.1,0.3,4,1,5.7c0.7,1.7,1.5,3.2,2.6,4.4
			c1.1,1.2,2.4,2.2,3.9,2.9c1.5,0.7,3.1,1,4.7,1c2.1,0,4.1-0.5,5.9-1.6s3.1-2.4,3.8-3.9l11.7,3.6c-1.6,3.6-4.2,6.5-7.9,8.7
			c-3.7,2.3-8.1,3.4-13.3,3.4c-3.8,0-7.2-0.7-10.2-2c-3-1.3-5.6-3.1-7.7-5.3s-3.8-4.8-4.9-7.7C374.9,79.7,374.3,76.7,374.3,73.5z"/>
		<path class="st0" d="M427.4,43.7V31.8h11.9v11.8H427.4z M427.4,96.8V50.2h11.9v46.6H427.4z"/>
		<path class="st0" d="M478,94.4c-1.6,0.7-3.6,1.4-5.9,2.1c-2.3,0.7-4.7,1.1-7.3,1.1c-1.7,0-3.2-0.2-4.7-0.6c-1.5-0.4-2.7-1.1-3.8-2
			c-1.1-0.9-2-2.1-2.6-3.6c-0.7-1.5-1-3.2-1-5.3V59.3h-6.1v-9.2h6.1V35h11.9v15.1h9.8v9.2h-9.8v22.8c0,1.7,0.4,2.8,1.3,3.5
			c0.9,0.7,1.9,1,3.2,1s2.5-0.2,3.6-0.6c1.2-0.4,2.1-0.8,2.8-1.1L478,94.4z"/>
		<path class="st0" d="M485.2,105.8c1,0.3,2,0.5,2.9,0.7c0.9,0.1,1.7,0.2,2.4,0.2c0.8,0,1.5-0.1,2.1-0.4c0.7-0.3,1.2-0.8,1.8-1.6
			c0.5-0.7,1.1-1.8,1.6-3.1c0.5-1.3,1.1-2.9,1.7-4.9l-18.4-46.6h12.3l12.6,36.3l11.2-36.3h11.2L507.1,106c-1.1,3.3-3.1,5.9-5.8,8
			c-2.7,2.1-6.1,3.1-10.1,3.1c-0.9,0-1.9-0.1-2.9-0.2c-1-0.1-2-0.4-3.1-0.8V105.8z"/>
	</g>
</g>
</svg>
