<?xml version="1.0" encoding="utf-8"?>
<!-- Generator: Adobe Illustrator 20.1.0, SVG Export Plug-In . SVG Version: 6.00 Build 0)  -->
<svg version="1.1" id="Layer_1" xmlns="http://www.w3.org/2000/svg" xmlns:xlink="http://www.w3.org/1999/xlink" x="0px" y="0px"
	 viewBox="0 0 140 103" style="enable-background:new 0 0 140 103;" xml:space="preserve">
<style type="text/css">
	.st0{fill:url(#SVGID_1_);}
</style>
<linearGradient id="SVGID_1_" gradientUnits="userSpaceOnUse" x1="70" y1="1.3124" x2="70" y2="103.0297">
	<stop  offset="0" style="stop-color:#E10019"/>
	<stop  offset="1" style="stop-color:#6D0007"/>
</linearGradient>
<path class="st0" d="M139.3,103l-10.5-9.1L60.1,33.7c-4.4-4.6-3.7-10.6-1.1-14.6c1-1.5,4.9-6.3,11.5-3.4c1.6,0.7,5.4,3.3,5.3,7
	c0,1.1-0.1,2.3,0,3.6l0.1,10.3l13.2,11.4L89,26l0-0.1c0-0.9,0-1.9,0-2.9c0.1-4.4-0.3-11.9-6-16.3c-2.2-1.7-3.6-2.5-6-3.5
	c-10.2-4.5-22.6-0.8-28.9,8.4c-6.9,10-5.7,23,2.7,31.5l53,46.8H32.9L61,62l-9.3-9.5L0.7,103h137.7C138.8,103,139.1,103,139.3,103z"
	/>
</svg>
