<?xml version="1.0" encoding="utf-8"?>
<!-- Generator: Adobe Illustrator 20.1.0, SVG Export Plug-In . SVG Version: 6.00 Build 0)  -->
<svg version="1.1" id="Layer_1" xmlns="http://www.w3.org/2000/svg" xmlns:xlink="http://www.w3.org/1999/xlink" x="0px" y="0px"
	 viewBox="0 0 212 198" style="enable-background:new 0 0 212 198;" xml:space="preserve">
<style type="text/css">
	.st0{fill:#5D5D5D;}
</style>
<g>
	<path class="st0" d="M210.4,191.7l-66.9-58.1c-4.1-4.3-3.5-9.9-1-13.5c1-1.4,4.6-5.8,10.6-3.2c1.5,0.6,5,3,4.9,6.5
		c0,1-0.1,2.1,0,3.3l0.1,9.5l12.3,10.6l-0.1-20.3l0-0.1c0-0.9,0-1.7,0-2.7c0.1-4.1-0.3-11.1-5.6-15.2c-2-1.6-4.2-2.7-6.3-3.6
		c-9.5-4.1-20.2-0.4-26.1,8.2c-6.4,9.3-5.3,21.3,2.5,29.3l0.2,0.3l49,43.1h-65.8l26-25.9l-8.7-8.8l-47.3,47c0,0,89.8,0,119.7,0
		C211.4,198,212.9,193.9,210.4,191.7z"/>
	<path class="st0" d="M13.2,185.7c1.3-7.4,3.7-19.4,5.8-24.3c7.5-17.7,19.6-31.4,35.7-40.9c8.3,6.2,17.6,10.2,27.7,11.9
		c14.8,2.5,21.7,2.4,35.1-4.7c0,0,0,0,0.1,0c1-0.5,1.9-1.1,2.7-1.8c0-0.3,0.1-0.7,0.1-1c0-0.2-0.1-0.4-0.1-0.6c0-2.9,0.4-5.7,2-8
		c0.5-1.2,1-2.4,1.7-3.5c-2,1-4.4,2.1-6,3c-11.1,5.9-21.2,7-33.5,4.9c-9.1-1.6-17.4-5.4-24.8-11.4c-1.1-0.9-4.1-2.8-8-0.7
		c-20,10.8-34.7,27-43.7,48.2c-2.1,4.8-4,13.6-5.3,20.2c-1.6,8.2-2.2,11.9-2.3,13.9h0c0,0.4,0,0.9,0,1.3c0,0.1,0,0.2,0,0.2
		c0.2,1.2,0.8,2.4,1.6,3.3c0.9,0.9,2.4,2,4.9,2l0.6,0c0.3,0,0.6,0,0.9,0c27,0,41.3,0,68.2,0c4-4,8-8,12-12
		C63.5,185.7,38.4,185.7,13.2,185.7z"/>
	<path class="st0" d="M51.2,95.2c0.6,0.8,1.4,1.6,2.2,2.3c0.4,0.4,0.9,1,1.6,1.5c0.4,0.5,0.9,0.9,1.4,1.3c0.1,0.1,0.3,0.3,0.5,0.4
		c10.9,9,23.1,13.5,36.4,13.5c3.7,0,7.5-0.4,11.4-1.1c12.8-2.4,23.6-8.6,32.1-18.5c12.1-14,16.4-30.4,13-48.6
		c-2.4-12.9-8.8-23.7-18.8-32.2C116.5,1.7,99.8-2.5,81.2,1.5C67.6,4.5,56.4,11.8,48,23.3c-9.8,13.4-13.2,28.5-10.1,45.1
		C39.8,78.3,44.3,87.3,51.2,95.2z M57.6,30.4c6.6-9,15.4-14.8,26.2-17.1c14.9-3.2,27.9,0,39.6,9.8c7.9,6.6,12.8,15.1,14.7,25.2
		c2.8,14.7-0.6,27.3-10.3,38.6c-6.7,7.8-15.2,12.7-25.2,14.5c-14.2,2.6-26.5-0.6-37.7-9.7c-0.1-0.1-0.1-0.1-0.2-0.2l-0.8-0.8
		l-0.2-0.4l-1.1-0.6c-0.1-0.1-0.1-0.2-0.2-0.2l-0.4-0.5l-0.5-0.4c-0.2-0.2-0.4-0.4-0.6-0.6l-0.4-0.5c-5.6-6.2-9.2-13.4-10.7-21.3
		C47.1,52.8,49.8,41.1,57.6,30.4z"/>
</g>
</svg>
