<?xml version="1.0" encoding="utf-8"?>
<!-- Generator: Adobe Illustrator 20.1.0, SVG Export Plug-In . SVG Version: 6.00 Build 0)  -->
<svg version="1.1" id="Layer_1" xmlns="http://www.w3.org/2000/svg" xmlns:xlink="http://www.w3.org/1999/xlink" x="0px" y="0px"
	 viewBox="0 0 460 241" style="enable-background:new 0 0 460 241;" xml:space="preserve">
<style type="text/css">
	.st0{fill:#155696;}
	.st1{fill:#FFFFFF;}
</style>
<path class="st0" d="M-722.2,1672.6c-9.7-0.1-21.3,0.8-30.4-2.6c-4.7-1.8-8.1-4.2-10.6-7.1h-13.5l8.8-10.6c-1.3-8.6,1.6-18.7,6-27.7
	c-9.8-3.7-9.8-7.5-9.7-10.2l0.1-8.6c3.5-3.4,6.5-7.4,9.1-11.8c1.3,7.7,3.2,15.3,5.9,21.3c1.8-2.6,3.6-5,5.3-7.1
	c1.3-1.5,2.7-2.3,4.1-2.7c-4.1-13-5.8-34.5-5.8-48.3v-24.4c0-0.2,0-0.3,0-0.5c0-0.2,0-0.3,0-0.5v-4.5c0-35.2-25-51-49.7-51
	c-7.1,0-14.3,1.4-20.8,4.1c-0.2,0.1-0.4,0.1-0.6,0.2c-15.9,6.8-28.3,21.9-28.3,46.7v29.8c0,18.2-2.9,50.1-10.7,57.8l-4.4,4.4
	l4.4,4.4c1.8,1.8,3.4,3.4,4.8,4.7c-0.5,0.1-0.9,0.2-1.5,0.3c-34.4,6.3-40.8,37.8-41.1,39.1l-1.4,7.4h199.1l-0.8-4.3
	C-709.9,1672.8-716.6,1672.7-722.2,1672.6z M-802.7,1488.8c17.7,0,36.6,9.8,37.2,37.1c-39.2-2.3-47.5-25.7-49.2-35.5
	C-810.8,1489.3-806.7,1488.8-802.7,1488.8z M-840,1527.4c0-14.7,5.2-24.4,12.6-30.5c-0.3,10.3-2.3,24.1-8.7,31.1
	c-1.2,1.3-2.5,2.2-3.9,3V1527.4z M-842.9,1594c2.6,4.4,5.6,8.4,9.1,11.8v7.3c0,0.5,0,1.1,0,1.7c0.1,2.7,0.2,6.4-10.2,10.1
	c-1.3-1.1-3.3-3-6.5-6.2C-846.9,1612.3-844.5,1603.3-842.9,1594z M-886.1,1662.9c3.6-7.6,11.6-18.8,28.5-21.9c3.7-0.7,7-1.4,10-2.2
	l19.3,24H-886.1z M-812.2,1662.9l-22.8-28.3c11.3-5.2,14-11.9,13.7-20.3c0-0.1,0-0.3,0-0.4c2.1,0,4.1-1.1,5.3-3
	c1.8-2.9,0.9-6.8-2.1-8.5c-13.3-8.1-21.9-25.9-21.9-45.3V1544c5-1.2,9.5-3.7,13.1-7.7c5.2-5.7,8.2-13.5,9.9-21.3
	c8.5,11.3,23.9,21.9,51.6,23.3v18.8c0,19.4-8.6,37.1-21.9,45.3c-2.9,1.8-3.9,5.6-2.1,8.6c1.2,1.9,3.2,2.9,5.2,3l0,0.2
	c-0.2,8.6,2.6,15.4,14.4,20.7l-23.1,28.1H-812.2z"/>
<g>
	<path class="st0" d="M-444.7,1668c-0.3-1.3-6.7-32.7-41.1-39.1c-17-3.2-22.9-6.7-24.9-9.8c12.4-1.1,37.1-5.2,47.7-21.1l2.8-4.2
		l-3.5-3.6c-22.8-23.4-23.2-62.4-23.2-62.8c0-20.5-14.9-50.9-55.9-51c0,0,0,0,0,0c0,0,0,0,0,0c0,0,0,0,0,0c0,0,0,0,0,0
		c-41,0-55.9,30.5-55.9,51c0,0.4-0.3,39.4-23.2,62.8l-3.5,3.6l2.8,4.2c3.4,5.2,8.4,9.1,13.9,12c1.6-1.1,3.4-1.8,5.4-1.7
		c2.3,0.1,4.5,0.5,6.7,1.3c3.5,1.2,5.8,3.8,6.5,7.1c5.9,1.3,11.4,2,15.5,2.4c-0.6,1.1-1.8,2.2-3.7,3.3c4.8,2.8,7.4,9.5,2.2,14.5
		c-0.2,0.2-0.4,0.4-0.5,0.6c0.8,0.4,1.7,0.7,2.7,0.7h0c3.4,0,6.2-2.8,6.2-6.2c0-0.5-0.1-1-0.2-1.5c5.4-4.4,6.7-9.7,6.5-15.9
		c0-0.1,0-0.3,0-0.4c2.1,0,4.1-1.1,5.3-3c1.8-2.9,0.9-6.8-2.1-8.5c-13.3-8.1-21.9-25.9-21.9-45.3v-14.1
		c17.2-4.5,30.2-17.2,37.1-25.3c6.6,8.2,19.5,21.1,37.5,25.4v13.9c0,19.4-8.6,37.2-21.9,45.3c-2.9,1.8-3.9,5.6-2.1,8.5
		c1.2,1.9,3.2,2.9,5.2,3l0,0.2c-0.1,6.2,1.3,11.5,6.5,15.9c-0.1,0.2-0.1,0.3-0.2,0.5c0,0.4-0.1,0.8-0.1,1.2c0,1.6,0.7,3.2,1.8,4.4
		c1.2,1.2,2.8,1.8,4.4,1.8c1.7,0,3.3-0.7,4.4-1.8c0.1-0.1,0.1-0.2,0.2-0.3c2.5,1,5.3,1.9,8.5,2.7l-21.7,24.2H-565l-16.4-18
		c-0.1,0.4-0.3,0.7-0.4,1.1c0.3,1.2,0.6,2.4,0.9,3.6c0.5,0.5,0.9,1,1.3,1.7c9.6,16.3-18.9,20.8-28.6,17.2c-0.6-0.2-1.1-0.5-1.6-0.8
		c-1.8,0.5-3.7,0.9-5.6,1.2c-8.7,1.7-17.1,1.9-25.7-0.1l-1.3,6.6h199.1L-444.7,1668z M-573.9,1605.8v0.8c-10.4-0.9-26.7-4-35.3-12
		c8.3-9.9,13.5-21.3,16.9-31.9C-591.1,1579.9-584.4,1595.3-573.9,1605.8z M-537.5,1504.3c-1.1-1.8-3.1-3-5.2-3
		c-2.2-0.1-4.2,1-5.3,2.8c-0.2,0.3-16,23.9-38.5,27.7c0.2-2.5,0.2-4.1,0.2-4.4c0-28.3,26-38.5,43.5-38.6c17.5,0,43.5,10.3,43.5,38.6
		c0,0.3,0,1.9,0.2,4.4C-522.7,1528.1-537.3,1504.5-537.5,1504.3z M-511.7,1605.8c10.6-10.5,17.2-25.9,18.4-43
		c3.4,10.6,8.6,21.9,16.9,31.8c-8.6,8-24.9,11.1-35.3,12L-511.7,1605.8z M-503.6,1662.9l18.8-21c14.6,3.9,21.9,14,25.3,21H-503.6z"
		/>
	<path class="st0" d="M-565.9,1639.9c-1.1,1.2-1.8,2.7-1.8,4.4c0,0.4,0,0.8,0.1,1.2c0,0.4,0.2,0.8,0.3,1.2c0.2,0.4,0.3,0.7,0.6,1.1
		c0.2,0.3,0.5,0.7,0.7,1c1.2,1.2,2.8,1.8,4.4,1.8c1.6,0,3.2-0.7,4.4-1.8c0.3-0.3,0.6-0.6,0.8-1c0.2-0.3,0.4-0.7,0.6-1.1
		c0.2-0.4,0.3-0.7,0.4-1.2c0.1-0.4,0.1-0.8,0.1-1.2c0-1.7-0.7-3.2-1.9-4.4C-559.4,1637.6-563.6,1637.6-565.9,1639.9z"/>
	<path class="st0" d="M-547.3,1646.7c-1.1,1.2-1.8,2.7-1.8,4.4c0,0.4,0,0.8,0.1,1.2c0,0.4,0.2,0.8,0.3,1.2c0.2,0.4,0.3,0.7,0.6,1.1
		c0.2,0.3,0.5,0.7,0.7,1c1.2,1.2,2.8,1.8,4.4,1.8c1.6,0,3.2-0.7,4.4-1.8c0.3-0.3,0.6-0.6,0.8-1c0.2-0.3,0.4-0.7,0.6-1.1
		c0.2-0.4,0.3-0.7,0.4-1.2c0.1-0.4,0.1-0.8,0.1-1.2c0-1.7-0.7-3.2-1.9-4.4C-540.7,1644.4-544.9,1644.4-547.3,1646.7z"/>
	<path class="st0" d="M-524.2,1638.1c-3.4,0-6.2,2.8-6.2,6.2s2.8,6.2,6.2,6.2h0c3.4,0,6.2-2.8,6.2-6.2S-520.7,1638.1-524.2,1638.1z"
		/>
</g>
<g>
	<g>
		<path class="st1" d="M-691.8,1580.4c-1.4,0-2.9-0.4-4.2-1.2c-11.4-6.9-20.2-18.6-25.1-33.1c-11.2-5.3-13.7-24.2-13.7-29.9
			c0-12.8,4.6-18.6,9.4-21.2v-5.5c0-37.4,26.5-54.1,52.8-54.1c4.4,0,8,3.6,8,8s-3.6,8-8,8c-17.8,0-36.8,10-36.8,38.1v19.5l-7.9,0.1
			c-0.5,0.1-1.5,1.4-1.4,6.8c0.1,4.7,2.3,13.7,4.4,15.6h5.7l1.6,5.9c3.4,12.5,10.5,22.7,19.4,28.2c3.8,2.3,5,7.2,2.7,11
			C-686.5,1579.1-689.1,1580.4-691.8,1580.4z M-714.1,1531.7L-714.1,1531.7L-714.1,1531.7z"/>
		<path class="st1" d="M-653.4,1580.4c-2.7,0-5.3-1.4-6.8-3.8c-2.3-3.8-1.1-8.7,2.7-11c8.9-5.4,16-15.7,19.4-28.2l1.6-5.8l5.6-0.1
			c2.2-1.9,4.4-11,4.4-15.3c0-5.7-0.9-6.9-1.1-7.1l-7.9-0.1l-0.3-7.8v-11.6c0-28.1-19-38.1-36.8-38.1c-4.4,0-8-3.6-8-8s3.6-8,8-8
			c26.3,0,52.8,16.7,52.8,54.1v5.5c4.7,2.6,9.3,8.3,9.3,20.8c0,5.9-2.5,24.8-13.6,30.1c-4.9,14.5-13.7,26.2-25.1,33.1
			C-650.5,1580.1-652,1580.4-653.4,1580.4z"/>
	</g>
	<path class="st1" d="M-717.4,1502.7c-4.4,0-8-3.6-8-8s3.6-8,8-8c18.3,0,26-6.3,34.1-12.9c7.3-5.9,15.5-12.7,29.9-12.7
		c24.8,0,32.8,19.6,33.6,29.9c0.3,4.4-3,8.3-7.4,8.6c-4.5,0.3-8.3-3-8.6-7.4c-0.2-2.5-2.2-15.1-17.6-15.1c-8.7,0-13.1,3.6-19.8,9.1
		C-682.2,1493.6-693.4,1502.7-717.4,1502.7z"/>
	<path class="st1" d="M-576.6,1675.6h-192.1c-4.4,0-8-3.6-8-8v-32c0-12.1,9.4-36.8,45.1-43.1c25.8-4.6,25.6-9.7,25.5-12.7
		c0-0.6,0-1.2,0-1.8v-10.3c0-4.4,3.6-8,8-8c4.4,0,8,3.6,8,8l0,11.5c0.5,13.3-5.9,23.3-38.6,29.1c-31.5,5.6-31.9,27.1-31.9,27.3v24
		h176.1v-24c0-0.8-0.9-21.4-32-27.4c-32.3-6.2-38.8-16.2-38.5-29.3l0-1l-0.3-9.8c-0.1-4.4,3.4-8.1,7.8-8.2c4.3-0.1,8.1,3.4,8.2,7.8
		l0.3,10l0,1.5c-0.1,3.1-0.2,8.3,25.5,13.3c35.6,6.8,45,31.2,45,43.1v32C-568.6,1672-572.2,1675.6-576.6,1675.6z"/>
	<path class="st1" d="M-712.6,1651.6c-1.2,0-2.4-0.3-3.5-0.8c-2.8-1.3-4.5-4.1-4.5-7.2V1596c0-4.4,3.6-8,8-8c1.2,0,2.4,0.3,3.4,0.8
		c0.1-1.5,0.7-2.9,1.6-4.2c2.7-3.5,7.7-4.1,11.2-1.5l28.7,22.1c1.9,1.5,3.1,3.8,3.1,6.3c0,2.5-1.1,4.8-3,6.3l-40.1,32
		C-709.1,1651-710.9,1651.6-712.6,1651.6z M-704.6,1597v30l19.1-15.3L-704.6,1597z"/>
	<path class="st1" d="M-632.6,1651.6c-1.8,0-3.6-0.6-5-1.8l-40-32c-1.9-1.5-3-3.9-3-6.3c0-2.5,1.2-4.8,3.2-6.3l29.1-22.1
		c3.5-2.7,8.5-2,11.2,1.5c0.8,1.1,1.4,2.4,1.5,3.7c0.9-0.4,1.9-0.6,3-0.6c4.4,0,8,3.6,8,8v47.8c0,3.1-1.8,5.9-4.5,7.2
		C-630.2,1651.3-631.4,1651.6-632.6,1651.6z M-659.6,1611.8l19,15.2v-29.6L-659.6,1611.8z"/>
	<path class="st1" d="M-672.6,1675.6c-4.4,0-8-3.6-8-8v-56c0-4.4,3.6-8,8-8c4.4,0,8,3.6,8,8v56
		C-664.6,1672-668.2,1675.6-672.6,1675.6z"/>
</g>
<g>
	<path class="st0" d="M180.5,237.6c-9.7-0.1-21.3,0.8-30.4-2.6c-4.7-1.8-8.1-4.2-10.6-7.1H126l8.8-10.6c-1.3-8.6,1.6-18.7,6-27.7
		c-9.8-3.7-9.8-7.5-9.7-10.2l0.1-8.6c3.5-3.4,6.5-7.4,9.1-11.8c1.3,7.7,3.2,15.3,5.9,21.3c1.8-2.6,3.6-5,5.3-7.1
		c1.3-1.5,2.7-2.3,4.1-2.7c-4.1-13-5.8-34.5-5.8-48.3V97.7c0-0.2,0-0.3,0-0.5c0-0.2,0-0.3,0-0.5v-4.5c0-35.2-25-51-49.7-51
		c-7.1,0-14.3,1.4-20.8,4.1c-0.2,0.1-0.4,0.1-0.6,0.2c-15.9,6.8-28.3,21.9-28.3,46.7v29.8c0,18.2-2.9,50.1-10.7,57.8l-4.4,4.4
		l4.4,4.4c1.8,1.8,3.4,3.4,4.8,4.7c-0.5,0.1-0.9,0.2-1.5,0.3C8.6,200,2.2,231.6,1.9,232.9l-1.4,7.4h199.1l-0.8-4.3
		C192.9,237.7,186.2,237.6,180.5,237.6z M100.1,53.7c17.7,0,36.6,9.8,37.2,37.1C98,88.6,89.8,65.1,88.1,55.4
		C92,54.3,96,53.7,100.1,53.7z M62.8,92.3c0-14.7,5.2-24.4,12.6-30.5c-0.3,10.3-2.3,24.1-8.7,31.1c-1.2,1.3-2.5,2.2-3.9,3V92.3z
		 M59.9,159c2.6,4.4,5.6,8.4,9.1,11.8v7.3c0,0.5,0,1.1,0,1.7c0.1,2.7,0.2,6.4-10.2,10.1c-1.3-1.1-3.3-3-6.5-6.2
		C55.9,177.3,58.3,168.2,59.9,159z M16.7,227.9c3.6-7.6,11.6-18.8,28.5-21.9c3.7-0.7,7-1.4,10-2.2l19.3,24H16.7z M90.5,227.9
		l-22.8-28.3c11.3-5.2,14-11.9,13.7-20.3c0-0.1,0-0.3,0-0.4c2.1,0,4.1-1.1,5.3-3c1.8-2.9,0.9-6.8-2.1-8.5
		c-13.3-8.1-21.9-25.9-21.9-45.3V109c5-1.2,9.5-3.7,13.1-7.7c5.2-5.7,8.2-13.5,9.9-21.3c8.5,11.3,23.9,21.9,51.6,23.3v18.8
		c0,19.4-8.6,37.1-21.9,45.3c-2.9,1.8-3.9,5.6-2.1,8.6c1.2,1.9,3.2,2.9,5.2,3l0,0.2c-0.2,8.6,2.6,15.4,14.4,20.7l-23.1,28.1H90.5z"
		/>
	<g>
		<path class="st0" d="M458.1,232.9c-0.3-1.3-6.7-32.7-41.1-39.1c-17-3.2-22.9-6.7-24.9-9.8c12.4-1.1,37.1-5.2,47.7-21.1l2.8-4.2
			l-3.5-3.6c-22.8-23.4-23.2-62.4-23.2-62.8c0-20.5-14.9-50.9-55.9-51c0,0,0,0,0,0c0,0,0,0,0,0c0,0,0,0,0,0c0,0,0,0,0,0
			c-41,0-55.9,30.5-55.9,51c0,0.4-0.3,39.4-23.2,62.8l-3.5,3.6l2.8,4.2c3.4,5.2,8.4,9.1,13.9,12c1.6-1.1,3.4-1.8,5.4-1.7
			c2.3,0.1,4.5,0.5,6.7,1.3c3.5,1.2,5.8,3.8,6.5,7.1c5.9,1.3,11.4,2,15.5,2.4c-0.6,1.1-1.8,2.2-3.7,3.3c4.8,2.8,7.4,9.5,2.2,14.5
			c-0.2,0.2-0.4,0.4-0.5,0.6c0.8,0.4,1.7,0.7,2.7,0.7h0c3.4,0,6.2-2.8,6.2-6.2c0-0.5-0.1-1-0.2-1.5c5.4-4.4,6.7-9.7,6.5-15.9
			c0-0.1,0-0.3,0-0.4c2.1,0,4.1-1.1,5.3-3c1.8-2.9,0.9-6.8-2.1-8.5c-13.3-8.1-21.9-25.9-21.9-45.3v-14.1
			c17.2-4.5,30.2-17.2,37.1-25.3c6.6,8.2,19.5,21.1,37.5,25.4v13.9c0,19.4-8.6,37.2-21.9,45.3c-2.9,1.8-3.9,5.6-2.1,8.5
			c1.2,1.9,3.2,2.9,5.2,3l0,0.2c-0.1,6.2,1.3,11.5,6.5,15.9c-0.1,0.2-0.1,0.3-0.2,0.5c0,0.4-0.1,0.8-0.1,1.2c0,1.6,0.7,3.2,1.8,4.4
			c1.2,1.2,2.8,1.8,4.4,1.8c1.7,0,3.3-0.7,4.4-1.8c0.1-0.1,0.1-0.2,0.2-0.3c2.5,1,5.3,1.9,8.5,2.7l-21.7,24.2h-44.6l-16.4-18
			c-0.1,0.4-0.3,0.7-0.4,1.1c0.3,1.2,0.6,2.4,0.9,3.6c0.5,0.5,0.9,1,1.3,1.7c9.6,16.3-18.9,20.8-28.6,17.2c-0.6-0.2-1.1-0.5-1.6-0.8
			c-1.8,0.5-3.7,0.9-5.6,1.2c-8.7,1.7-17.1,1.9-25.7-0.1l-1.3,6.6h199.1L458.1,232.9z M328.9,170.8v0.8c-10.4-0.9-26.7-4-35.3-12
			c8.3-9.9,13.5-21.3,16.9-31.9C311.7,144.8,318.3,160.3,328.9,170.8z M365.3,69.2c-1.1-1.8-3.1-3-5.2-3c-2.2-0.1-4.2,1-5.3,2.8
			c-0.2,0.3-16,23.9-38.5,27.7c0.2-2.5,0.2-4.1,0.2-4.4c0-28.3,26-38.5,43.5-38.6c17.5,0,43.5,10.3,43.5,38.6c0,0.3,0,1.9,0.2,4.4
			C380.1,93,365.5,69.4,365.3,69.2z M391.1,170.8c10.6-10.5,17.2-25.9,18.4-43c3.4,10.6,8.6,21.9,16.9,31.8
			c-8.6,8-24.9,11.1-35.3,12L391.1,170.8z M399.2,227.9l18.8-21c14.6,3.9,21.9,14,25.3,21H399.2z"/>
		<path class="st0" d="M336.9,204.8c-1.1,1.2-1.8,2.7-1.8,4.4c0,0.4,0,0.8,0.1,1.2c0,0.4,0.2,0.8,0.3,1.2c0.2,0.4,0.3,0.7,0.6,1.1
			c0.2,0.3,0.5,0.7,0.7,1c1.2,1.2,2.8,1.8,4.4,1.8c1.6,0,3.2-0.7,4.4-1.8c0.3-0.3,0.6-0.6,0.8-1c0.2-0.3,0.4-0.7,0.6-1.1
			c0.2-0.4,0.3-0.7,0.4-1.2c0.1-0.4,0.1-0.8,0.1-1.2c0-1.7-0.7-3.2-1.9-4.4C343.4,202.5,339.2,202.5,336.9,204.8z"/>
		<path class="st0" d="M355.5,211.7c-1.1,1.2-1.8,2.7-1.8,4.4c0,0.4,0,0.8,0.1,1.2c0,0.4,0.2,0.8,0.3,1.2c0.2,0.4,0.3,0.7,0.6,1.1
			c0.2,0.3,0.5,0.7,0.7,1c1.2,1.2,2.8,1.8,4.4,1.8c1.6,0,3.2-0.7,4.4-1.8c0.3-0.3,0.6-0.6,0.8-1c0.2-0.3,0.4-0.7,0.6-1.1
			c0.2-0.4,0.3-0.7,0.4-1.2c0.1-0.4,0.1-0.8,0.1-1.2c0-1.7-0.7-3.2-1.9-4.4C362,209.4,357.8,209.4,355.5,211.7z"/>
		<path class="st0" d="M378.6,203c-3.4,0-6.2,2.8-6.2,6.2c0,3.4,2.8,6.2,6.2,6.2h0c3.4,0,6.2-2.8,6.2-6.2
			C384.8,205.8,382,203,378.6,203z"/>
	</g>
	<g>
		<g>
			<path class="st1" d="M211,145.4c-1.4,0-2.9-0.4-4.2-1.2c-11.4-6.9-20.2-18.6-25.1-33.1c-11.2-5.3-13.7-24.2-13.7-29.9
				c0-12.8,4.6-18.6,9.4-21.2v-5.5c0-37.4,26.5-54.1,52.8-54.1c4.4,0,8,3.6,8,8s-3.6,8-8,8c-17.8,0-36.8,10-36.8,38.1V74l-7.9,0.1
				c-0.5,0.1-1.5,1.4-1.4,6.8c0.1,4.7,2.3,13.7,4.4,15.6h5.7l1.6,5.9c3.4,12.5,10.5,22.7,19.4,28.2c3.8,2.3,5,7.2,2.7,11
				C216.3,144,213.7,145.4,211,145.4z M188.7,96.7L188.7,96.7L188.7,96.7z"/>
			<path class="st1" d="M249.4,145.4c-2.7,0-5.3-1.4-6.8-3.8c-2.3-3.8-1.1-8.7,2.7-11c8.9-5.4,16-15.7,19.4-28.2l1.6-5.8l5.6-0.1
				c2.2-1.9,4.4-11,4.4-15.3c0-5.7-0.9-6.9-1.1-7.1l-7.9-0.1l-0.3-7.8V54.6c0-28.1-19-38.1-36.8-38.1c-4.4,0-8-3.6-8-8s3.6-8,8-8
				c26.3,0,52.8,16.7,52.8,54.1v5.5c4.7,2.6,9.3,8.3,9.3,20.8c0,5.9-2.5,24.8-13.6,30.1c-4.9,14.5-13.7,26.2-25.1,33.1
				C252.3,145,250.8,145.4,249.4,145.4z"/>
		</g>
		<path class="st1" d="M185.4,67.7c-4.4,0-8-3.6-8-8s3.6-8,8-8c18.3,0,26-6.3,34.1-12.9c7.3-5.9,15.5-12.7,29.9-12.7
			c24.8,0,32.8,19.6,33.6,29.9c0.3,4.4-3,8.3-7.4,8.6c-4.5,0.3-8.3-3-8.6-7.4c-0.2-2.5-2.2-15.1-17.6-15.1c-8.7,0-13.1,3.6-19.8,9.1
			C220.6,58.5,209.4,67.7,185.4,67.7z"/>
		<path class="st1" d="M326.2,240.6H134.1c-4.4,0-8-3.6-8-8v-32c0-12.1,9.4-36.8,45.1-43.1c25.8-4.6,25.6-9.7,25.5-12.7
			c0-0.6,0-1.2,0-1.8v-10.3c0-4.4,3.6-8,8-8c4.4,0,8,3.6,8,8l0,11.5c0.5,13.3-5.9,23.3-38.6,29.1c-31.5,5.6-31.9,27.1-31.9,27.3v24
			h176.1v-24c0-0.8-0.9-21.4-32-27.4c-32.3-6.2-38.8-16.2-38.5-29.3l0-1l-0.3-9.8c-0.1-4.4,3.4-8.1,7.8-8.2c4.3-0.1,8.1,3.4,8.2,7.8
			l0.3,10l0,1.5c-0.1,3.1-0.2,8.3,25.5,13.3c35.6,6.8,45,31.2,45,43.1v32C334.2,237,330.6,240.6,326.2,240.6z"/>
		<path class="st1" d="M190.1,216.5c-1.2,0-2.4-0.3-3.5-0.8c-2.8-1.3-4.5-4.1-4.5-7.2v-47.6c0-4.4,3.6-8,8-8c1.2,0,2.4,0.3,3.4,0.8
			c0.1-1.5,0.7-2.9,1.6-4.2c2.7-3.5,7.7-4.1,11.2-1.5l28.7,22.1c1.9,1.5,3.1,3.8,3.1,6.3c0,2.5-1.1,4.8-3,6.3l-40.1,32
			C193.7,215.9,191.9,216.5,190.1,216.5z M198.1,161.9v30l19.1-15.3L198.1,161.9z"/>
		<path class="st1" d="M270.2,216.5c-1.8,0-3.6-0.6-5-1.8l-40-32c-1.9-1.5-3-3.9-3-6.3s1.2-4.8,3.2-6.3l29.1-22.1
			c3.5-2.7,8.5-2,11.2,1.5c0.8,1.1,1.4,2.4,1.5,3.7c0.9-0.4,1.9-0.6,3-0.6c4.4,0,8,3.6,8,8v47.8c0,3.1-1.8,5.9-4.5,7.2
			C272.5,216.3,271.4,216.5,270.2,216.5z M243.2,176.7l19,15.2v-29.6L243.2,176.7z"/>
		<path class="st1" d="M230.2,240.6c-4.4,0-8-3.6-8-8v-56c0-4.4,3.6-8,8-8c4.4,0,8,3.6,8,8v56C238.2,237,234.6,240.6,230.2,240.6z"
			/>
	</g>
</g>
</svg>
