<?xml version="1.0" encoding="utf-8"?>
<!-- Generator: Adobe Illustrator 20.1.0, SVG Export Plug-In . SVG Version: 6.00 Build 0)  -->
<svg version="1.1" id="Layer_1" xmlns="http://www.w3.org/2000/svg" xmlns:xlink="http://www.w3.org/1999/xlink" x="0px" y="0px"
	 viewBox="0 0 207 234" style="enable-background:new 0 0 207 234;" xml:space="preserve">
<style type="text/css">
	.st0{fill:#2188E2;}
</style>
<g>
	<path class="st0" d="M103.4,0.2c5.9,0,11.8,0,17.7,0c4.4,0,6.3,2,6.3,6.4c0,2.9,0,5.8,0,8.7c0,3.2-2,5.3-5.2,5.5
		c-1.8,0.1-3.7,0.1-5.5,0.1c-1.7-0.1-2.4,0.7-2.4,2.4c0,0.8,0,1.7,0,2.5c0,1.6,0.7,2.1,2.2,2.3c18.7,2.5,35.5,9.3,50.3,21
		c20.7,16.4,33.8,37.6,38.1,63.6c4.9,29.7-1.5,56.9-20,80.9c-13.6,17.7-31.2,30.2-52.8,35.8c-41.7,10.9-77.7,0.5-106.7-31.5
		C10.3,181.3,2.2,161,0.6,138.4C-1,115.1,4.3,93.5,17.1,74.1C33.5,49.5,56.3,34.4,85.4,29c1.2-0.2,2.5-0.5,3.7-0.7
		c3.5-0.5,3.5-0.5,3.5-4c0-3.3-0.1-3.4-3.4-3.4c-1.3,0-2.7,0-4,0c-3.7-0.1-5.7-2.1-5.7-5.8c0-3.2-0.1-6.3,0-9.5
		c0.1-3.4,2.1-5.4,5.5-5.5C91.1,0.2,97.3,0.2,103.4,0.2C103.4,0.2,103.4,0.2,103.4,0.2z M103.3,215.7c47.1,0.1,84.8-38.5,85.1-83.9
		c0.3-48.9-38.5-85.2-82.6-86.2c-50.1-1.1-85.5,38.2-87.4,80.8C16.2,176.2,55.9,215.5,103.3,215.7z"/>
	<path class="st0" d="M106.3,93.2c0,10.7,0,19.6,0,30.4c0,2.3,0.3,5.4,3,5.9c2.8,1.1,56.9,21.8,61.2,23.4c1.9,0.6,2.3,1.5,1.5,3.3
		c-10.2,22.7-27.4,37.3-51.8,41.9c-27,5.1-50.1-3.1-68.2-23.9c-8.7-10-14-21.8-15.8-35c-3.3-24.8,4-45.9,22.2-63
		C70.9,64.4,86,58.5,103,57.4c3.5-0.2,3.6,0,3.6,3.5C106.6,71.7,106.4,93.2,106.3,93.2z"/>
</g>
</svg>
