<?xml version="1.0" encoding="utf-8"?>
<!-- Generator: Adobe Illustrator 20.1.0, SVG Export Plug-In . SVG Version: 6.00 Build 0)  -->
<svg version="1.1" id="Layer_1" xmlns="http://www.w3.org/2000/svg" xmlns:xlink="http://www.w3.org/1999/xlink" x="0px" y="0px"
	 viewBox="0 0 231 175" style="enable-background:new 0 0 231 175;" xml:space="preserve">
<style type="text/css">
	.st0{fill:#FFFFFF;}
	.st1{fill:#646464;}
</style>
<ellipse class="st0" cx="70" cy="117.5" rx="57.7" ry="36.8"/>
<ellipse class="st0" cx="70" cy="117.5" rx="57.7" ry="36.8"/>
<path class="st1" d="M139.7,83.5c-0.7-13.1-8.1-25.2-21.1-34.3S88.4,35.1,70.1,35.1s-35.4,5-48.5,14.1S1.1,70.5,0.4,83.7
	c0,0.3-0.1,0.5-0.1,0.8v30.1c0,0.3,0,0.6,0.1,0.9c0.8,13,8.2,25,21.1,34.1c13,9.1,30.2,14.1,48.5,14.1c18.2,0,35.4-5,48.5-14.1
	c13-9.1,20.4-21.2,21.1-34.3c0-0.3,0.1-0.6,0.1-0.9V84.3C139.7,84,139.7,83.7,139.7,83.5z M70,151.7c-31.4,0-57-16.8-57.7-37.7
	c2.7,2.8,5.7,5.5,9.2,7.9C34.6,131,51.8,136,70,136s35.4-5,48.5-14.1c3.5-2.4,6.5-5.1,9.2-7.9C127.1,134.9,101.5,151.7,70,151.7z
	 M16.3,99.4C24.6,85,45.6,74.8,70,74.8c24.5,0,45.4,10.2,53.8,24.6C115.5,113.8,94.5,124,70,124C45.6,124,24.6,113.8,16.3,99.4z
	 M118.5,76.9c-13-9.1-30.2-14.1-48.5-14.1s-35.4,5-48.5,14.1C18,79.3,15,82,12.3,84.8C13,63.9,38.6,47.1,70,47.1s57,16.8,57.7,37.7
	C125,81.9,122,79.3,118.5,76.9z"/>
<ellipse class="st0" cx="70" cy="86" rx="57.7" ry="36.8"/>
<path class="st1" d="M68.3,70.9c-1.3-2.1-0.5-4.4,0.9-5.7c0.6-0.6,2.4-1.9,4.5-0.3c0.6,0.4,1.7,1.7,1.4,2.8C75,68.2,74.8,73,74.8,73
	l5.9,7.9l2-10c0.1-0.4,0.2-0.8,0.3-1.3c0.9-3.8,0.5-6.8-1.3-9c-1-1.2-2-2-2.9-2.7c-4.5-3.3-10.7-2.8-15.1,1.3
	c-4.5,4.2-5.4,10.7-2.2,15.9l0.1,0.2l18.3,25l-28.2-6.2L65,85.6l-4.4-6.9l-30,19l2.2,0.5c0.6,0.1,64.3,13.8,64.3,13.8L68.3,70.9z"/>
<g>
	<ellipse class="st0" cx="161" cy="128.4" rx="57.7" ry="36.8"/>
	<ellipse class="st0" cx="161" cy="128.4" rx="57.7" ry="36.8"/>
	<path class="st1" d="M230.6,94.4c-0.7-13.1-8.1-25.2-21.1-34.3C196.4,51,179.2,46,161,46s-35.4,5-48.5,14.1S92,81.4,91.3,94.6
		c0,0.3-0.1,0.5-0.1,0.8v30.1c0,0.3,0,0.6,0.1,0.9c0.8,13,8.2,25,21.1,34.1c13,9.1,30.2,14.1,48.5,14.1c18.2,0,35.4-5,48.5-14.1
		c13-9.1,20.4-21.2,21.1-34.3c0-0.3,0.1-0.6,0.1-0.9V95.2C230.6,94.9,230.6,94.6,230.6,94.4z M161,162.6c-31.4,0-57-16.8-57.7-37.7
		c2.7,2.8,5.7,5.5,9.2,7.9c13,9.1,30.2,14.1,48.5,14.1c18.2,0,35.4-5,48.5-14.1c3.5-2.4,6.5-5.1,9.2-7.9
		C218,145.8,192.4,162.6,161,162.6z M107.2,110.3c8.4-14.4,29.3-24.6,53.8-24.6s45.4,10.2,53.8,24.6c-8.4,14.4-29.3,24.6-53.8,24.6
		C136.5,134.9,115.5,124.7,107.2,110.3z M209.4,87.8c-13-9.1-30.2-14.1-48.5-14.1s-35.4,5-48.5,14.1c-3.5,2.4-6.5,5.1-9.2,7.9
		C103.9,74.8,129.5,58,161,58c31.4,0,57,16.8,57.7,37.7C216,92.9,212.9,90.2,209.4,87.8z"/>
	<ellipse class="st0" cx="161" cy="96.9" rx="57.7" ry="36.8"/>
	<path class="st1" d="M159.2,81.8c-1.3-2.1-0.5-4.4,0.9-5.7c0.6-0.6,2.4-1.9,4.5-0.3c0.6,0.4,1.7,1.7,1.4,2.8
		c-0.1,0.5-0.3,5.3-0.3,5.3l5.9,7.9l2-10c0.1-0.4,0.2-0.8,0.3-1.3c0.9-3.8,0.5-6.8-1.3-9c-1-1.2-2-2-2.9-2.7
		c-4.5-3.3-10.7-2.8-15.1,1.3c-4.5,4.2-5.4,10.7-2.2,15.9l0.1,0.2l18.3,25l-28.2-6.2l13.3-8.5l-4.4-6.9l-30,19l2.2,0.5
		c0.6,0.1,64.3,13.8,64.3,13.8L159.2,81.8z"/>
</g>
<g>
	<ellipse class="st0" cx="116.6" cy="82.8" rx="57.7" ry="36.8"/>
	<ellipse class="st0" cx="116.6" cy="82.8" rx="57.7" ry="36.8"/>
	<path class="st1" d="M186.2,48.8c-0.7-13.1-8.1-25.2-21.1-34.3S134.9,0.4,116.6,0.4s-35.4,5-48.5,14.1S47.6,35.8,47,49
		c0,0.3-0.1,0.5-0.1,0.8v30.1c0,0.3,0,0.6,0.1,0.9c0.8,13,8.2,25,21.1,34.1c13,9.1,30.2,14.1,48.5,14.1c18.2,0,35.4-5,48.5-14.1
		c13-9.1,20.4-21.2,21.1-34.3c0-0.3,0.1-0.6,0.1-0.9v-30C186.3,49.4,186.2,49.1,186.2,48.8z M116.6,117c-31.4,0-57-16.8-57.7-37.7
		c2.7,2.8,5.7,5.5,9.2,7.9c13,9.1,30.2,14.1,48.5,14.1c18.2,0,35.4-5,48.5-14.1c3.5-2.4,6.5-5.1,9.2-7.9
		C173.6,100.2,148,117,116.6,117z M62.8,64.7c8.4-14.4,29.3-24.6,53.8-24.6s45.4,10.2,53.8,24.6c-8.4,14.4-29.3,24.6-53.8,24.6
		C92.1,89.3,71.2,79.1,62.8,64.7z M165,42.2c-13-9.1-30.2-14.1-48.5-14.1s-35.4,5-48.5,14.1c-3.5,2.4-6.5,5.1-9.2,7.9
		c0.6-20.9,26.2-37.7,57.7-37.7c31.4,0,57,16.8,57.7,37.7C171.6,47.3,168.5,44.6,165,42.2z"/>
	<ellipse class="st0" cx="116.6" cy="51.3" rx="57.7" ry="36.8"/>
	<path class="st1" d="M114.8,36.2c-1.3-2.1-0.5-4.4,0.9-5.7c0.6-0.6,2.4-1.9,4.5-0.3c0.6,0.4,1.7,1.7,1.4,2.8
		c-0.1,0.5-0.3,5.3-0.3,5.3l5.9,7.9l2-10c0.1-0.4,0.2-0.8,0.3-1.3c0.9-3.8,0.5-6.8-1.3-9c-1-1.2-2-2-2.9-2.7
		c-4.5-3.3-10.7-2.8-15.1,1.3c-4.5,4.2-5.4,10.7-2.2,15.9l0.1,0.2l18.3,25l-28.2-6.2l13.3-8.5l-4.4-6.9l-30,19l2.2,0.5
		c0.6,0.1,64.3,13.8,64.3,13.8L114.8,36.2z"/>
</g>
</svg>
