<?xml version="1.0" encoding="utf-8"?>
<!-- Generator: Adobe Illustrator 20.1.0, SVG Export Plug-In . SVG Version: 6.00 Build 0)  -->
<svg version="1.1" id="Layer_1" xmlns="http://www.w3.org/2000/svg" xmlns:xlink="http://www.w3.org/1999/xlink" x="0px" y="0px"
	 viewBox="0 0 110 92" style="enable-background:new 0 0 110 92;" xml:space="preserve">
<style type="text/css">
	.st0{fill:#FFFFFF;}
</style>
<path class="st0" d="M0.3,81.5c12.3-0.2,22.6-2.5,31.9-9.8c-10-1.6-16.8-6.2-20.5-15.6c3-0.2,5.4-0.4,9.4-0.6
	c-10.8-4.5-16.9-11-17.4-22.2c3.2,0.8,5.8,1.4,9.8,2.4C3.8,26.6,1.2,17,6.6,5.1c12.7,14.1,27.8,22.4,46.2,23.5
	c0.5-4.3,0.5-8.2,1.5-11.8c4-13.9,21-20.9,33-12.7c5.8,3.9,10.2,3.2,15.5,0.6c1-0.5,2.1-0.9,4.1-0.6c-2.4,3.3-4.7,6.7-7.5,10.5
	c3.2-0.7,6.2-1.3,9.8-2.1c-0.8,1.3-1.2,2.4-1.9,2.8c-7.9,5.1-8.3,13.2-9.5,21.5c-6.2,43.4-54.8,67.7-93.5,47.1
	C3.4,83.4,2.5,82.8,0.3,81.5z"/>
</svg>
