<?xml version="1.0" encoding="utf-8"?>
<!-- Generator: Adobe Illustrator 20.1.0, SVG Export Plug-In . SVG Version: 6.00 Build 0)  -->
<svg version="1.1" id="Layer_1" xmlns="http://www.w3.org/2000/svg" xmlns:xlink="http://www.w3.org/1999/xlink" x="0px" y="0px"
	 viewBox="0 0 145 214" style="enable-background:new 0 0 145 214;" xml:space="preserve">
<style type="text/css">
	.st0{fill:#646464;}
</style>
<g>
	<path class="st0" d="M69.6,90.7c-1.9-2.1-1.6-4.8-0.3-6.6c0.6-0.8,2.3-2.6,5-1.4c0.7,0.3,2.3,1.5,2.2,2.9c0,0.6,0.9,6,0.9,6
		l8.5,7.5l0-11.7c0-0.5,0-1,0-1.5c0.2-4.5-1-7.8-3.5-9.8c-1.4-1.1-2.7-1.8-3.9-2.3c-5.9-2.7-12.8-0.7-16.7,4.9
		c-4.1,5.8-3.6,13.4,1.2,18.4l0.1,0.2l26.4,23.9l-33.3-0.5l13.1-12.6l-6.5-6.7l-29.4,28.3l2.6,0c0.7,0,75.6,0.7,75.6,0.7L69.6,90.7z
		"/>
	<path class="st0" d="M60.4,158.9h-30c-3.3,0-6,2.7-6,6s2.7,6,6,6h30c3.3,0,6-2.7,6-6S63.7,158.9,60.4,158.9z"/>
	<path class="st0" d="M78.6,178.7H30.4c-3.3,0-6,2.7-6,6s2.7,6,6,6h48.2c3.3,0,6-2.7,6-6S81.9,178.7,78.6,178.7z"/>
	<path class="st0" d="M130.4,213.6H14.6c-7.7,0-14-6.3-14-14V65.9L144.4,0.4v199.3C144.4,207.4,138.1,213.6,130.4,213.6z M12.6,73.6
		v126c0,1.1,0.9,2,2,2h115.8c1.1,0,2-0.9,2-2V19L12.6,73.6z"/>
</g>
</svg>
