<?xml version="1.0" encoding="utf-8"?>
<!-- Generator: Adobe Illustrator 20.1.0, SVG Export Plug-In . SVG Version: 6.00 Build 0)  -->
<svg version="1.1" id="Layer_1" xmlns="http://www.w3.org/2000/svg" xmlns:xlink="http://www.w3.org/1999/xlink" x="0px" y="0px"
	 viewBox="0 0 50 50" style="enable-background:new 0 0 50 50;" xml:space="preserve">
<style type="text/css">
	.st0{fill:#8f8f8f}
</style>
<path class="st0" d="M34.9,25.1c0.9,0.9,1.9,1.8,2.8,2.7c3.6,3.6,7.1,7.1,10.7,10.7c1.9,1.9,1.9,4.4,0,6.3c-1.2,1.2-2.4,2.4-3.6,3.6
	c-1.9,1.9-4.4,1.8-6.3-0.1c-4.3-4.3-8.6-8.6-12.9-12.9c-0.1-0.1-0.3-0.3-0.5-0.4c-0.2,0.1-0.3,0.3-0.5,0.4
	c-4.3,4.3-8.6,8.6-12.9,12.9c-2,2-4.5,2-6.4,0c-1.2-1.2-2.4-2.4-3.5-3.5c-1.9-1.9-1.9-4.4,0-6.3c2.4-2.4,4.9-4.9,7.3-7.3
	c1.9-1.9,3.8-3.8,5.7-5.7c0.1-0.1,0.3-0.3,0.7-0.7c-0.3-0.2-0.6-0.3-0.8-0.5C10.2,20.1,6,15.9,1.7,11.6c-2-2-2-4.5,0-6.4
	C2.9,4,4.1,2.8,5.3,1.7c1.9-1.9,4.4-1.9,6.3,0.1c4.3,4.3,8.6,8.6,12.9,12.9c0.1,0.1,0.3,0.3,0.5,0.5c1-1.1,2-2.1,3.1-3.2
	c3.4-3.4,6.8-6.8,10.2-10.2c2-2,4.5-2,6.5,0c1.2,1.1,2.3,2.3,3.4,3.4c2,2,2,4.4,0,6.4c-4.3,4.3-8.6,8.6-12.9,12.9
	C35.3,24.7,35.1,24.8,34.9,25.1z"/>
</svg>
