<?xml version="1.0" encoding="utf-8"?>
<!-- Generator: Adobe Illustrator 20.1.0, SVG Export Plug-In . SVG Version: 6.00 Build 0)  -->
<svg version="1.1" id="Layer_1" xmlns="http://www.w3.org/2000/svg" xmlns:xlink="http://www.w3.org/1999/xlink" x="0px" y="0px"
	 viewBox="0 0 168 191" style="enable-background:new 0 0 168 191;" xml:space="preserve">
<style type="text/css">
	.st0{fill:#646464;}
</style>
<g>
	<path class="st0" d="M2,178.9c-2.4,3.1-1.8,7.5,1.3,9.8c0,0,0.1,0.1,0.1,0.1c3,2.3,7.3,1.7,9.7-1.3l24.1-31l-11.1-8.6L2,178.9z"/>
	<path class="st0" d="M136.4,17.7C101.4-9.6,50.6-3.3,23.3,31.8c-27.3,35.1-21,85.8,14.1,113.1c14.7,11.4,32.1,17,49.4,17
		c24,0,47.8-10.7,63.7-31.1C177.8,95.7,171.5,45,136.4,17.7z M32.8,39.2C46.3,21.8,66.6,12.7,87,12.7c14.7,0,29.5,4.7,42,14.4
		C142.3,37.5,150.7,51.7,154,67c-0.3-0.4-0.6-0.8-0.9-1.2c-15.6-19.3-39.4-31.6-66.1-31.6c-26.7,0-50.5,12.3-66.1,31.6
		c-0.3,0.4-0.6,0.8-1,1.3C21.9,57.2,26.2,47.6,32.8,39.2z M114.4,54.4c12.8,5.4,23.6,14.5,31.2,26c-7.6,11.4-18.4,20.5-31.1,25.9
		c6.3-6.8,10.2-15.9,10.2-25.9C124.8,70.4,120.8,61.2,114.4,54.4z M109.1,70.3c0,8.1-6.5,14.6-14.6,14.6c-8.1,0-14.6-6.5-14.6-14.6
		s6.5-14.6,14.6-14.6C102.6,55.7,109.1,62.2,109.1,70.3z M59.3,106.3c-12.7-5.4-23.5-14.5-31.1-25.9c7.6-11.4,18.4-20.5,31.2-26
		c-6.4,6.8-10.4,15.9-10.4,26C49.1,90.5,53,99.5,59.3,106.3z M141.1,123.4c-23.2,29.8-66.4,35.2-96.2,12
		c-13.9-10.8-22.5-26-25.4-42.2c0.5,0.6,0.9,1.2,1.4,1.8c15.6,19.3,39.4,31.6,66.1,31.6c26.7,0,50.5-12.3,66.1-31.6
		c0.5-0.6,0.9-1.2,1.4-1.8C152.6,103.9,148.2,114.3,141.1,123.4z"/>
</g>
</svg>
